<svg xmlns="http://www.w3.org/2000/svg" width="23.203" height="27" viewBox="0 0 23.203 27">
  <g id="information_2_" data-name="information (2)" transform="translate(-36 0)">
    <g id="Groupe_3232" data-name="Groupe 3232" transform="translate(36 0)">
      <g id="Groupe_3231" data-name="Groupe 3231">
        <path id="Tracé_5070" data-name="Tracé 5070" d="M235.389,182.774c-.671,0-1.148.283-1.148.7v5.678c0,.358.477.715,1.148.715.641,0,1.162-.358,1.162-.715v-5.678C236.551,183.057,236.029,182.774,235.389,182.774Z" transform="translate(-223.787 -173.136)" fill="#1d3557"/>
        <path id="Tracé_5071" data-name="Tracé 5071" d="M234.05,116.361a1.074,1.074,0,1,0,1.207,1.058A1.154,1.154,0,0,0,234.05,116.361Z" transform="translate(-222.448 -110.225)" fill="#1d3557"/>
        <path id="Tracé_5072" data-name="Tracé 5072" d="M47.6,0A11.6,11.6,0,0,0,44.09,22.648l2.638,3.889a1.055,1.055,0,0,0,1.746,0l2.638-3.889A11.6,11.6,0,0,0,47.6,0Zm2.565,20.73a1.055,1.055,0,0,0-.589.424L47.6,24.067l-1.976-2.913a1.055,1.055,0,0,0-.589-.424,9.492,9.492,0,1,1,5.131,0Z" transform="translate(-36 0)" fill="#e62825"/>
      </g>
    </g>
  </g>
</svg>
