<svg xmlns="http://www.w3.org/2000/svg" width="51.437" height="56.197" viewBox="0 0 51.437 56.197">
  <g id="down-arrow_4_" data-name="down-arrow (4)" transform="translate(254.603 55.604) rotate(-90)" opacity="0.33">
    <path id="Tracé_10" data-name="Tracé 10" d="M52.942.336,27.484,25.8,2.026.336A1.2,1.2,0,0,0,.336,2.026l26.3,26.3a1.2,1.2,0,0,0,1.691,0l26.3-26.3A1.2,1.2,0,0,0,52.944.336Z" transform="translate(0 -232.449)" fill="#607d8b" stroke="#707070" stroke-width="1"/>
    <path id="Tracé_11" data-name="Tracé 11" d="M52.942.365,27.484,25.825,2.026.365A1.2,1.2,0,0,0,.336,2.056l26.3,26.3a1.2,1.2,0,0,0,1.691,0l26.3-26.3A1.2,1.2,0,0,0,52.974.336l-.029.029Z" transform="translate(0 -254)" fill="#607d8b" stroke="#707070" stroke-width="1"/>
  </g>
</svg>
