<svg id="Groupe_3339" data-name="Groupe 3339" xmlns="http://www.w3.org/2000/svg" width="188.036" height="81.463" viewBox="0 0 188.036 81.463">
  <path id="Tracé_1028" data-name="Tracé 1028" d="M1103.51,2477.845v-56.418a95.806,95.806,0,0,1-15.612,16.294v40.124Z" transform="translate(-1044.155 -2421.427)" fill="#111c4e"/>
  <path id="Tracé_1029" data-name="Tracé 1029" d="M1083.625,2475.939V2440.5a84.562,84.562,0,0,1-15.612,8.406v27.031Z" transform="translate(-1046.141 -2419.521)" fill="#636569"/>
  <path id="Tracé_1030" data-name="Tracé 1030" d="M1063.733,2450.206a60.767,60.767,0,0,1-15.532,3.029v21.734h15.532Z" transform="translate(-1048.121 -2418.552)" fill="#d77900"/>
  <rect id="Rectangle_120" data-name="Rectangle 120" width="187.955" height="0.376" transform="translate(0.004 64.227)" fill="#d77900"/>
  <path id="Tracé_1031" data-name="Tracé 1031" d="M1048.128,2485.548h7.077c1.1,0,2.4.091,3.107,1.145a2.935,2.935,0,0,1,.557,1.766,2.8,2.8,0,0,1-1.084,2.278,4.445,4.445,0,0,1-2.823.694h-5.776v4.768h-1.058Zm6.472,5.009a3.61,3.61,0,0,0,2.6-.663,1.883,1.883,0,0,0,.572-1.434,2.077,2.077,0,0,0-.769-1.644,2.856,2.856,0,0,0-1.687-.394h-6.125v4.135Z" transform="translate(-1048.128 -2415.021)" fill="#d77900"/>
  <path id="Tracé_1032" data-name="Tracé 1032" d="M1065.281,2485.246a6.316,6.316,0,0,1,5.447,2.673,5.625,5.625,0,0,1,.858,2.955,5.526,5.526,0,0,1-1.222,3.455,6.645,6.645,0,0,1-5.112,2.186c-.86,0-4.028-.152-5.553-2.881a5.6,5.6,0,0,1-.694-2.745c0-3.725,3.109-5.641,6.277-5.641m-.015.921a5.553,5.553,0,0,0-3.3.98,4.63,4.63,0,0,0-1.841,3.787,5.069,5.069,0,0,0,.347,1.825c1.071,2.7,4.088,2.851,4.843,2.851,3.712,0,5.115-2.535,5.115-4.948,0-2.384-1.841-4.494-5.161-4.494" transform="translate(-1047.041 -2415.051)" fill="#d77900"/>
  <path id="Tracé_1033" data-name="Tracé 1033" d="M1073.359,2485.548v6.11a4.083,4.083,0,0,0,.572,2.5,4.31,4.31,0,0,0,3.605,1.342c2.4,0,3.577-.468,4.208-1.572a5.213,5.213,0,0,0,.453-2.756v-5.628h.964v6.425a4.827,4.827,0,0,1-.631,2.58,3.838,3.838,0,0,1-2.671,1.72,8.927,8.927,0,0,1-1.977.2,9.912,9.912,0,0,1-2.625-.319,3.665,3.665,0,0,1-2.608-2.292,6.118,6.118,0,0,1-.273-2.155v-6.155Z" transform="translate(-1045.705 -2415.021)" fill="#d77900"/>
  <path id="Tracé_1034" data-name="Tracé 1034" d="M1095.405,2496.2l-4.209-4.753h-4.873v4.753H1085.3v-10.651h7.846a3.047,3.047,0,0,1,2.731,1.237,3.112,3.112,0,0,1,.468,1.691,2.817,2.817,0,0,1-1.088,2.292,4.723,4.723,0,0,1-2.7.677l4.285,4.753Zm-3.334-5.659c1.07,0,2.367-.014,2.911-1.1a2.413,2.413,0,0,0,.241-1.026,2.046,2.046,0,0,0-.814-1.645,2.96,2.96,0,0,0-1.719-.346h-6.367v4.117Z" transform="translate(-1044.414 -2415.021)" fill="#d77900"/>
  <path id="Tracé_1035" data-name="Tracé 1035" d="M1102.817,2496.2v-10.651h1.056v9.761h7.754v.89Z" transform="translate(-1042.664 -2415.02)" fill="#d77900"/>
  <path id="Tracé_1036" data-name="Tracé 1036" d="M1121.863,2496.2l-1.374-2.76h-6.862l-1.359,2.76h-1.07l5.252-10.65h1.145l5.371,10.65Zm-4.842-9.7-2.986,6.093h6.035Z" transform="translate(-1041.827 -2415.021)" fill="#d77900"/>
  <path id="Tracé_1037" data-name="Tracé 1037" d="M1135.174,2485.548v6.577c0,1.584-.3,3.077-1.856,3.861a4.888,4.888,0,0,1-2.2.483,5.031,5.031,0,0,1-2.654-.709,4.3,4.3,0,0,1-1.612-2.171l1.054-.393a3.154,3.154,0,0,0,3.29,2.323,3.027,3.027,0,0,0,2.338-.935,5.481,5.481,0,0,0,.648-3.152v-5.883Z" transform="translate(-1040.263 -2415.021)" fill="#d77900"/>
  <path id="Tracé_1038" data-name="Tracé 1038" d="M1137.053,2496.2v-10.651h10.2v.875h-9.154v3.741h8.46v.906h-8.46v4.24h9.593v.89Z" transform="translate(-1039.243 -2415.02)" fill="#d77900"/>
  <path id="Tracé_1039" data-name="Tracé 1039" d="M1149.98,2485.548v6.11a4.067,4.067,0,0,0,.571,2.5,4.3,4.3,0,0,0,3.605,1.342c2.4,0,3.577-.468,4.208-1.572a5.234,5.234,0,0,0,.453-2.756v-5.628h.965v6.425a4.827,4.827,0,0,1-.631,2.58,3.842,3.842,0,0,1-2.671,1.72,8.93,8.93,0,0,1-1.977.2,9.918,9.918,0,0,1-2.625-.319,3.672,3.672,0,0,1-2.61-2.292,6.113,6.113,0,0,1-.269-2.155v-6.155Z" transform="translate(-1038.05 -2415.021)" fill="#d77900"/>
  <path id="Tracé_1040" data-name="Tracé 1040" d="M1171.994,2496.2l-9.125-9.292v9.292h-.952v-10.651h.952l9.125,9.338v-9.338h.952V2496.2Z" transform="translate(-1036.759 -2415.02)" fill="#d77900"/>
  <path id="Tracé_1041" data-name="Tracé 1041" d="M1174.783,2496.2v-10.651h10.2v.875h-9.154v3.741h8.46v.906h-8.46v4.24h9.593v.89Z" transform="translate(-1035.474 -2415.02)" fill="#d77900"/>
  <path id="Tracé_1042" data-name="Tracé 1042" d="M1186.911,2493.132c.243.634.874,2.43,4.647,2.43,2.128,0,4.176-.815,4.176-2.444,0-1.477-1.643-1.689-3.571-1.945l-2.324-.319a6.412,6.412,0,0,1-1.947-.5,2.182,2.182,0,0,1-1.266-1.979c0-1.719,1.687-3.093,4.9-3.093a6.4,6.4,0,0,1,4.995,2.1l-.967.513a4.833,4.833,0,0,0-4.1-1.69c-1.778,0-3.741.6-3.741,2.128a1.27,1.27,0,0,0,.829,1.145,6.935,6.935,0,0,0,1.976.425,22.434,22.434,0,0,1,4.736.89,2.425,2.425,0,0,1,1.584,2.263,2.9,2.9,0,0,1-.5,1.584c-.8,1.131-2.234,1.855-5.04,1.855-.662,0-3.227-.12-4.6-1.586a5.426,5.426,0,0,1-.906-1.356Z" transform="translate(-1034.374 -2415.047)" fill="#d77900"/>
  <path id="Tracé_1043" data-name="Tracé 1043" d="M1198.336,2493.132c.243.634.876,2.43,4.647,2.43,2.126,0,4.178-.815,4.178-2.444,0-1.477-1.645-1.689-3.575-1.945l-2.324-.319a6.416,6.416,0,0,1-1.945-.5,2.183,2.183,0,0,1-1.268-1.979c0-1.719,1.689-3.093,4.9-3.093a6.4,6.4,0,0,1,4.991,2.1l-.965.513a4.834,4.834,0,0,0-4.1-1.69c-1.78,0-3.741.6-3.741,2.128a1.268,1.268,0,0,0,.828,1.145,6.9,6.9,0,0,0,1.976.425,22.415,22.415,0,0,1,4.736.89,2.423,2.423,0,0,1,1.584,2.263,2.89,2.89,0,0,1-.5,1.584c-.8,1.131-2.232,1.855-5.037,1.855-.663,0-3.228-.12-4.6-1.586a5.391,5.391,0,0,1-.9-1.356Z" transform="translate(-1033.232 -2415.047)" fill="#d77900"/>
  <path id="Tracé_1044" data-name="Tracé 1044" d="M1209.344,2496.2v-10.651h10.2v.875h-9.154v3.741h8.463v.906h-8.463v4.24h9.593v.89Z" transform="translate(-1032.021 -2415.02)" fill="#d77900"/>
  <path id="Tracé_1045" data-name="Tracé 1045" d="M1114.322,2425.087v4.326h4.408v3.394h-4.408v8.3h-4.71v-19.33h9.5v3.312Z" transform="translate(-1041.985 -2421.392)" fill="#111c4e"/>
  <path id="Tracé_1046" data-name="Tracé 1046" d="M1132.334,2435.089c0,2.765-.275,6.3-6.159,6.3-4.136,0-6.406-1.451-6.406-5.885v-8.35c0-4.133,2.244-5.722,6.3-5.722,4.461,0,6.269,1.861,6.269,6.023Zm-7.884,1.258c0,.876,0,1.645,1.615,1.645,1.258,0,1.615-.521,1.615-1.645v-9.884c0-1.258-.439-1.59-1.7-1.59-1.149,0-1.532.413-1.532,1.565Z" transform="translate(-1040.97 -2421.427)" fill="#111c4e"/>
  <path id="Tracé_1047" data-name="Tracé 1047" d="M1141.973,2441.105l-4.025-12.6v12.6H1134v-19.331h4.628l4.052,12.541v-12.541h4v19.331Z" transform="translate(-1039.548 -2421.392)" fill="#111c4e"/>
  <path id="Tracé_1048" data-name="Tracé 1048" d="M1156.069,2421.775c3.178,0,4.9,1.343,4.9,4.708v9.966c0,3.862-1.913,4.657-5.172,4.657h-7.257v-19.331Zm-2.983,15.991h1.453c1.258,0,1.724-.33,1.724-1.644v-9.253c0-1.29-.465-1.752-1.752-1.752h-1.424Z" transform="translate(-1038.096 -2421.392)" fill="#111c4e"/>
  <path id="Tracé_1049" data-name="Tracé 1049" d="M1170.786,2441.1l-.656-4.408h-3.589l-.684,4.408h-4.57l3.915-19.328h6.24l3.914,19.328Zm-2.41-16.264-1.314,8.6h2.6Z" transform="translate(-1036.822 -2421.392)" fill="#111c4e"/>
  <path id="Tracé_1050" data-name="Tracé 1050" d="M1182.026,2425.142V2441.1h-4.736v-15.963h-3.832v-3.365h12.43v3.365Z" transform="translate(-1035.606 -2421.392)" fill="#111c4e"/>
  <rect id="Rectangle_121" data-name="Rectangle 121" width="4.681" height="19.331" transform="translate(151.951 0.384)" fill="#111c4e"/>
  <path id="Tracé_1051" data-name="Tracé 1051" d="M1205.885,2435.089c0,2.765-.273,6.3-6.158,6.3-4.134,0-6.407-1.451-6.407-5.885v-8.35c0-4.133,2.245-5.722,6.3-5.722,4.459,0,6.267,1.861,6.267,6.023Zm-7.884,1.258c0,.876,0,1.645,1.617,1.645,1.256,0,1.616-.521,1.616-1.645v-9.884c0-1.258-.439-1.59-1.7-1.59-1.153,0-1.536.413-1.536,1.565Z" transform="translate(-1033.622 -2421.427)" fill="#111c4e"/>
  <path id="Tracé_1052" data-name="Tracé 1052" d="M1215.525,2441.105l-4.025-12.6v12.6h-3.943v-19.331h4.628l4.054,12.541v-12.541h4v19.331Z" transform="translate(-1032.199 -2421.392)" fill="#111c4e"/>
  <path id="Tracé_1053" data-name="Tracé 1053" d="M1109.611,2442.1h22.136c4.724,0,12.117.955,12.117,8.73,0,5.679-4.245,6.632-4.722,6.921a8.575,8.575,0,0,1,6.395,8.633,8.813,8.813,0,0,1-1.432,5.009c-2.863,4.341-8.349,4.389-12.883,4.389h-21.61Zm22.423,14.219c2.193,0,4.532-.05,5.963-2.1a5.353,5.353,0,0,0,.906-3.054,4.755,4.755,0,0,0-2.242-4.153c-1.67-1.046-3.627-1.046-5.485-1.046h-16.747v10.352Zm.619,15.552c2.48,0,5.1-.241,6.775-2.387a5.466,5.466,0,0,0,1.1-3.434,5.536,5.536,0,0,0-.955-3.387c-1.622-2.338-4.341-2.483-6.917-2.483h-18.224v11.69Z" transform="translate(-1041.985 -2419.362)" fill="#111c4e"/>
  <rect id="Rectangle_122" data-name="Rectangle 122" width="4.866" height="33.681" transform="translate(112.328 22.737)" fill="#111c4e"/>
  <path id="Tracé_1054" data-name="Tracé 1054" d="M1192.619,2475.78l-4.1-8.3h-20.7l-4.1,8.3h-5.39l17.46-33.681h5.1l17.268,33.681Zm-14.407-28.863-8.395,16.7h16.647Z" transform="translate(-1037.119 -2419.362)" fill="#111c4e"/>
  <path id="Tracé_1055" data-name="Tracé 1055" d="M1208.228,2446.105v29.676h-4.77v-29.676H1189.72V2442.1h32.3v4.006Z" transform="translate(-1033.981 -2419.362)" fill="#111c4e"/>
</svg>
