<svg xmlns="http://www.w3.org/2000/svg" width="40.286" height="71.494" viewBox="0 0 40.286 71.494">
  <g id="Group_47" data-name="Group 47" transform="translate(-978.409 -72.935)">
    <g id="Group_31" data-name="Group 31">
      <g id="Group_28" data-name="Group 28">
        <g id="Group_27" data-name="Group 27">
          <path id="Path_1009" data-name="Path 1009" d="M1016.5,128.842a2.2,2.2,0,0,1,2.2,2.2h0a2.192,2.192,0,0,1-2.2,2.2h0a2.2,2.2,0,0,1-2.2-2.2h0A2.2,2.2,0,0,1,1016.5,128.842Zm0-11.177a2.2,2.2,0,0,1,2.2,2.195h0a2.192,2.192,0,0,1-2.2,2.2h0a2.2,2.2,0,0,1-2.2-2.2h0A2.2,2.2,0,0,1,1016.5,117.665Zm0-11.178a2.188,2.188,0,0,1,2.2,2.195h0a2.2,2.2,0,0,1-2.2,2.195h0a2.2,2.2,0,0,1-2.2-2.195h0A2.193,2.193,0,0,1,1016.5,106.487Zm0-11.183a2.191,2.191,0,0,1,2.2,2.2h0a2.2,2.2,0,0,1-2.2,2.2h0a2.2,2.2,0,0,1-2.2-2.2h0A2.2,2.2,0,0,1,1016.5,95.3Zm0-11.18a2.189,2.189,0,0,1,2.2,2.186h0a2.2,2.2,0,0,1-2.2,2.206h0a2.2,2.2,0,0,1-2.2-2.206h0A2.194,2.194,0,0,1,1016.5,84.124Zm0-11.189a2.2,2.2,0,0,1,2.2,2.2h0a2.191,2.191,0,0,1-2.2,2.194h0a2.2,2.2,0,0,1-2.2-2.194h0A2.2,2.2,0,0,1,1016.5,72.935Z" fill="#457b9d"/>
        </g>
      </g>
      <g id="Group_30" data-name="Group 30">
        <g id="Group_29" data-name="Group 29">
          <path id="Path_1010" data-name="Path 1010" d="M1014.3,142.22a2.162,2.162,0,0,1,.652-1.548,2.165,2.165,0,0,1,3.093,0,2.2,2.2,0,0,1-1.547,3.757,2.214,2.214,0,0,1-1.546-.646A2.173,2.173,0,0,1,1014.3,142.22Z" fill="#457b9d"/>
        </g>
      </g>
    </g>
    <g id="Group_36" data-name="Group 36">
      <g id="Group_33" data-name="Group 33">
        <g id="Group_32" data-name="Group 32">
          <path id="Path_1011" data-name="Path 1011" d="M1004.407,128.842a2.2,2.2,0,0,1,2.2,2.2h0a2.19,2.19,0,0,1-2.2,2.2h0a2.2,2.2,0,0,1-2.2-2.2h0A2.207,2.207,0,0,1,1004.407,128.842Zm0-11.176a2.193,2.193,0,0,1,2.2,2.194h0a2.2,2.2,0,0,1-2.2,2.2h0a2.207,2.207,0,0,1-2.2-2.2h0A2.2,2.2,0,0,1,1004.407,117.666Zm0-11.179a2.185,2.185,0,0,1,2.2,2.195h0a2.193,2.193,0,0,1-2.2,2.195h0a2.2,2.2,0,0,1-2.2-2.195h0A2.2,2.2,0,0,1,1004.407,106.487Zm0-11.183a2.189,2.189,0,0,1,2.2,2.2h0a2.2,2.2,0,0,1-2.2,2.2h0a2.205,2.205,0,0,1-2.2-2.2h0A2.2,2.2,0,0,1,1004.407,95.3Zm0-11.18a2.187,2.187,0,0,1,2.2,2.186h0a2.184,2.184,0,0,1-2.2,2.195h0a2.194,2.194,0,0,1-2.2-2.195h0A2.2,2.2,0,0,1,1004.407,84.124Zm0-11.189a2.194,2.194,0,0,1,2.2,2.2h0a2.189,2.189,0,0,1-2.2,2.195h0a2.2,2.2,0,0,1-2.2-2.195h0A2.2,2.2,0,0,1,1004.407,72.935Z" fill="#457b9d"/>
        </g>
      </g>
      <g id="Group_35" data-name="Group 35">
        <g id="Group_34" data-name="Group 34">
          <path id="Path_1012" data-name="Path 1012" d="M1002.209,142.222a2.211,2.211,0,0,1,2.2-2.2,2.26,2.26,0,0,1,1.559.65,2.3,2.3,0,0,1,0,3.113,2.2,2.2,0,0,1-3.112,0A2.245,2.245,0,0,1,1002.209,142.222Z" fill="#457b9d"/>
        </g>
      </g>
    </g>
    <g id="Group_41" data-name="Group 41">
      <g id="Group_38" data-name="Group 38">
        <g id="Group_37" data-name="Group 37">
          <path id="Path_1013" data-name="Path 1013" d="M992.7,128.842a2.207,2.207,0,0,1,2.2,2.2h0a2.2,2.2,0,0,1-2.2,2.2h0a2.192,2.192,0,0,1-2.2-2.2h0A2.2,2.2,0,0,1,992.7,128.842Zm0-11.176a2.2,2.2,0,0,1,2.2,2.194h0a2.208,2.208,0,0,1-2.2,2.2h0a2.2,2.2,0,0,1-2.2-2.2h0A2.195,2.195,0,0,1,992.7,117.666Zm0-11.179a2.2,2.2,0,0,1,2.2,2.195h0a2.2,2.2,0,0,1-2.2,2.195h0a2.2,2.2,0,0,1-2.2-2.195h0A2.187,2.187,0,0,1,992.7,106.487Zm0-11.183a2.2,2.2,0,0,1,2.2,2.2h0a2.206,2.206,0,0,1-2.2,2.2h0a2.2,2.2,0,0,1-2.2-2.2h0A2.191,2.191,0,0,1,992.7,95.3Zm0-11.189a2.2,2.2,0,0,1,2.2,2.195h0a2.193,2.193,0,0,1-2.2,2.195h0a2.186,2.186,0,0,1-2.2-2.195h0A2.2,2.2,0,0,1,992.7,84.115Zm0-11.18a2.2,2.2,0,0,1,2.2,2.2h0a2.2,2.2,0,0,1-2.2,2.195h0a2.191,2.191,0,0,1-2.2-2.195h0A2.2,2.2,0,0,1,992.7,72.935Z" fill="#457b9d"/>
        </g>
      </g>
      <g id="Group_40" data-name="Group 40">
        <g id="Group_39" data-name="Group 39">
          <path id="Path_1014" data-name="Path 1014" d="M990.5,142.222a2.22,2.22,0,0,1,.637-1.55,2.259,2.259,0,0,1,1.56-.65,2.234,2.234,0,0,1,1.548.65,2.291,2.291,0,0,1,0,3.113,2.191,2.191,0,0,1-3.745-1.563Z" fill="#457b9d"/>
        </g>
      </g>
    </g>
    <g id="Group_46" data-name="Group 46">
      <g id="Group_43" data-name="Group 43">
        <g id="Group_42" data-name="Group 42">
          <path id="Path_1015" data-name="Path 1015" d="M980.6,128.842a2.194,2.194,0,0,1,2.2,2.2h0a2.188,2.188,0,0,1-2.2,2.2h0a2.2,2.2,0,0,1-2.2-2.2h0A2.205,2.205,0,0,1,980.6,128.842Zm0-11.176a2.186,2.186,0,0,1,2.2,2.194h0a2.195,2.195,0,0,1-2.2,2.2h0a2.205,2.205,0,0,1-2.2-2.2h0A2.2,2.2,0,0,1,980.6,117.666Zm0-11.179a2.183,2.183,0,0,1,2.2,2.195h0a2.192,2.192,0,0,1-2.2,2.195h0a2.2,2.2,0,0,1-2.2-2.195h0A2.194,2.194,0,0,1,980.6,106.487Zm0-11.183a2.187,2.187,0,0,1,2.2,2.2h0a2.193,2.193,0,0,1-2.2,2.2h0a2.2,2.2,0,0,1-2.2-2.2h0A2.2,2.2,0,0,1,980.6,95.3Zm0-11.189a2.193,2.193,0,0,1,2.2,2.195h0a2.192,2.192,0,0,1-2.2,2.206h0a2.2,2.2,0,0,1-2.2-2.206h0A2.2,2.2,0,0,1,980.6,84.115Zm0-11.18a2.192,2.192,0,0,1,2.2,2.2h0a2.187,2.187,0,0,1-2.2,2.195h0a2.2,2.2,0,0,1-2.2-2.195h0A2.2,2.2,0,0,1,980.6,72.935Z" fill="#457b9d"/>
        </g>
      </g>
      <g id="Group_45" data-name="Group 45">
        <g id="Group_44" data-name="Group 44">
          <path id="Path_1016" data-name="Path 1016" d="M978.409,142.222a2.214,2.214,0,0,1,.635-1.55,2.289,2.289,0,0,1,1.56-.65,2.21,2.21,0,0,1,1.55.65,2.195,2.195,0,0,1-1.55,3.757,2.237,2.237,0,0,1-1.546-.644A2.2,2.2,0,0,1,978.409,142.222Z" fill="#457b9d"/>
        </g>
      </g>
    </g>
  </g>
</svg>
