<svg xmlns="http://www.w3.org/2000/svg" viewBox="0 0 71.5 40.3"><defs><style>.cls-1{fill:#457b9d;}</style></defs><g id="Layer_2" data-name="Layer 2"><g id="blue-dots"><path id="groups3" class="cls-1" d="M15.59,38.1a2.2,2.2,0,0,1-2.2,2.2h0a2.19,2.19,0,0,1-2.2-2.18v0h0a2.2,2.2,0,0,1,2.2-2.2h0a2.21,2.21,0,0,1,2.2,2.2Zm11.18,0a2.21,2.21,0,0,1-2.2,2.2h0a2.2,2.2,0,0,1-2.2-2.18v0h0a2.21,2.21,0,0,1,2.2-2.2h0A2.21,2.21,0,0,1,26.77,38.1Zm11.17,0a2.18,2.18,0,0,1-2.17,2.2h0a2.21,2.21,0,0,1-2.2-2.2h0a2.21,2.21,0,0,1,2.2-2.2h0a2.19,2.19,0,0,1,2.19,2.19Zm11.19,0A2.19,2.19,0,0,1,47,40.3h0a2.19,2.19,0,0,1-2.2-2.2h0a2.2,2.2,0,0,1,2.2-2.2h0a2.2,2.2,0,0,1,2.2,2.2Zm11.18,0a2.2,2.2,0,0,1-2.18,2.2h0a2.2,2.2,0,0,1-2.2-2.19h0a2.2,2.2,0,0,1,2.2-2.2h0A2.2,2.2,0,0,1,60.31,38.1Zm11.19,0a2.2,2.2,0,0,1-2.2,2.2h0a2.2,2.2,0,0,1-2.2-2.19h0a2.2,2.2,0,0,1,2.2-2.2h0a2.21,2.21,0,0,1,2.2,2.2Z"/><path id="dot-3" class="cls-1" d="M2.21,35.9a2.16,2.16,0,0,1,1.55.65,2.16,2.16,0,0,1,0,3.06l0,0A2.21,2.21,0,0,1,0,38.1a2.25,2.25,0,0,1,.65-1.55A2.17,2.17,0,0,1,2.21,35.9Z"/><path id="groups2" class="cls-1" d="M15.59,26a2.21,2.21,0,0,1-2.2,2.2h0A2.2,2.2,0,0,1,11.19,26v0h0a2.19,2.19,0,0,1,2.2-2.2h0A2.2,2.2,0,0,1,15.59,26Zm11.18,0a2.2,2.2,0,0,1-2.19,2.2h0a2.21,2.21,0,0,1-2.2-2.2h0a2.21,2.21,0,0,1,2.2-2.2h0A2.2,2.2,0,0,1,26.77,26Zm11.17,0a2.19,2.19,0,0,1-2.17,2.2h0A2.2,2.2,0,0,1,33.55,26h0a2.2,2.2,0,0,1,2.2-2.2h0A2.19,2.19,0,0,1,37.94,26Zm11.19,0A2.2,2.2,0,0,1,47,28.21h0a2.2,2.2,0,0,1-2.2-2.2h0a2.19,2.19,0,0,1,2.2-2.2h0A2.19,2.19,0,0,1,49.13,26Zm11.18,0a2.2,2.2,0,0,1-2.18,2.2h0A2.19,2.19,0,0,1,55.93,26v0h0a2.18,2.18,0,0,1,2.18-2.2h0A2.2,2.2,0,0,1,60.31,26ZM71.5,26a2.2,2.2,0,0,1-2.19,2.2h0A2.2,2.2,0,0,1,67.1,26h0a2.19,2.19,0,0,1,2.2-2.2h0A2.2,2.2,0,0,1,71.5,26Z"/><path id="dot-2" class="cls-1" d="M2.21,23.81A2.22,2.22,0,0,1,4.41,26a2.29,2.29,0,0,1-.65,1.56,2.29,2.29,0,0,1-3.11,0,2.2,2.2,0,0,1,0-3.11h0A2.17,2.17,0,0,1,2.21,23.81Z"/><path id="groups1" class="cls-1" d="M15.59,14.3a2.21,2.21,0,0,1-2.2,2.2h0a2.19,2.19,0,0,1-2.2-2.2h0a2.19,2.19,0,0,1,2.18-2.2h0a2.21,2.21,0,0,1,2.2,2.2Zm11.18,0a2.21,2.21,0,0,1-2.2,2.2h0a2.21,2.21,0,0,1-2.2-2.2h0a2.21,2.21,0,0,1,2.2-2.2h0a2.2,2.2,0,0,1,2.2,2.2Zm11.17,0a2.2,2.2,0,0,1-2.19,2.2h0a2.21,2.21,0,0,1-2.2-2.2h0a2.21,2.21,0,0,1,2.2-2.2h0a2.18,2.18,0,0,1,2.19,2.18Zm11.19,0a2.2,2.2,0,0,1-2.2,2.2h0a2.2,2.2,0,0,1-2.2-2.2h0a2.2,2.2,0,0,1,2.2-2.2h0a2.19,2.19,0,0,1,2.2,2.18v0Zm11.19,0a2.21,2.21,0,0,1-2.2,2.2h0a2.19,2.19,0,0,1-2.19-2.19h0a2.18,2.18,0,0,1,2.17-2.2h0A2.21,2.21,0,0,1,60.32,14.3Zm11.18,0a2.2,2.2,0,0,1-2.2,2.2h0a2.2,2.2,0,0,1-2.2-2.2h0a2.2,2.2,0,0,1,2.18-2.2h0a2.21,2.21,0,0,1,2.2,2.2Z"/><path id="dot-1" class="cls-1" d="M2.21,12.1a2.2,2.2,0,0,1,1.55.64,2.19,2.19,0,0,1,0,3.11,2.29,2.29,0,0,1-3.11,0A2.2,2.2,0,0,1,2.21,12.1Z"/><path id="groups" class="cls-1" d="M15.59,2.2A2.2,2.2,0,0,1,13.4,4.4h0a2.19,2.19,0,0,1-2.2-2.18v0h0A2.19,2.19,0,0,1,13.39,0h0A2.21,2.21,0,0,1,15.59,2.2Zm11.18,0a2.2,2.2,0,0,1-2.18,2.2h0a2.2,2.2,0,0,1-2.2-2.19h0A2.21,2.21,0,0,1,24.57,0h0A2.21,2.21,0,0,1,26.77,2.2Zm11.17,0a2.18,2.18,0,0,1-2.16,2.2h0a2.2,2.2,0,0,1-2.2-2.19h0A2.21,2.21,0,0,1,35.75,0h0a2.19,2.19,0,0,1,2.19,2.19Zm11.19,0A2.2,2.2,0,0,1,47,4.4h0a2.19,2.19,0,0,1-2.2-2.19h0A2.19,2.19,0,0,1,46.93,0h0a2.2,2.2,0,0,1,2.2,2.2Zm11.19,0a2.2,2.2,0,0,1-2.19,2.2h0a2.18,2.18,0,0,1-2.2-2.18v0h0A2.19,2.19,0,0,1,58.12,0h0A2.21,2.21,0,0,1,60.32,2.2Zm11.18,0a2.2,2.2,0,0,1-2.19,2.2h0a2.2,2.2,0,0,1-2.2-2.18v0h0A2.2,2.2,0,0,1,69.3,0h0a2.2,2.2,0,0,1,2.2,2.2Z"/><path id="dot" class="cls-1" d="M2.21,0A2.23,2.23,0,0,1,3.76.64,2.29,2.29,0,0,1,4.41,2.2a2.19,2.19,0,0,1-.65,1.55,2.18,2.18,0,0,1-3.1,0A2.2,2.2,0,0,1,0,2.2,2.22,2.22,0,0,1,.65.66,2.17,2.17,0,0,1,2.21,0Z"/></g></g></svg>