<svg xmlns="http://www.w3.org/2000/svg" width="18.437" height="19.69" viewBox="0 0 18.437 19.69">
  <g id="agenda" transform="translate(0 0.001)">
    <path id="Tracé_5080" data-name="Tracé 5080" d="M165.388,122.862h7.545a.619.619,0,0,0,.619-.619v-1.48a4.4,4.4,0,0,0-2.419-3.923,2.92,2.92,0,1,0-3.945,0,4.4,4.4,0,0,0-2.419,3.923v1.48a.619.619,0,0,0,.619.619Zm.619-2.1a3.154,3.154,0,1,1,6.307,0v.861h-6.307Zm1.471-6.074a1.683,1.683,0,1,1,1.683,1.682A1.684,1.684,0,0,1,167.478,114.689Zm0,0" transform="translate(-158.433 -107.471)" fill="#1d3557"/>
    <path id="Tracé_5081" data-name="Tracé 5081" d="M17.818,0H1.127A1.128,1.128,0,0,0,0,1.126V18.563a1.128,1.128,0,0,0,1.127,1.127H17.818a.619.619,0,0,0,.619-.619V.618A.619.619,0,0,0,17.818,0ZM1.238,1.237H3.019V18.451H1.238ZM17.2,18.451H4.257V1.237H17.2Zm0,0" fill="#de1f26"/>
  </g>
</svg>
