<svg xmlns="http://www.w3.org/2000/svg" id="surface1" width="40.155" height="50.684" viewBox="0 0 40.155 50.684">
    <defs>
        <style>
            .cls-1{fill:#cad5e2}
        </style>
    </defs>
    <path id="Path_234" d="M27.813.392A1.226 1.226 0 0 0 26.932 0H7.16A6.688 6.688 0 0 0 .5 6.648v37.388a6.688 6.688 0 0 0 6.66 6.648H34a6.688 6.688 0 0 0 6.66-6.648V14.348a1.318 1.318 0 0 0-.355-.857zm.355 3.93L36.53 13.1h-5.436a2.916 2.916 0 0 1-2.926-2.914zM34 48.236H7.16a4.241 4.241 0 0 1-4.211-4.2V6.648a4.24 4.24 0 0 1 4.211-4.2h18.56v7.737a5.356 5.356 0 0 0 5.375 5.362h7.113v28.489a4.232 4.232 0 0 1-4.208 4.2zm0 0" class="cls-1" transform="translate(-.5)"/>
    <path id="Path_235" d="M110.547 401.934H90.4a1.224 1.224 0 1 0 0 2.448h20.16a1.224 1.224 0 1 0-.012-2.448zm0 0" class="cls-1" transform="translate(-80.394 -362.146)"/>
    <path id="Path_236" d="M120.522 180.054l5.044-5.424V188a1.224 1.224 0 0 0 2.449 0v-13.369l5.044 5.424a1.221 1.221 0 0 0 1.788-1.665l-7.174-7.7a1.215 1.215 0 0 0-1.787 0l-7.174 7.7a1.22 1.22 0 0 0 .061 1.726 1.249 1.249 0 0 0 1.749-.062zm0 0" class="cls-1" transform="translate(-106.712 -153.439)"/>
</svg>
