<svg id="x-mark" xmlns="http://www.w3.org/2000/svg" width="31.066" height="31.066" viewBox="0 0 31.066 31.066">
  <path id="Tracé_4499" data-name="Tracé 4499" d="M15.533,31.066A15.533,15.533,0,1,1,31.066,15.533,15.551,15.551,0,0,1,15.533,31.066Zm0-28.847A13.314,13.314,0,1,0,28.847,15.533,13.329,13.329,0,0,0,15.533,2.219Zm0,0" fill="#457b9d"/>
  <path id="Tracé_4500" data-name="Tracé 4500" d="M158.492,159.6a1.105,1.105,0,0,1-.785-.325l-11.095-11.095a1.109,1.109,0,0,1,1.569-1.569l11.095,11.095a1.11,1.11,0,0,1-.784,1.894Zm0,0" transform="translate(-137.411 -137.412)" fill="#457b9d"/>
  <path id="Tracé_4501" data-name="Tracé 4501" d="M147.4,159.6a1.11,1.11,0,0,1-.784-1.894l11.095-11.095a1.109,1.109,0,1,1,1.569,1.569L148.18,159.276A1.105,1.105,0,0,1,147.4,159.6Zm0,0" transform="translate(-137.41 -137.411)" fill="#457b9d"/>
</svg>
