<svg xmlns="http://www.w3.org/2000/svg" width="16.5" height="16.468" viewBox="0 0 16.5 16.468">
  <path id="coworking" d="M15.15,6.806V5.339A5.328,5.328,0,0,0,9.844,0h-3.2A5.322,5.322,0,0,0,1.351,5.339V6.806L.037,9.979a.482.482,0,0,0,.446.667h1.48v2.412a.482.482,0,0,0,.482.482H3.892v2.444a.482.482,0,0,0,.482.483h7.751a.482.482,0,0,0,.482-.483V13.541h1.447a.482.482,0,0,0,.483-.482V10.646h1.48a.482.482,0,0,0,.446-.667Zm-7.4,4.877h0c0,.008,0,.017,0,.025v3.8H4.857V13.059a.483.483,0,0,0-.483-.483H2.928V10.164a.482.482,0,0,0-.483-.482H1.205l1.075-2.6A.484.484,0,0,0,2.316,6.9V5.339A4.356,4.356,0,0,1,6.645.965H7.752V3.953a1.93,1.93,0,1,0,0,3.738v1.9a.482.482,0,0,0,.811.353.962.962,0,0,1,.657-.258.965.965,0,1,1,0,1.93.962.962,0,0,1-.656-.257.483.483,0,0,0-.811.329Zm6.3-2a.482.482,0,0,0-.482.482v2.412H12.126a.483.483,0,0,0-.483.483V15.5H8.717V12.51a1.93,1.93,0,1,0,0-3.727V6.9a.482.482,0,0,0-.8-.36.965.965,0,1,1,0-1.439.482.482,0,0,0,.8-.36V.965H9.844a4.363,4.363,0,0,1,4.342,4.374V6.9a.482.482,0,0,0,.037.184l1.073,2.6Zm0,0" transform="translate(-0.001 0)" fill="#fff"/>
</svg>
