<svg xmlns="http://www.w3.org/2000/svg" width="25.964" height="25.966" viewBox="0 0 25.964 25.966">
  <g id="contract" transform="translate(-0.018)">
    <g id="Groupe_3164" data-name="Groupe 3164" transform="translate(0.018)">
      <g id="Groupe_3163" data-name="Groupe 3163" transform="translate(0)">
        <path id="Tracé_4979" data-name="Tracé 4979" d="M25.313,8.172a2.285,2.285,0,0,0-3.228,0L19.8,10.462V4.434a2.267,2.267,0,0,0-.668-1.614L16.977.668A2.267,2.267,0,0,0,15.363,0H2.3A2.285,2.285,0,0,0,.018,2.282v21.4A2.285,2.285,0,0,0,2.3,25.966H17.515A2.285,2.285,0,0,0,19.8,23.684V16.92L25.313,11.4A2.281,2.281,0,0,0,25.313,8.172ZM15.233,1.521a.83.83,0,0,1,.668.223L18.053,3.9a.83.83,0,0,1,.223.668H15.233Zm3.043,22.162a.762.762,0,0,1-.761.761H2.3a.762.762,0,0,1-.761-.761V2.282A.762.762,0,0,1,2.3,1.521H13.711v3.8a.761.761,0,0,0,.761.761h3.8v5.9l-2.244,2.246-1.075,1.075a.761.761,0,0,0-.184.3L13.7,18.832a.761.761,0,0,0,.962.962l3.228-1.076a.76.76,0,0,0,.3-.184l.092-.092Zm-1.706-7.839,1.076,1.076-.411.411-1.614.538.538-1.614Zm2.151,0-1.076-1.076,3.657-3.66,1.076,1.076Zm5.516-5.521-.784.785-1.076-1.076.784-.785a.761.761,0,1,1,1.076,1.076Z" transform="translate(-0.018)" fill="#fff"/>
      </g>
    </g>
    <g id="Groupe_3166" data-name="Groupe 3166" transform="translate(3.061 7.607)">
      <g id="Groupe_3165" data-name="Groupe 3165">
        <path id="Tracé_4980" data-name="Tracé 4980" d="M71.429,150H60.779a.761.761,0,1,0,0,1.521h10.65a.761.761,0,0,0,0-1.521Z" transform="translate(-60.018 -150)" fill="#fff"/>
      </g>
    </g>
    <g id="Groupe_3168" data-name="Groupe 3168" transform="translate(3.061 10.65)">
      <g id="Groupe_3167" data-name="Groupe 3167">
        <path id="Tracé_4981" data-name="Tracé 4981" d="M68.386,210H60.779a.761.761,0,1,0,0,1.521h7.607a.761.761,0,0,0,0-1.521Z" transform="translate(-60.018 -210)" fill="#fff"/>
      </g>
    </g>
    <g id="Groupe_3170" data-name="Groupe 3170" transform="translate(3.061 13.693)">
      <g id="Groupe_3169" data-name="Groupe 3169">
        <path id="Tracé_4982" data-name="Tracé 4982" d="M68.386,270H60.779a.761.761,0,1,0,0,1.521h7.607a.761.761,0,1,0,0-1.521Z" transform="translate(-60.018 -270)" fill="#fff"/>
      </g>
    </g>
    <g id="Groupe_3172" data-name="Groupe 3172" transform="translate(3.061 16.736)">
      <g id="Groupe_3171" data-name="Groupe 3171">
        <path id="Tracé_4983" data-name="Tracé 4983" d="M68.386,330H60.779a.761.761,0,1,0,0,1.521h7.607a.761.761,0,1,0,0-1.521Z" transform="translate(-60.018 -330)" fill="#fff"/>
      </g>
    </g>
    <g id="Groupe_3174" data-name="Groupe 3174" transform="translate(9.147 21.402)">
      <g id="Groupe_3173" data-name="Groupe 3173">
        <path id="Tracé_4984" data-name="Tracé 4984" d="M185.343,422h-4.564a.761.761,0,1,0,0,1.521h4.564a.761.761,0,1,0,0-1.521Z" transform="translate(-180.018 -422)" fill="#fff"/>
      </g>
    </g>
  </g>
</svg>
