<svg xmlns="http://www.w3.org/2000/svg" width="13.316" height="15.002" viewBox="0 0 13.316 15.002">
  <g id="event" transform="translate(-45.84)">
    <path id="Tracé_1094" data-name="Tracé 1094" d="M58.205,1.172h-.95V.879A.918.918,0,0,0,56.3,0h0a.918.918,0,0,0-.95.879v.293h-1.9V.879A.918.918,0,0,0,52.5,0h0a.918.918,0,0,0-.95.879v.293h-1.9V.879A.918.918,0,0,0,48.7,0h0a.918.918,0,0,0-.95.879v.293H46.8a.924.924,0,0,0-.961.879V14.123A.924.924,0,0,0,46.8,15h11.4a.918.918,0,0,0,.95-.879V2.051A.918.918,0,0,0,58.205,1.172ZM55.988.879a.318.318,0,0,1,.634,0V2.051a.318.318,0,0,1-.634,0Zm-3.8,0a.318.318,0,0,1,.634,0V2.051a.318.318,0,0,1-.634,0Zm-3.8,0a.318.318,0,0,1,.634,0V2.051a.318.318,0,0,1-.634,0ZM46.8,1.758h.95v.293a.953.953,0,0,0,1.9,0V1.758h1.9v.293a.953.953,0,0,0,1.9,0V1.758h1.9v.293a.953.953,0,0,0,1.9,0V1.758h.95a.306.306,0,0,1,.317.293V3.809H46.474V2.051a.316.316,0,0,1,.327-.293Zm11.4,12.658H46.8a.316.316,0,0,1-.327-.293V4.4H58.522v9.728A.306.306,0,0,1,58.205,14.416Z" fill="#fff" fill-rule="evenodd"/>
    <path id="Tracé_1095" data-name="Tracé 1095" d="M166.969,223.5l-.623-1.272a.393.393,0,0,0-.707,0l-.624,1.274-1.406.2h0a.394.394,0,0,0-.219.672l1.019.988-.244,1.4h0a.394.394,0,0,0,.572.416l1.255-.665,1.235.654a.394.394,0,0,0,.592-.406l-.244-1.4,1.006-.975a.394.394,0,0,0-.206-.685Z" transform="translate(-113.489 -215.496)" fill="#fff" fill-rule="evenodd"/>
  </g>
</svg>
