<svg xmlns="http://www.w3.org/2000/svg" width="11.494" height="24.74" viewBox="0 0 11.494 24.74">
  <g id="Groupe_13" data-name="Groupe 13" transform="translate(0 0)">
    <g id="Groupe_12" data-name="Groupe 12" transform="translate(0)">
      <path id="Tracé_7" data-name="Tracé 7" d="M179.612,862.816v11.961a.311.311,0,0,0,.312.311h4.441a.311.311,0,0,0,.312-.311V862.62h3.22a.312.312,0,0,0,.31-.285l.31-3.662a.312.312,0,0,0-.31-.339h-3.53v-2.6a1.1,1.1,0,0,1,1.1-1.1h2.482a.312.312,0,0,0,.311-.312V850.66a.312.312,0,0,0-.311-.312h-4.194a4.456,4.456,0,0,0-4.456,4.456v3.531h-2.221a.312.312,0,0,0-.312.312v3.663a.311.311,0,0,0,.312.311h2.221Z" transform="translate(-177.079 -850.348)" fill="#1d3557" fill-rule="evenodd"/>
    </g>
  </g>
</svg>
