<svg xmlns="http://www.w3.org/2000/svg" width="7.704" height="16.583" viewBox="0 0 7.704 16.583">
  <g id="Groupe_13" data-name="Groupe 13" transform="translate(0 0)">
    <g id="Groupe_12" data-name="Groupe 12" transform="translate(0)">
      <path id="Tracé_7" data-name="Tracé 7" d="M178.777,858.7v8.018a.209.209,0,0,0,.209.208h2.977a.209.209,0,0,0,.209-.208v-8.148h2.159a.209.209,0,0,0,.208-.191l.208-2.455a.209.209,0,0,0-.208-.227h-2.366V853.96a.739.739,0,0,1,.739-.739h1.664a.209.209,0,0,0,.209-.209v-2.455a.209.209,0,0,0-.209-.209h-2.811a2.987,2.987,0,0,0-2.987,2.987V855.7h-1.488a.209.209,0,0,0-.209.209v2.455a.209.209,0,0,0,.209.209h1.488Z" transform="translate(-177.079 -850.348)" fill="#349a9a" fill-rule="evenodd"/>
    </g>
  </g>
</svg>
