<svg id="Groupe_2981" data-name="Groupe 2981" xmlns="http://www.w3.org/2000/svg" width="21.642" height="21.642" viewBox="0 0 21.642 21.642">
  <g id="Groupe_2979" data-name="Groupe 2979" transform="translate(0 0)">
    <path id="Tracé_4486" data-name="Tracé 4486" d="M142.141,483.938a10.821,10.821,0,1,1,10.821-10.821A10.833,10.833,0,0,1,142.141,483.938Z" transform="translate(-131.32 -462.297)" fill="#3c5a99"/>
  </g>
  <g id="Groupe_2980" data-name="Groupe 2980" transform="translate(7.796 4.335)">
    <path id="Tracé_4487" data-name="Tracé 4487" d="M152.312,479.768v6.271a.163.163,0,0,0,.163.163H154.8a.163.163,0,0,0,.163-.163v-6.374h1.689a.163.163,0,0,0,.163-.149l.163-1.921a.164.164,0,0,0-.163-.177h-1.851v-1.362a.578.578,0,0,1,.578-.578h1.3a.163.163,0,0,0,.163-.163v-1.92a.163.163,0,0,0-.163-.163h-2.2a2.336,2.336,0,0,0-2.336,2.336v1.851h-1.164a.163.163,0,0,0-.163.163v1.92a.163.163,0,0,0,.163.163h1.164Z" transform="translate(-150.984 -473.231)" fill="#fff" fill-rule="evenodd"/>
  </g>
</svg>
