<svg id="Groupe_2983" data-name="Groupe 2983" xmlns="http://www.w3.org/2000/svg" width="21.642" height="21.642" viewBox="0 0 21.642 21.642">
  <g id="Groupe_2979" data-name="Groupe 2979" transform="translate(0 0)">
    <path id="Tracé_4486" data-name="Tracé 4486" d="M142.141,483.938a10.821,10.821,0,1,1,10.821-10.821A10.833,10.833,0,0,1,142.141,483.938Z" transform="translate(-131.32 -462.297)" fill="#d42e2e"/>
  </g>
  <g id="Groupe_2984" data-name="Groupe 2984" transform="translate(3.736 6.075)">
    <path id="Tracé_4488" data-name="Tracé 4488" d="M779.682,548.834h-3.894v1.619h2.557a2.781,2.781,0,1,1-.64-3.082l1.309-.972a4.443,4.443,0,1,0,1.133,2.435Z" transform="translate(-771.393 -544.979)" fill="#fff"/>
    <path id="Tracé_4489" data-name="Tracé 4489" d="M812.382,554.879v-1.467H811.24v1.467h-1.467v1.142h1.467v1.467h1.142v-1.467h1.467v-1.142Z" transform="translate(-799.573 -551.17)" fill="#fff"/>
  </g>
</svg>
