<svg xmlns="http://www.w3.org/2000/svg" width="25.807" height="25.807" viewBox="0 0 25.807 25.807">
  <g id="Groupe_14" data-name="Groupe 14" transform="translate(0 0)">
    <path id="Tracé_8" data-name="Tracé 8" d="M240.532,854.659a1.517,1.517,0,1,0,1.518,1.517A1.517,1.517,0,0,0,240.532,854.659Zm-6.745,1.945a6.373,6.373,0,1,0,6.373,6.372A6.381,6.381,0,0,0,233.787,856.6Zm0,10.455a4.082,4.082,0,1,1,4.083-4.083A4.087,4.087,0,0,1,233.787,867.059Zm12.859-9.379a7.773,7.773,0,0,0-7.773-7.773H228.614a7.774,7.774,0,0,0-7.774,7.773v10.261a7.773,7.773,0,0,0,7.774,7.773h10.259a7.773,7.773,0,0,0,7.773-7.773Zm-2.435,10.261a5.338,5.338,0,0,1-5.339,5.338H228.614a5.339,5.339,0,0,1-5.34-5.338V857.68a5.339,5.339,0,0,1,5.34-5.339h10.259a5.339,5.339,0,0,1,5.339,5.339Z" transform="translate(-220.84 -849.907)" fill="#1d3557"/>
  </g>
</svg>
