<svg xmlns="http://www.w3.org/2000/svg" width="18" height="25.6" viewBox="0 0 18 25.6">
  <g id="placeholder" transform="translate(-76)">
    <g id="Groupe_3157" data-name="Groupe 3157" transform="translate(76)">
      <g id="Groupe_3156" data-name="Groupe 3156" transform="translate(0)">
        <path id="Tracé_4973" data-name="Tracé 4973" d="M85,0a9,9,0,0,0-7.657,13.733l7.144,11.513a.75.75,0,0,0,.637.355h.006a.75.75,0,0,0,.637-.365l6.962-11.624A9,9,0,0,0,85,0Zm6.443,12.841-6.33,10.568-6.5-10.467a7.505,7.505,0,1,1,12.825-.1Z" transform="translate(-76)" fill="#fff"/>
      </g>
    </g>
    <g id="Groupe_3159" data-name="Groupe 3159" transform="translate(80.5 4.5)">
      <g id="Groupe_3158" data-name="Groupe 3158" transform="translate(0)">
        <path id="Tracé_4974" data-name="Tracé 4974" d="M170.5,90a4.5,4.5,0,1,0,4.5,4.5A4.505,4.505,0,0,0,170.5,90Zm0,7.51a3.01,3.01,0,1,1,3-3.01A3.012,3.012,0,0,1,170.5,97.51Z" transform="translate(-166 -90)" fill="#fff"/>
      </g>
    </g>
  </g>
</svg>
