<svg xmlns="http://www.w3.org/2000/svg" width="21.955" height="16.5" viewBox="0 0 21.955 16.5">
  <path id="mail" d="M2.492,12.25h16.97a2.5,2.5,0,0,0,2.492-2.492V-1.758A2.5,2.5,0,0,0,19.462-4.25H2.492A2.5,2.5,0,0,0,0-1.758V9.758A2.5,2.5,0,0,0,2.492,12.25Zm0-.742a1.739,1.739,0,0,1-1.06-.358L6.508,5.958a.371.371,0,1,0-.531-.519L.949,10.582a1.742,1.742,0,0,1-.207-.824V-.939L9.37,6.366a2.484,2.484,0,0,0,3.223,0l8.62-7.311v10.7a1.739,1.739,0,0,1-.208.827L15.946,5.438a.371.371,0,0,0-.529.52l5.1,5.192a1.739,1.739,0,0,1-1.057.357Zm0-15.015h16.97A1.752,1.752,0,0,1,21.2-1.914L12.112,5.8a1.744,1.744,0,0,1-2.263,0L.749-1.906a1.752,1.752,0,0,1,1.743-1.6Zm0,0" transform="translate(0 4.25)" fill="#bebfbf"/>
</svg>
