<svg id="message" xmlns="http://www.w3.org/2000/svg" width="21.727" height="19" viewBox="0 0 21.727 19">
  <path id="Tracé_5355" data-name="Tracé 5355" d="M21.429,28.75l-8.91,8.91a2.344,2.344,0,0,1-3.311,0L.3,28.75A2.328,2.328,0,0,0,0,29.892V44.21a2.344,2.344,0,0,0,2.341,2.341H19.387a2.344,2.344,0,0,0,2.341-2.341V29.892a2.328,2.328,0,0,0-.3-1.142Zm0,0" transform="translate(0 -27.551)" fill="#457b9d"/>
  <path id="Tracé_5356" data-name="Tracé 5356" d="M38.67,9.708,47.579.8A2.327,2.327,0,0,0,46.437.5H29.392A2.327,2.327,0,0,0,28.25.8l8.91,8.91a1.069,1.069,0,0,0,1.51,0Zm0,0" transform="translate(-27.051 -0.5)" fill="#457b9d"/>
</svg>
