<svg xmlns="http://www.w3.org/2000/svg" width="18.834" height="23.382" viewBox="0 0 18.834 23.382">
  <g id="Groupe_17" data-name="Groupe 17" transform="translate(0 0)">
    <g id="Groupe_16" data-name="Groupe 16">
      <g id="Groupe_15" data-name="Groupe 15">
        <path id="Tracé_9" data-name="Tracé 9" d="M352.28,869.052c-1.474-.114-2.093-.845-3.249-1.547-.515,2.7-1.123,5.314-2.56,7.094a.728.728,0,0,1-1.3-.408c-.217-4.3,1.27-7.722,2-11.327-1.387-2.335.166-7.036,3.093-5.878,3.6,1.424-3.118,8.683,1.392,9.59,4.709.947,6.632-8.171,3.711-11.137-4.219-4.281-12.282-.1-11.29,6.032.187,1.165,1.165,1.7,1.041,2.851a1.025,1.025,0,0,1-1.467.823c-1.868-.874-2.447-2.786-2.358-5.22.167-4.647,4.176-7.9,8.2-8.353,5.085-.569,9.859,1.868,10.518,6.651.741,5.4-2.3,11.247-7.734,10.827Z" transform="translate(-341.29 -851.493)" fill="#1d3557"/>
      </g>
    </g>
  </g>
</svg>
