<svg xmlns="http://www.w3.org/2000/svg" width="12.625" height="15.673" viewBox="0 0 12.625 15.673">
  <g id="Groupe_17" data-name="Groupe 17" transform="translate(0 0)">
    <g id="Groupe_16" data-name="Groupe 16">
      <g id="Groupe_15" data-name="Groupe 15">
        <path id="Tracé_9" data-name="Tracé 9" d="M348.657,863.263a4.416,4.416,0,0,1-2.177-1.036,10.887,10.887,0,0,1-1.716,4.755.488.488,0,0,1-.869-.273c-.145-2.885.851-5.176,1.341-7.592-.93-1.565.112-4.716,2.073-3.94,2.414.954-2.09,5.82.933,6.428,3.157.634,4.445-5.477,2.487-7.465-2.828-2.87-8.232-.065-7.568,4.043.126.781.781,1.139.7,1.911a.687.687,0,0,1-.983.551c-1.252-.586-1.64-1.868-1.581-3.5a6.092,6.092,0,0,1,5.495-5.6c3.409-.382,6.608,1.252,7.05,4.458.5,3.619-1.539,7.539-5.184,7.257Z" transform="translate(-341.29 -851.493)" fill="#349a9a"/>
      </g>
    </g>
  </g>
</svg>
