<svg xmlns="http://www.w3.org/2000/svg" width="18.183" height="24.5" viewBox="0 0 18.183 24.5">
  <g id="Groupe_2977" data-name="Groupe 2977" transform="translate(-1704.341 -523.958)" opacity="0.71">
    <g id="Groupe_2976" data-name="Groupe 2976" transform="translate(1704.341 523.958)">
      <path id="Tracé_4482" data-name="Tracé 4482" d="M1720.61,533.385v-2.249a7.178,7.178,0,1,0-14.355,0v2.249a2.4,2.4,0,0,0-1.914,2.344v2.717a.479.479,0,0,0,.957,0v-2.717a1.437,1.437,0,0,1,1.436-1.435h13.4a1.437,1.437,0,0,1,1.436,1.435v10.336a1.437,1.437,0,0,1-.958,1.353v-2.884a.478.478,0,1,0-.957,0V547.5h-12.92a1.437,1.437,0,0,1-1.436-1.435v-3.781a.479.479,0,0,0-.957,0v3.781a2.4,2.4,0,0,0,2.393,2.392h13.4a2.4,2.4,0,0,0,2.392-2.392V535.729a2.4,2.4,0,0,0-1.914-2.344Zm-10.814-.048v-2.2a3.636,3.636,0,1,1,7.273,0v2.2Zm8.23,0v-2.2a4.594,4.594,0,1,0-9.187,0v2.2h-1.627v-2.2a6.221,6.221,0,0,1,12.441,0v2.2Zm0,0" transform="translate(-1704.341 -523.958)" fill="#a8a8a8"/>
      <path id="Tracé_4483" data-name="Tracé 4483" d="M1704.82,549.66a.48.48,0,1,0-.338-.14.481.481,0,0,0,.338.14Zm0,0" transform="translate(-1704.341 -532.793)" fill="#a8a8a8"/>
      <path id="Tracé_4484" data-name="Tracé 4484" d="M1717.051,553.206a1.438,1.438,0,0,0,1.436-1.436v-2.541a2.583,2.583,0,1,0-2.871-.008v2.549a1.438,1.438,0,0,0,1.436,1.436Zm-1.621-6.129a1.627,1.627,0,1,1,2.362,1.452.479.479,0,0,0-.262.427v2.815a.478.478,0,0,1-.957,0v-2.821a.479.479,0,0,0-.26-.426,1.621,1.621,0,0,1-.883-1.447Zm0,0" transform="translate(-1707.959 -531.29)" fill="#a8a8a8"/>
      <path id="Tracé_4485" data-name="Tracé 4485" d="M1728.635,553.122a.479.479,0,1,0-.338-.14.481.481,0,0,0,.338.14Zm0,0" transform="translate(-1712.844 -534.029)" fill="#a8a8a8"/>
    </g>
  </g>
</svg>
