<svg xmlns="http://www.w3.org/2000/svg" width="16.124" height="13.281" viewBox="0 0 16.124 13.281">
  <g id="Groupe_11" data-name="Groupe 11" transform="translate(0 0)">
    <g id="Groupe_10" data-name="Groupe 10">
      <g id="Groupe_5" data-name="Groupe 5">
        <path id="Tracé_2" data-name="Tracé 2" d="M132.1,855.36a6.639,6.639,0,0,1-1.629.465c.263-.044.649-.519.8-.711a3,3,0,0,0,.543-.988c.014-.028.025-.063,0-.085a.093.093,0,0,0-.086.007,8.329,8.329,0,0,1-1.935.741.129.129,0,0,1-.133-.036,1.632,1.632,0,0,0-.169-.173,3.41,3.41,0,0,0-.937-.574,3.267,3.267,0,0,0-1.437-.232,3.44,3.44,0,0,0-1.363.385,3.52,3.52,0,0,0-1.1.9,3.38,3.38,0,0,0-.657,1.316,3.568,3.568,0,0,0-.035,1.389c.011.078,0,.088-.067.078a10.332,10.332,0,0,1-6.648-3.384c-.078-.088-.12-.088-.183.007a3.371,3.371,0,0,0,.575,3.983c.13.124.264.247.408.36a3.4,3.4,0,0,1-1.283-.36c-.078-.049-.117-.021-.124.067a2.026,2.026,0,0,0,.021.381,3.409,3.409,0,0,0,2.1,2.717,1.96,1.96,0,0,0,.426.13,3.8,3.8,0,0,1-1.258.039c-.092-.017-.127.028-.092.116a3.54,3.54,0,0,0,2.643,2.214c.12.021.24.021.36.049-.007.011-.014.011-.021.021a4.187,4.187,0,0,1-1.806.957,6.464,6.464,0,0,1-2.741.351c-.148-.022-.179-.02-.219,0s0,.06.042.1c.187.124.377.233.571.339a9.051,9.051,0,0,0,1.833.733,9.762,9.762,0,0,0,9.477-2.216,9.945,9.945,0,0,0,2.623-7.255c0-.1.123-.162.2-.217a6.382,6.382,0,0,0,1.284-1.341.389.389,0,0,0,.08-.257v-.014C132.157,855.317,132.163,855.33,132.1,855.36Z" transform="translate(-116.034 -853.768)" fill="#349a9a"/>
      </g>
      <g id="Groupe_6" data-name="Groupe 6" transform="translate(4.788 13.224)">
        <path id="Tracé_3" data-name="Tracé 3" d="M125.951,881.157Z" transform="translate(-125.951 -881.157)" fill="#349a9a" fill-rule="evenodd"/>
      </g>
      <g id="Groupe_7" data-name="Groupe 7" transform="translate(4.665 13.224)">
        <path id="Tracé_4" data-name="Tracé 4" d="M125.819,881.157c-.021,0-.266,0,0,0Z" transform="translate(-125.696 -881.157)" fill="#349a9a" fill-rule="evenodd"/>
      </g>
      <g id="Groupe_8" data-name="Groupe 8" transform="translate(5.331 13.226)">
        <path id="Tracé_5" data-name="Tracé 5" d="M127.076,881.173c0-.027.285,0,0,0C127.076,881.159,127.111,881.173,127.076,881.173Z" transform="translate(-127.076 -881.161)" fill="#349a9a" fill-rule="evenodd"/>
      </g>
      <g id="Groupe_9" data-name="Groupe 9" transform="translate(10.967 0.02)">
        <path id="Tracé_6" data-name="Tracé 6" d="M138.816,853.809a.059.059,0,0,1-.067,0Z" transform="translate(-138.749 -853.809)" fill="#349a9a" fill-rule="evenodd"/>
      </g>
    </g>
  </g>
</svg>
