<svg xmlns="http://www.w3.org/2000/svg" width="24.055" height="19.813" viewBox="0 0 24.055 19.813">
  <g id="Groupe_11" data-name="Groupe 11" transform="translate(0 0)">
    <g id="Groupe_10" data-name="Groupe 10">
      <g id="Groupe_5" data-name="Groupe 5">
        <path id="Tracé_2" data-name="Tracé 2" d="M140,856.143a9.9,9.9,0,0,1-2.43.695c.392-.066.969-.774,1.2-1.061a4.473,4.473,0,0,0,.81-1.474c.021-.042.037-.094-.005-.127a.138.138,0,0,0-.129.011,12.419,12.419,0,0,1-2.886,1.1.192.192,0,0,1-.2-.053,2.458,2.458,0,0,0-.253-.258,5.093,5.093,0,0,0-1.4-.857,4.875,4.875,0,0,0-2.144-.346,5.132,5.132,0,0,0-2.034.575,5.253,5.253,0,0,0-1.642,1.341,5.045,5.045,0,0,0-.98,1.964,5.324,5.324,0,0,0-.052,2.072c.016.116.006.132-.1.116a15.416,15.416,0,0,1-9.918-5.049c-.116-.132-.179-.132-.274.01a5.029,5.029,0,0,0,.858,5.942c.194.185.394.368.609.537a5.067,5.067,0,0,1-1.914-.537c-.116-.073-.174-.031-.184.1a3.023,3.023,0,0,0,.032.568,5.085,5.085,0,0,0,3.134,4.054,2.909,2.909,0,0,0,.636.194,5.666,5.666,0,0,1-1.877.058c-.137-.026-.189.042-.137.174a5.281,5.281,0,0,0,3.944,3.3c.179.031.358.031.537.073-.011.017-.022.017-.032.032-.443.676-1.979,1.178-2.694,1.427a9.645,9.645,0,0,1-4.09.524c-.22-.032-.267-.03-.326,0s-.007.09.063.147c.279.185.563.347.852.5A13.493,13.493,0,0,0,119.71,873a14.564,14.564,0,0,0,14.139-3.306c2.9-2.879,3.913-6.849,3.913-10.824,0-.156.184-.241.293-.323a9.524,9.524,0,0,0,1.915-2,.581.581,0,0,0,.119-.384v-.021C140.088,856.079,140.1,856.1,140,856.143Z" transform="translate(-116.034 -853.768)" fill="#1d3557"/>
      </g>
      <g id="Groupe_6" data-name="Groupe 6" transform="translate(7.143 19.728)">
        <path id="Tracé_3" data-name="Tracé 3" d="M125.951,881.157Z" transform="translate(-125.951 -881.157)" fill="#1d3557" fill-rule="evenodd"/>
      </g>
      <g id="Groupe_7" data-name="Groupe 7" transform="translate(6.96 19.728)">
        <path id="Tracé_4" data-name="Tracé 4" d="M125.88,881.157c-.032,0-.4,0,0,0Z" transform="translate(-125.696 -881.157)" fill="#1d3557" fill-rule="evenodd"/>
      </g>
      <g id="Groupe_8" data-name="Groupe 8" transform="translate(7.954 19.731)">
        <path id="Tracé_5" data-name="Tracé 5" d="M127.076,881.179c0-.04.426,0,0,0C127.076,881.158,127.128,881.179,127.076,881.179Z" transform="translate(-127.076 -881.161)" fill="#1d3557" fill-rule="evenodd"/>
      </g>
      <g id="Groupe_9" data-name="Groupe 9" transform="translate(16.362 0.03)">
        <path id="Tracé_6" data-name="Tracé 6" d="M138.849,853.809a.088.088,0,0,1-.1,0Z" transform="translate(-138.749 -853.809)" fill="#1d3557" fill-rule="evenodd"/>
      </g>
    </g>
  </g>
</svg>
