<svg xmlns="http://www.w3.org/2000/svg" width="24.426" height="24.422" viewBox="0 0 24.426 24.422">
  <g id="time" transform="translate(0 -0.039)">
    <g id="Groupe_3161" data-name="Groupe 3161" transform="translate(1.702 5.073)">
      <g id="Groupe_3160" data-name="Groupe 3160" transform="translate(0 2.312)">
        <path id="Tracé_4975" data-name="Tracé 4975" d="M57.388,154.016l-1.313.57a10.783,10.783,0,0,1-9.153,15.051q-.369.025-.737.025a10.777,10.777,0,0,1-5.917-1.766,2.383,2.383,0,1,0-.912,1.111,12.205,12.205,0,0,0,6.829,2.086q.416,0,.834-.028a12.215,12.215,0,0,0,10.368-17.048ZM38.056,167.961a.952.952,0,1,1,.952-.952A.952.952,0,0,1,38.056,167.961Z" transform="translate(-35.674 -154.016)" fill="#fff"/>
      </g>
      <path id="Tracé_4976" data-name="Tracé 4976" d="M112.735,105.559a7.177,7.177,0,1,0,7.177,7.177,7.185,7.185,0,0,0-7.177-7.177Zm.716,12.879v-1.227H112.02v1.227a5.758,5.758,0,0,1-4.986-4.986h1.226v-1.431h-1.226a5.758,5.758,0,0,1,4.986-4.986v1.226h1.431v-1.226a5.758,5.758,0,0,1,4.986,4.986H117.21v1.431h1.227A5.758,5.758,0,0,1,113.451,118.438Z" transform="translate(-102.224 -105.559)" fill="#fff"/>
      <path id="Tracé_4977" data-name="Tracé 4977" d="M212.678,197.615l-1.419,1.174.912,1.1,1.938-1.6v-3.824h-1.431Z" transform="translate(-202.882 -190.224)" fill="#fff"/>
    </g>
    <g id="Groupe_3162" data-name="Groupe 3162" transform="translate(0 0.039)">
      <path id="Tracé_4978" data-name="Tracé 4978" d="M22.027,2.437a2.383,2.383,0,0,0-2.985-.312A12.215,12.215,0,0,0,1.087,17.288l1.3-.59A10.783,10.783,0,0,1,18.129,3.236a2.383,2.383,0,1,0,3.9-.8ZM20.342,5.073a.951.951,0,1,1,.952-.952A.952.952,0,0,1,20.342,5.073Z" transform="translate(0 -0.039)" fill="#fff"/>
    </g>
  </g>
</svg>
