<svg xmlns="http://www.w3.org/2000/svg" width="369.279" height="369.279" viewBox="0 0 369.279 369.279">
  <g id="Groupe_3340" data-name="Groupe 3340" transform="translate(-729.397 -959.463)">
    <path id="Tracé_4518" data-name="Tracé 4518" d="M457.527,478.069H315.866a144.763,144.763,0,0,1,0-289.525" transform="translate(598.176 810.795)" fill="none" stroke="#575757" stroke-linecap="round" stroke-linejoin="round" stroke-width="0.989" stroke-dasharray="4"/>
    <g id="Groupe_2698" data-name="Groupe 2698" transform="translate(729.397 959.463)">
      <circle id="Ellipse_162" data-name="Ellipse 162" cx="130.56" cy="130.56" r="130.56" transform="translate(0 184.64) rotate(-45)" fill="#616b81"/>
      <circle id="Ellipse_163" data-name="Ellipse 163" cx="116.549" cy="116.549" r="116.549" transform="translate(51.147 281.319) rotate(-80.913)" fill="#e1e4e8"/>
      <g id="sticker" transform="translate(121.409 121.382)">
        <path id="Tracé_4551" data-name="Tracé 4551" d="M129.346,74.848a7.523,7.523,0,0,1,0-6.23l4.748-10.452a15.5,15.5,0,0,0-8.668-20.921l-10.755-4.039a7.516,7.516,0,0,1-4.406-4.406l-4.039-10.747A15.5,15.5,0,0,0,85.305,9.385l-10.46,4.748a7.554,7.554,0,0,1-6.23,0L58.162,9.385a15.5,15.5,0,0,0-20.921,8.668L33.2,28.808A7.516,7.516,0,0,1,28.8,33.213L18.05,37.252A15.5,15.5,0,0,0,9.382,58.173l4.748,10.46a7.523,7.523,0,0,1,0,6.23L9.382,85.316a15.5,15.5,0,0,0,8.668,20.921L28.8,110.276a7.516,7.516,0,0,1,4.406,4.406l4.039,10.747a15.505,15.505,0,0,0,20.921,8.66l10.46-4.748a7.523,7.523,0,0,1,6.23,0l10.452,4.748a15.5,15.5,0,0,0,20.921-8.668l4.039-10.755a7.516,7.516,0,0,1,4.406-4.406l10.747-4.039A15.5,15.5,0,0,0,134.094,85.3ZM82.589,97.7a5.925,5.925,0,0,1-5.951,5.9H66.862c-2.868,0-5.951-2.127-5.951-6.851V93.88h21.67V97.7Zm4.3-15.718a11.4,11.4,0,0,0-4.143,6.589H60.815a9.969,9.969,0,0,0-3.88-6.318,23.475,23.475,0,0,1-9.082-19.12A24.016,24.016,0,0,1,71.379,39.873a23.576,23.576,0,0,1,17.208,6.907,23.613,23.613,0,0,1-1.7,35.205Z" transform="translate(-7.997 -8)" fill="#616b81"/>
      </g>
    </g>
    <path id="Tracé_4562" data-name="Tracé 4562" d="M14.518,22.422.752,16.068a.532.532,0,0,0-.633.148.527.527,0,0,0-.013.65L4.633,22.9.107,28.938a.529.529,0,0,0,.645.8l13.766-6.354a.529.529,0,0,0,0-.962Z" transform="translate(1053.136 1266.047)" fill="#575757"/>
  </g>
</svg>
