<svg xmlns="http://www.w3.org/2000/svg" width="945.007" height="315.151" viewBox="0 0 945.007 315.151">
  <g id="Groupe_3343" data-name="Groupe 3343" transform="translate(-756.461 -1630.026)">
    <path id="Tracé_4519" data-name="Tracé 4519" d="M315.866,521.668a144.763,144.763,0,1,0,0,289.525H1095.7" transform="translate(598.176 1121.171)" fill="none" stroke="#575757" stroke-linecap="round" stroke-linejoin="round" stroke-width="0.989" stroke-dasharray="4"/>
    <g id="Groupe_2712" data-name="Groupe 2712" transform="translate(756.461 1630.026)">
      <circle id="Ellipse_167" data-name="Ellipse 167" cx="130.56" cy="130.56" r="130.56" transform="translate(0 61.337) rotate(-13.586)" fill="#1d3557"/>
      <circle id="Ellipse_168" data-name="Ellipse 168" cx="116.549" cy="116.549" r="116.549" transform="translate(24.082 254.255) rotate(-80.913)" fill="#e1e4e8"/>
      <g id="leaves" transform="translate(108.344 99.329)">
        <path id="Tracé_4559" data-name="Tracé 4559" d="M10.035,16.019A2.073,2.073,0,0,0,8,18.092V56.35a1.038,1.038,0,0,0,1.036,1.036h9.811a2.074,2.074,0,0,0,1.992-1.5l9.153-32.263a4.136,4.136,0,0,0-2.563-5.014,48.265,48.265,0,0,0-17.394-2.588Z" transform="translate(-8 33.773)" fill="#1d3557"/>
        <path id="Tracé_4560" data-name="Tracé 4560" d="M82.532,32.447c-8.272,0-24.823,10.475-33.095,10.475S31.85,36.58,31.85,36.58,43,38.647,49.431,38.647s8.272-2.2,8.272-5.169c0-7.242-12.3-8.365-18.518-9.309-6.106-3.4-9.277-6.088-19.393-6.944a10.954,10.954,0,0,1-.316,1.762L11.167,48.278c9.414,4.282,25.617,11.065,34.125,11.065C57.7,59.343,90.8,42.792,90.8,38.659s-4.133-6.212-8.266-6.212Z" transform="translate(8.486 40.094)" fill="#1d3557"/>
        <path id="Tracé_4561" data-name="Tracé 4561" d="M92.3,10.94a3.408,3.408,0,0,0-2.755-2.184c-7.323-.968-17.357-2.284-25.387,4.94a14.025,14.025,0,0,0-1.905,18.6,38.031,38.031,0,0,0-7.8,11.586,55.379,55.379,0,0,0-5.238-8.7,17.226,17.226,0,0,0,1.235-6.659,17.882,17.882,0,0,0-5.182-12.542C35.471,6.559,23.19,7.794,13.323,8.787l-.509.05a3.1,3.1,0,0,0-1.843,5.324c4.418,4.245,5.318,8.756,6.274,13.528.85,4.245,1.725,8.638,5.306,12.082a17.7,17.7,0,0,0,12.231,4.9,15.634,15.634,0,0,0,10.655-4.046,40.219,40.219,0,0,1,6.41,14.85,3.582,3.582,0,0,0,.137.36,3.122,3.122,0,0,0,.161.422,2.9,2.9,0,0,0,.41.608,2.674,2.674,0,0,0,.242.285,2.954,2.954,0,0,0,.714.484,2.468,2.468,0,0,0,.217.124,3.1,3.1,0,0,0,1.167.254,3.609,3.609,0,0,0,.571-.05,2.663,2.663,0,0,0,.366-.149,3.92,3.92,0,0,0,.472-.186,2.79,2.79,0,0,0,.571-.385,3.6,3.6,0,0,0,.348-.341,3.107,3.107,0,0,0,.379-.552,2.79,2.79,0,0,0,.211-.484,3.011,3.011,0,0,0,.13-.614,2.7,2.7,0,0,0,.068-.323c.006-.484.254-9.96,9.1-18.735A13.377,13.377,0,0,0,71.426,37.2c.292.019.583.031.875.031a14.79,14.79,0,0,0,9.749-3.612c3.016-2.718,3.829-6.187,4.611-9.538.825-3.543,1.607-6.882,4.952-9.892A3.067,3.067,0,0,0,92.3,10.94Z" transform="translate(2.52 -7.988)" fill="#1d3557" opacity="0.33"/>
      </g>
    </g>
    <g id="right-arrow" transform="translate(1686.644 1925.338)">
      <g id="Groupe_2718" data-name="Groupe 2718" transform="translate(0 0)">
        <path id="Tracé_4562" data-name="Tracé 4562" d="M14.518,22.422.752,16.068a.532.532,0,0,0-.633.148.527.527,0,0,0-.013.65L4.633,22.9.107,28.938a.529.529,0,0,0,.645.8l13.766-6.354a.529.529,0,0,0,0-.962Z" transform="translate(0 -16.02)" fill="#575757"/>
      </g>
    </g>
  </g>
</svg>
