<svg xmlns="http://www.w3.org/2000/svg" width="1097.558" height="369.279" viewBox="0 0 1097.558 369.279">
  <g id="Groupe_3341" data-name="Groupe 3341" transform="translate(-321.505 -632.289)">
    <path id="Tracé_4516" data-name="Tracé 4516" d="M345.688,311.507H486.837a144.763,144.763,0,1,0,0-289.525H-423.42" transform="translate(745.42 650.184)" fill="none" stroke="#575757" stroke-linecap="round" stroke-linejoin="round" stroke-width="0.989" stroke-dasharray="4"/>
    <g id="Groupe_2692" data-name="Groupe 2692" transform="translate(1049.784 632.289)">
      <circle id="Ellipse_160" data-name="Ellipse 160" cx="130.56" cy="130.56" r="130.56" transform="translate(0 184.64) rotate(-45)" fill="#9ba4b4"/>
      <circle id="Ellipse_161" data-name="Ellipse 161" cx="116.549" cy="116.549" r="116.549" transform="translate(51.085 281.234) rotate(-80.877)" fill="#e1e4e8"/>
      <g id="flash" transform="translate(125.66 125.562)">
        <path id="Tracé_4544" data-name="Tracé 4544" d="M24.18,62.213a2.719,2.719,0,0,1-.9-.148,2.636,2.636,0,0,1-1.852-2.829L23.81,41.044H16.773a2.811,2.811,0,0,1-2.459-1.415,2.54,2.54,0,0,1,.178-2.733L31.157,13.971a2.875,2.875,0,0,1,3.311-.955,2.632,2.632,0,0,1,1.726,2.852l-2.3,14.6h6.955a2.794,2.794,0,0,1,2.415,1.341,2.542,2.542,0,0,1-.037,2.667L26.565,60.932a2.816,2.816,0,0,1-2.385,1.281Z" transform="translate(30.424 22.967)" fill="#9ba4b4" opacity="0.51"/>
        <g id="Groupe_2715" data-name="Groupe 2715" transform="translate(0 0)">
          <path id="Tracé_4545" data-name="Tracé 4545" d="M53.117,39.183A4.939,4.939,0,0,1,48.45,32.65a9.752,9.752,0,0,0,.511-3.178c0-6.392-5.911-11.592-13.17-11.592a13.594,13.594,0,0,0-11.385,5.844,4.941,4.941,0,0,1-8.266-5.414A23.252,23.252,0,0,1,35.785,8c12.71,0,23.043,9.629,23.043,21.465a19.767,19.767,0,0,1-1.044,6.37,4.944,4.944,0,0,1-4.666,3.348Z" transform="translate(38.989 -8)" fill="#9ba4b4"/>
          <path id="Tracé_4546" data-name="Tracé 4546" d="M35.788,108.117A23.292,23.292,0,0,1,16.137,97.806,4.941,4.941,0,0,1,24.4,92.392a13.6,13.6,0,0,0,11.384,5.844c7.259,0,13.17-5.2,13.17-11.592a9.882,9.882,0,0,0-.281-2.3,4.943,4.943,0,0,1,3.378-5.881c7.429-2.237,12.414-8.444,12.414-15.443a14.818,14.818,0,0,0-3.311-9.333,4.932,4.932,0,0,1,1.37-7.348,13.622,13.622,0,0,0,7.125-11.651c0-7.7-7.066-13.955-15.755-13.955-2.933,0-5.407,2.067-5.407,4.511s2.481,4.511,5.407,4.511a4.94,4.94,0,1,1,0,9.881c-8.429,0-15.288-6.451-15.288-14.384S45.469,10.871,53.9,10.871c14.132,0,25.628,10.688,25.628,23.828a22.907,22.907,0,0,1-7.851,17.162,24.446,24.446,0,0,1,2.674,11.177c0,10.051-6.089,19.028-15.518,23.406v.215c0,11.829-10.333,21.458-23.043,21.458Z" transform="translate(38.985 10.394)" fill="#9ba4b4"/>
          <path id="Tracé_4547" data-name="Tracé 4547" d="M16.511,39.183a4.944,4.944,0,0,1-4.674-3.341,19.734,19.734,0,0,1-1.044-6.37C10.8,17.629,21.133,8,33.843,8A23.292,23.292,0,0,1,53.494,18.31a4.941,4.941,0,0,1-8.266,5.414,13.6,13.6,0,0,0-11.384-5.844c-7.259,0-13.17,5.2-13.17,11.592a9.784,9.784,0,0,0,.511,3.178,4.931,4.931,0,0,1-3.074,6.266A5.033,5.033,0,0,1,16.511,39.183Z" transform="translate(9.895 -8)" fill="#9ba4b4"/>
          <path id="Tracé_4548" data-name="Tracé 4548" d="M51.738,108.123c-12.71,0-23.043-9.629-23.043-21.465v-.215C19.266,82.073,13.177,73.1,13.177,63.037A24.518,24.518,0,0,1,15.851,51.86,22.907,22.907,0,0,1,8,34.7C8,21.558,19.5,10.87,33.628,10.87c8.429,0,15.288,6.451,15.288,14.384a4.94,4.94,0,1,1-9.881,0c0-2.444-2.481-4.511-5.407-4.511C24.94,20.743,17.873,27,17.873,34.7A13.6,13.6,0,0,0,25,46.349a4.932,4.932,0,0,1,1.37,7.348,14.833,14.833,0,0,0-3.311,9.333c0,7,4.992,13.207,12.414,15.444a4.937,4.937,0,0,1,3.378,5.881,9.882,9.882,0,0,0-.281,2.3c0,6.392,5.911,11.592,13.17,11.592A13.594,13.594,0,0,0,63.123,92.4a4.941,4.941,0,0,1,8.266,5.414,23.275,23.275,0,0,1-19.651,10.31Z" transform="translate(-8 10.388)" fill="#9ba4b4"/>
          <path id="Tracé_4549" data-name="Tracé 4549" d="M20.375,45.732a23.77,23.77,0,0,1-5.392-.615,4.94,4.94,0,0,1,2.37-9.592c1.867.444,5.289.585,6.718-.541.237-.185.963-.756.963-3.029,0-3.711-.8-4.511-4.511-4.511a4.94,4.94,0,1,1,0-9.881c9.14,0,14.384,5.244,14.384,14.384,0,5.866-2.592,9.125-4.763,10.822a15.752,15.752,0,0,1-9.77,2.963Z" transform="translate(12.757 53.27)" fill="#9ba4b4"/>
        </g>
      </g>
    </g>
    <g id="right-arrow" transform="translate(1090.742 968.231) rotate(180)">
      <g id="Groupe_2718" data-name="Groupe 2718" transform="translate(0 0)">
        <path id="Tracé_4562" data-name="Tracé 4562" d="M14.518,6.4.752.048A.532.532,0,0,0,.119.2a.527.527,0,0,0-.013.65L4.633,6.882.106,12.918a.529.529,0,0,0,.645.8L14.517,7.363a.529.529,0,0,0,0-.962Z" fill="#575757"/>
      </g>
    </g>
  </g>
</svg>
