<svg id="global" xmlns="http://www.w3.org/2000/svg" width="24.308" height="24.259" viewBox="0 0 24.308 24.259">
  <path id="Tracé_5339" data-name="Tracé 5339" d="M231.816,349.515c1.859-.264,3.488-2.2,4.514-5.069a22.064,22.064,0,0,0-4.514-.531Zm0,0" transform="translate(-219.228 -325.256)" fill="#457b9d"/>
  <path id="Tracé_5340" data-name="Tracé 5340" d="M279.877,362.014c.11-.032.219-.064.328-.1.092-.029.182-.061.272-.093.107-.037.213-.075.319-.115.09-.034.18-.071.27-.107l.309-.13c.089-.039.178-.08.267-.122s.2-.1.3-.146.174-.09.261-.136.194-.105.29-.16.171-.1.255-.15l.281-.174c.083-.053.167-.107.249-.162s.182-.126.272-.19.161-.116.24-.174.176-.136.263-.206.155-.123.231-.186.17-.147.254-.221.148-.13.22-.2.164-.158.245-.237.141-.137.209-.208l.038-.041a14.6,14.6,0,0,0-2.977-1.145,10.78,10.78,0,0,1-2.776,4.508l.106-.026C279.695,362.07,279.786,362.041,279.877,362.014Zm0,0" transform="translate(-264.319 -338.211)" fill="#457b9d"/>
  <path id="Tracé_5341" data-name="Tracé 5341" d="M341.645,231.684h-5.209a22.53,22.53,0,0,1-.877,6.01,15.109,15.109,0,0,1,3.3,1.312A12.137,12.137,0,0,0,341.645,231.684Zm0,0" transform="translate(-317.337 -219.12)" fill="#457b9d"/>
  <path id="Tracé_5342" data-name="Tracé 5342" d="M231.816,114.738h5.642a21.733,21.733,0,0,0-.855-5.8,22.883,22.883,0,0,1-4.787.571Zm0,0" transform="translate(-219.228 -103.043)" fill="#457b9d"/>
  <path id="Tracé_5343" data-name="Tracé 5343" d="M231.816.316v5.6a22.079,22.079,0,0,0,4.514-.531C235.3,2.521,233.675.581,231.816.316Zm0,0" transform="translate(-219.228 -0.316)" fill="#457b9d"/>
  <path id="Tracé_5344" data-name="Tracé 5344" d="M231.816,236.909a22.9,22.9,0,0,1,4.787.571,21.733,21.733,0,0,0,.855-5.8h-5.642Zm0,0" transform="translate(-219.227 -219.12)" fill="#457b9d"/>
  <path id="Tracé_5345" data-name="Tracé 5345" d="M338.855,80.844a15.109,15.109,0,0,1-3.3,1.312,22.528,22.528,0,0,1,.877,6.01h5.209a12.141,12.141,0,0,0-2.789-7.322Zm0,0" transform="translate(-317.336 -76.471)" fill="#457b9d"/>
  <path id="Tracé_5346" data-name="Tracé 5346" d="M285.214,10.159l-.037-.04c-.069-.071-.14-.139-.21-.208s-.161-.16-.244-.237-.146-.13-.22-.2-.168-.15-.255-.222-.152-.124-.228-.185-.176-.14-.266-.208-.158-.116-.238-.174-.182-.13-.274-.193-.164-.108-.246-.161-.188-.12-.283-.177-.168-.1-.253-.148-.195-.109-.293-.162-.174-.091-.261-.134-.2-.1-.3-.147q-.13-.062-.265-.121c-.1-.046-.207-.087-.311-.13s-.179-.073-.269-.107c-.105-.04-.212-.078-.319-.115-.09-.032-.181-.063-.272-.093-.109-.035-.217-.067-.329-.1-.09-.027-.181-.053-.273-.078l-.106-.026a10.781,10.781,0,0,1,2.776,4.508,14.581,14.581,0,0,0,2.98-1.147Zm0,0" transform="translate(-264.282 -6.445)" fill="#457b9d"/>
  <path id="Tracé_5347" data-name="Tracé 5347" d="M0,88.166H5.209a22.538,22.538,0,0,1,.877-6.01,15.09,15.09,0,0,1-3.3-1.312A12.138,12.138,0,0,0,0,88.166Zm0,0" transform="translate(0 -76.471)" fill="#457b9d"/>
  <path id="Tracé_5348" data-name="Tracé 5348" d="M137.209,349.515v-5.6a22.079,22.079,0,0,0-4.514.531C133.72,347.31,135.35,349.251,137.209,349.515Zm0,0" transform="translate(-125.489 -325.256)" fill="#457b9d"/>
  <path id="Tracé_5349" data-name="Tracé 5349" d="M117.563,231.684h-5.642a21.726,21.726,0,0,0,.855,5.8,22.867,22.867,0,0,1,4.787-.571Zm0,0" transform="translate(-105.843 -219.12)" fill="#457b9d"/>
  <path id="Tracé_5350" data-name="Tracé 5350" d="M137.209.316c-1.859.264-3.489,2.2-4.514,5.069a22.05,22.05,0,0,0,4.514.531Zm0,0" transform="translate(-125.489 -0.316)" fill="#457b9d"/>
  <path id="Tracé_5351" data-name="Tracé 5351" d="M117.563,109.512a22.882,22.882,0,0,1-4.787-.571,21.723,21.723,0,0,0-.855,5.8h5.642Zm0,0" transform="translate(-105.844 -103.043)" fill="#457b9d"/>
  <path id="Tracé_5352" data-name="Tracé 5352" d="M67.943,6.789l-.106.026c-.092.025-.183.052-.274.078-.109.032-.217.064-.327.1-.092.03-.183.062-.274.093-.106.038-.213.075-.318.115s-.18.071-.27.108l-.309.13c-.09.039-.178.08-.267.122s-.2.1-.3.146-.174.09-.261.136-.194.106-.29.16-.172.1-.256.149-.188.116-.281.174-.167.107-.249.163-.182.126-.272.19-.161.116-.24.174-.174.136-.263.206-.155.123-.231.187-.169.146-.253.22-.149.13-.222.2-.163.157-.244.236-.141.137-.21.209l-.038.041a14.585,14.585,0,0,0,2.977,1.146,10.776,10.776,0,0,1,2.775-4.506Zm0,0" transform="translate(-58.814 -6.438)" fill="#457b9d"/>
  <path id="Tracé_5353" data-name="Tracé 5353" d="M62.474,358.956c.081.08.161.16.244.237s.146.13.22.2.168.15.255.222.152.124.228.185.174.14.266.208.158.116.237.174.182.13.275.193.164.108.246.161.188.119.283.177.168.1.253.148.195.109.293.162.174.091.261.134.2.1.3.147q.13.061.265.121c.1.046.207.087.311.13s.179.073.269.107c.105.041.212.078.319.115.09.032.181.063.272.093.109.035.217.067.329.1.09.027.181.053.272.078l.106.026a10.783,10.783,0,0,1-2.776-4.509,14.587,14.587,0,0,0-2.977,1.146l.038.04C62.333,358.819,62.4,358.887,62.474,358.956Zm0,0" transform="translate(-58.851 -338.163)" fill="#457b9d"/>
  <path id="Tracé_5354" data-name="Tracé 5354" d="M2.789,239.005a15.113,15.113,0,0,1,3.3-1.312,22.538,22.538,0,0,1-.877-6.01H0A12.14,12.14,0,0,0,2.789,239.005Zm0,0" transform="translate(0 -219.119)" fill="#457b9d"/>
</svg>
