<svg xmlns="http://www.w3.org/2000/svg" width="24.346" height="17.042" viewBox="0 0 24.346 17.042">
  <g id="Groupe_4" data-name="Groupe 4" transform="translate(0 0)">
    <g id="Groupe_3" data-name="Groupe 3">
      <g id="Groupe_2" data-name="Groupe 2">
        <path id="Tracé_1" data-name="Tracé 1" d="M79.13,862.946a5.3,5.3,0,0,0-5.3-5.3H60.084a5.3,5.3,0,0,0-5.3,5.3v6.442a5.3,5.3,0,0,0,5.3,5.3H73.83a5.3,5.3,0,0,0,5.3-5.3Zm-8.672,3.546L64.975,869.5c-.238.129-.453-.043-.453-.314v-6.172c0-.274.221-.446.46-.31l5.52,3.165A.359.359,0,0,1,70.458,866.492Z" transform="translate(-54.784 -857.646)" fill="#1d3557"/>
      </g>
    </g>
  </g>
</svg>
