<svg xmlns="http://www.w3.org/2000/svg" width="22.179" height="25.807" viewBox="0 0 22.179 25.807">
  <g id="file_1_" data-name="file (1)" transform="translate(-0.5 0)">
    <path id="Tracé_4957" data-name="Tracé 4957" d="M22.452,5.395,17.18.217A.756.756,0,0,0,16.65,0H3.321A2.824,2.824,0,0,0,.5,2.821V22.986a2.824,2.824,0,0,0,2.821,2.821H19.857a2.824,2.824,0,0,0,2.821-2.821V5.934a.756.756,0,0,0-.226-.539ZM17.406,2.558l2.667,2.62H17.646a.241.241,0,0,1-.24-.24Zm2.451,21.736H3.321a1.31,1.31,0,0,1-1.309-1.309V2.821A1.31,1.31,0,0,1,3.321,1.512H15.894V4.938A1.755,1.755,0,0,0,17.646,6.69h3.52v16.3a1.31,1.31,0,0,1-1.309,1.309Zm0,0" fill="#e62825"/>
    <path id="Tracé_4958" data-name="Tracé 4958" d="M109.606,238H98.948a.756.756,0,1,0,0,1.512h10.658a.756.756,0,1,0,0-1.512Zm0,0" transform="translate(-92.768 -226.004)" fill="#1d3557"/>
    <path id="Tracé_4959" data-name="Tracé 4959" d="M98.947,299.512h8.69a.756.756,0,1,0,0-1.512h-8.69a.756.756,0,1,0,0,1.512Zm0,0" transform="translate(-92.767 -282.98)" fill="#1d3557"/>
    <path id="Tracé_4960" data-name="Tracé 4960" d="M108.686,358H98.947a.756.756,0,1,0,0,1.512h9.739a.756.756,0,1,0,0-1.512Zm0,0" transform="translate(-92.767 -339.955)" fill="#1d3557"/>
  </g>
</svg>
