<svg xmlns="http://www.w3.org/2000/svg" width="28.364" height="26.001" viewBox="0 0 28.364 26.001">
  <g id="job-opportunities" transform="translate(0 -1)">
    <path id="Tracé_4964" data-name="Tracé 4964" d="M18.114,20.455H8.068A2.071,2.071,0,0,1,6,18.387V13.068A2.071,2.071,0,0,1,8.068,11H18.114a2.071,2.071,0,0,1,2.068,2.068v5.318A2.071,2.071,0,0,1,18.114,20.455ZM8.068,12.773a.3.3,0,0,0-.3.3v5.318a.3.3,0,0,0,.3.3H18.114a.3.3,0,0,0,.3-.3V13.068a.3.3,0,0,0-.3-.3Z" transform="translate(1.091 1.818)" fill="#1d3557"/>
    <path id="Tracé_4965" data-name="Tracé 4965" d="M15.2,13.227a.887.887,0,0,1-.886-.886V10.568a.3.3,0,0,0-.3-.3H11.068a.3.3,0,0,0-.3.3v1.773a.886.886,0,1,1-1.773,0V10.568A2.071,2.071,0,0,1,11.068,8.5h2.955a2.071,2.071,0,0,1,2.068,2.068v1.773A.887.887,0,0,1,15.2,13.227Z" transform="translate(1.637 1.364)" fill="#1d3557"/>
    <path id="Tracé_4966" data-name="Tracé 4966" d="M13.091,16.728a.874.874,0,0,1-.381-.086l-6.2-2.955a.886.886,0,0,1,.762-1.6l5.823,2.771,5.824-2.773a.886.886,0,0,1,.762,1.6l-6.2,2.955A.867.867,0,0,1,13.091,16.728Z" transform="translate(1.091 2)" fill="#1d3557"/>
    <path id="Tracé_4967" data-name="Tracé 4967" d="M25.114,27H3.25A3.253,3.253,0,0,1,0,23.751V4.25A3.253,3.253,0,0,1,3.25,1H25.114a3.253,3.253,0,0,1,3.25,3.25v19.5A3.253,3.253,0,0,1,25.114,27ZM3.25,2.773A1.479,1.479,0,0,0,1.773,4.25v19.5A1.479,1.479,0,0,0,3.25,25.228H25.114a1.479,1.479,0,0,0,1.477-1.477V4.25a1.479,1.479,0,0,0-1.477-1.477Z" fill="#e62825"/>
    <path id="Tracé_4968" data-name="Tracé 4968" d="M27.478,6.273H.886a.886.886,0,0,1,0-1.773H27.478a.886.886,0,1,1,0,1.773Z" transform="translate(0 0.636)" fill="#e62825"/>
  </g>
</svg>
