<svg xmlns="http://www.w3.org/2000/svg" width="103" height="103.001" viewBox="0 0 103 103.001">
  <g id="Groupe_1" data-name="Groupe 1" transform="translate(-134.235 -22.851)">
    <path id="Tracé_1" data-name="Tracé 1" d="M185.735,22.851a51.5,51.5,0,1,1-51.5,51.5,51.5,51.5,0,0,1,51.5-51.5" transform="translate(0)" fill="#e62825"/>
    <path id="Tracé_2" data-name="Tracé 2" d="M206.562,67.922l-.818,0a26.148,26.148,0,0,0-22.65,39.21l22.4,38.8c.145,0,.289,0,.435,0s.292,0,.436,0l22.405-38.807c9.966-17.263-2.28-39.032-22.212-39.2m-.63,39.923A13.285,13.285,0,1,1,218.87,94.564a13.112,13.112,0,0,1-12.937,13.281" transform="translate(-20.198 -20.087)" fill="#fff"/>
    <path id="Tracé_3" data-name="Tracé 3" d="M158.267,76.41a29.536,29.536,0,0,1,43.533-26l9.391-17a48.943,48.943,0,0,0-60.63,74.754l15.827-11.423a29.422,29.422,0,0,1-8.122-20.337" transform="translate(-2.059 -2.059)" fill="#fff"/>
    <path id="Tracé_4" data-name="Tracé 4" d="M161.708,149.821l-1.55-2.42,1.6-1.027,1.551,2.42,3.286-2.106-1.952-3.044,1.6-1.027,3.081,4.807-11.217,7.189-3.081-4.807,1.6-1.027,1.951,3.044Z" transform="translate(-9.268 -53.38)" fill="#e62825"/>
    <path id="Tracé_5" data-name="Tracé 5" d="M153.113,138.262l9.046-3.364.657,1.766-12.489,4.645-.915-2.461,6.725-4.8-7.475,2.78-.65-1.748,12.488-4.646.75,2.017Z" transform="translate(-6.14 -47.951)" fill="#e62825"/>
    <path id="Tracé_6" data-name="Tracé 6" d="M145.919,128.137l-.936-6.4,1.883-.275.317,2.166,11.3-1.651.3,2.071-11.3,1.651.317,2.166Z" transform="translate(-4.79 -43.949)" fill="#e62825"/>
    <path id="Tracé_7" data-name="Tracé 7" d="M158.327,108.1a4.089,4.089,0,0,1-1.645.1l-2.091-.119c-1.235-.069-1.715.324-1.768,1.274l-.04.723,5.416.3-.118,2.091-13.3-.748.177-3.155c.122-2.166,1.182-3.04,3.234-2.925l1.045.059a2.655,2.655,0,0,1,2.622,1.519c.5-1.02,1.522-1.306,2.91-1.228l2.053.116a3.919,3.919,0,0,0,1.628-.138Zm-11.531,1.64,4.086.229.046-.818c.044-.779-.272-1.273-1.336-1.333l-1.312-.074c-.95-.053-1.386.247-1.428.987Z" transform="translate(-4.699 -36.894)" fill="#e62825"/>
    <path id="Tracé_8" data-name="Tracé 8" d="M152.459,94.138l.746-2.775,1.839.494-.747,2.775,3.768,1.013L159,92.153l1.838.494-1.482,5.514L146.494,94.7l1.482-5.514,1.839.494-.94,3.492Z" transform="translate(-5.464 -29.566)" fill="#e62825"/>
    <path id="Tracé_9" data-name="Tracé 9" d="M157.044,75.826l1.549.774c1.907.954,2.485,2.392,1.55,4.265l-.443.885,4.478,2.238-.936,1.873L151.325,79.9l1.378-2.757c.936-1.874,2.435-2.274,4.341-1.321m-3.081,3.056L158,80.9l.442-.886c.3-.6.187-1.055-.663-1.481l-1.789-.894c-.85-.426-1.285-.238-1.583.357Z" transform="translate(-7.617 -23.389)" fill="#e62825"/>
    <path id="Tracé_10" data-name="Tracé 10" d="M172.531,70.664a4.086,4.086,0,0,1-1.4-.87l-1.638-1.3c-.969-.77-1.586-.727-2.179.018l-.451.565,4.245,3.377-1.3,1.64-10.427-8.3,1.968-2.472c1.351-1.7,2.72-1.8,4.329-.52l.82.652a2.655,2.655,0,0,1,1.262,2.755c.994-.547,2-.186,3.085.678l1.608,1.28a3.908,3.908,0,0,0,1.408.828Zm-10.359-5.322,3.2,2.548.509-.641c.486-.61.514-1.2-.32-1.86l-1.028-.818c-.744-.593-1.274-.6-1.737-.019Z" transform="translate(-11.207 -17.419)" fill="#e62825"/>
    <path id="Tracé_11" data-name="Tracé 11" d="M176.058,55.687l2.21-1.837,1.217,1.463-2.21,1.838,2.494,3,2.781-2.311,1.216,1.464-4.391,3.65-8.516-10.246,4.392-3.649,1.216,1.463-2.781,2.311Z" transform="translate(-16.323 -11.681)" fill="#e62825"/>
    <path id="Tracé_12" data-name="Tracé 12" d="M187.275,45.48l4.462,8.557-1.671.872-6.161-11.814,2.33-1.215,5.594,6.077-3.687-7.072,1.654-.862,6.16,11.814-1.907.994Z" transform="translate(-22.138 -7.654)" fill="#e62825"/>
    <path id="Tracé_13" data-name="Tracé 13" d="M204.248,41.362l2.772-.756.5,1.836-2.772.756,1.027,3.764,3.489-.952.5,1.837-5.509,1.5L200.75,36.5l5.508-1.5.5,1.836-3.488.953Z" transform="translate(-29.646 -5.412)" fill="#e62825"/>
    <path id="Tracé_14" data-name="Tracé 14" d="M218.628,33.568l.625,10.26c.058.951.5,1.267,1.161,1.226s1.062-.408,1-1.358l-.625-10.26,1.976-.12.617,10.127c.129,2.128-.861,3.409-2.913,3.533s-3.189-1.027-3.319-3.153L216.538,33.7Z" transform="translate(-36.682 -4.664)" fill="#e62825"/>
    <path id="Tracé_15" data-name="Tracé 15" d="M234.942,47.45A4.125,4.125,0,0,1,235,45.8l.317-2.07c.187-1.223-.158-1.737-1.1-1.882l-.716-.109-.819,5.361-2.069-.316,2.013-13.169,3.123.477c2.145.328,2.914,1.466,2.6,3.5l-.158,1.035a2.656,2.656,0,0,1-1.763,2.466c.969.59,1.155,1.639.946,3.013l-.311,2.032a3.919,3.919,0,0,0-.019,1.633Zm-.532-11.634-.618,4.045.808.124c.773.118,1.294-.149,1.455-1.2l.2-1.3c.144-.941-.113-1.4-.846-1.515Z" transform="translate(-42.957 -4.8)" fill="#e62825"/>
    <path id="Tracé_16" data-name="Tracé 16" d="M250.839,38.329c1.905.719,2.454,2.229,1.7,4.222l-.147.392-1.852-.7.194-.517c.336-.89.108-1.362-.515-1.6s-1.108-.03-1.443.86c-.968,2.565,2.679,4.489,1.335,8.051-.752,1.994-2.18,2.757-4.1,2.031s-2.49-2.24-1.738-4.235l.29-.765,1.851.7-.335.89c-.336.891-.066,1.359.558,1.594s1.136.062,1.472-.828c.967-2.564-2.68-4.49-1.336-8.051.752-1.994,2.162-2.764,4.067-2.045" transform="translate(-48.901 -6.781)" fill="#e62825"/>
    <path id="Tracé_17" data-name="Tracé 17" d="M264.878,50.187c1.291-1.7,2.922-1.986,4.557-.741s1.792,2.9.5,4.591l-4.2,5.513c-1.291,1.7-2.922,1.986-4.559.74s-1.791-2.895-.5-4.591Zm-2.611,6.887c-.576.757-.462,1.3.068,1.7s1.082.369,1.659-.388l4.358-5.725c.576-.757.461-1.3-.068-1.7s-1.083-.37-1.658.388Z" transform="translate(-55.973 -11.512)" fill="#fff"/>
    <path id="Tracé_18" data-name="Tracé 18" d="M274.822,63.443l1.789,2.026-1.429,1.259L273.394,64.7l-4.124,3.639-1.385-1.57,9.99-8.815,3.664,4.153-1.427,1.259-2.279-2.584Z" transform="translate(-59.568 -15.647)" fill="#fff"/>
    <path id="Tracé_19" data-name="Tracé 19" d="M289.8,74.571l2.83,5.82-1.712.832-.957-1.969-10.27,5-.915-1.883,10.27-4.995-.957-1.968Z" transform="translate(-64.421 -23.052)" fill="#fff"/>
    <path id="Tracé_20" data-name="Tracé 20" d="M296.049,91.994l-9.96,2.535c-.923.234-1.151.726-.987,1.371s.6.967,1.522.733l9.961-2.536.488,1.918-9.832,2.5c-2.065.526-3.509-.206-4.016-2.2s.411-3.325,2.477-3.852l9.831-2.5Z" transform="translate(-66.344 -29.913)" fill="#fff"/>
    <path id="Tracé_21" data-name="Tracé 21" d="M294.934,109.346l-9.646.281-.055-1.883,13.318-.387.076,2.625-7.91,2.381,7.972-.232.054,1.865-13.318.387-.062-2.151Z" transform="translate(-67.3 -37.664)" fill="#fff"/>
    <rect id="Rectangle_1" data-name="Rectangle 1" width="2.093" height="13.323" transform="matrix(0.135, -0.991, 0.991, 0.135, 217.605, 79.782)" fill="#fff"/>
    <path id="Tracé_22" data-name="Tracé 22" d="M295.714,134.266c-.577,1.953-2.042,2.612-4.086,2.009l-.4-.119.561-1.9.529.156c.912.269,1.368.007,1.557-.633s-.051-1.106-.964-1.375c-2.629-.776-4.28,3-7.931,1.924-2.045-.6-2.911-1.97-2.329-3.943s2.052-2.647,4.1-2.044l.785.232-.561,1.9-.913-.269c-.912-.27-1.36.035-1.548.673s.022,1.138.933,1.407c2.63.777,4.281-3,7.932-1.925,2.044.6,2.916,1.953,2.34,3.906" transform="translate(-66.069 -46.923)" fill="#fff"/>
    <rect id="Rectangle_2" data-name="Rectangle 2" width="2.094" height="13.323" transform="translate(214.55 89.01) rotate(-64.848)" fill="#fff"/>
    <path id="Tracé_23" data-name="Tracé 23" d="M271.587,149.158l1.192-1.745,2.2,1.066,1.45-2.122-1.792-1.662,1.085-1.588,9.8,9.277-1.729,2.53Zm6.184-1.561-1.138,1.666,6.133,2.969Z" transform="translate(-61.218 -53.598)" fill="#fff"/>
  </g>
</svg>
