<svg xmlns="http://www.w3.org/2000/svg" width="24.67" height="24.672" viewBox="0 0 24.67 24.672">
  <g id="map_1_" data-name="map (1)" transform="translate(-0.016)">
    <g id="Groupe_2582" data-name="Groupe 2582" transform="translate(0.016 6.168)">
      <g id="Groupe_2581" data-name="Groupe 2581" transform="translate(0)">
        <path id="Tracé_1059" data-name="Tracé 1059" d="M23.915,132.626a.771.771,0,0,0-.771.771v8.73l-6.168,2.467V136.48a.771.771,0,1,0-1.542,0v8.112l-6.168-2.467V129.91l3.573,1.429a.771.771,0,0,0,.572-1.432L8.8,128.06h0l-.012,0a.765.765,0,0,0-.572,0l-.014,0h0L.5,131.139a.771.771,0,0,0-.484.715v13.877a.771.771,0,0,0,1.058.715L8.5,143.479l7.409,2.964h0l.014.006a.765.765,0,0,0,.572,0l.014-.006h0l7.7-3.078a.776.776,0,0,0,.483-.717V133.4A.771.771,0,0,0,23.915,132.626Zm-16.19,9.5-6.168,2.467V132.376l6.168-2.467Z" transform="translate(-0.016 -128)" fill="#e62825"/>
      </g>
    </g>
    <g id="Groupe_2584" data-name="Groupe 2584" transform="translate(16.977 3.084)">
      <g id="Groupe_2583" data-name="Groupe 2583">
        <path id="Tracé_1060" data-name="Tracé 1060" d="M354.329,64a2.313,2.313,0,1,0,2.313,2.313A2.316,2.316,0,0,0,354.329,64Zm0,3.084a.771.771,0,1,1,.771-.771A.771.771,0,0,1,354.329,67.084Z" transform="translate(-352.016 -64)" fill="#1d3557"/>
      </g>
    </g>
    <g id="Groupe_2586" data-name="Groupe 2586" transform="translate(13.893)">
      <g id="Groupe_2585" data-name="Groupe 2585">
        <path id="Tracé_1061" data-name="Tracé 1061" d="M293.413,0a5.4,5.4,0,0,0-5.4,5.4c0,2.769,4.33,7.674,4.823,8.224a.771.771,0,0,0,1.147,0c.493-.55,4.823-5.455,4.823-8.224A5.4,5.4,0,0,0,293.413,0Zm0,11.93c-1.684-2-3.855-5.062-3.855-6.533a3.855,3.855,0,0,1,7.709,0C297.267,6.866,295.1,9.933,293.413,11.93Z" transform="translate(-288.016)" fill="#1d3557"/>
      </g>
    </g>
  </g>
</svg>
