<svg xmlns="http://www.w3.org/2000/svg" width="487.576" height="721" viewBox="0 0 487.576 721">
  <g id="Groupe_2" data-name="Groupe 2" transform="translate(-14.501 -790.068)">
    <path id="Tracé_24" data-name="Tracé 24" d="M429.157,67.945c-2.515-.015-5.041-.026-7.561-.026-186,.272-302.324,201.273-209.32,362.349l207.041,358.6c1.337.01,2.674.046,4.021.046s2.694-.036,4.031-.046L634.425,430.248c92.1-159.529-21.069-360.71-205.268-362.3m-5.819,368.947c-66.024,0-119.549-54.944-119.549-122.735s53.525-122.73,119.549-122.73S542.9,246.371,542.9,314.157s-53.53,122.735-119.559,122.735" transform="translate(-165.051 722.149)" fill="#e62825"/>
  </g>
</svg>
