<svg xmlns="http://www.w3.org/2000/svg" width="49.667" height="37.015" viewBox="0 0 49.667 37.015">
  <g id="search_1_" data-name="search (1)" transform="translate(0 -65.206)">
    <path id="Tracé_1018" data-name="Tracé 1018" d="M165.007,94.437,153.9,83.327a12.89,12.89,0,1,0-6.39,6.5l11.051,11.053a4.559,4.559,0,1,0,6.447-6.448Zm-29.969-9.26a9.991,9.991,0,1,1,14.127,0A10.005,10.005,0,0,1,135.038,85.177Zm27.911,13.65a1.647,1.647,0,0,1-2.331,0L150.06,88.267a13,13,0,0,0,2.313-2.351l10.576,10.578A1.652,1.652,0,0,1,162.949,98.827Z" transform="translate(-116.674)" fill="#e62825"/>
    <path id="Tracé_1019" data-name="Tracé 1019" d="M1.455,217.857h6.2a1.455,1.455,0,1,0,0-2.91h-6.2a1.455,1.455,0,1,0,0,2.91Z" transform="translate(0 -135.215)" fill="#1d3557"/>
    <path id="Tracé_1020" data-name="Tracé 1020" d="M1.455,281.857H9.987a1.455,1.455,0,1,0,0-2.91H1.455a1.455,1.455,0,1,0,0,2.91Z" transform="translate(0 -193.006)" fill="#1d3557"/>
    <path id="Tracé_1021" data-name="Tracé 1021" d="M1.455,345.857H16.192a1.455,1.455,0,1,0,0-2.91H1.455a1.455,1.455,0,1,0,0,2.91Z" transform="translate(0 -250.798)" fill="#1d3557"/>
    <path id="Tracé_1022" data-name="Tracé 1022" d="M33.256,406.947H1.455a1.455,1.455,0,1,0,0,2.91h31.8a1.455,1.455,0,1,0,0-2.91Z" transform="translate(0 -308.589)" fill="#1d3557"/>
  </g>
</svg>
