<svg xmlns="http://www.w3.org/2000/svg" xmlns:xlink="http://www.w3.org/1999/xlink" width="1529" height="1557" viewBox="0 0 1529 1557">
  <defs>
    <filter id="Rectangle_294" x="0" y="0" width="1529" height="1557" filterUnits="userSpaceOnUse">
      <feOffset dy="40" input="SourceAlpha"/>
      <feGaussianBlur stdDeviation="25" result="blur"/>
      <feFlood flood-opacity="0.078"/>
      <feComposite operator="in" in2="blur"/>
      <feComposite in="SourceGraphic"/>
    </filter>
  </defs>
  <g id="Group_2719" data-name="Group 2719" transform="translate(-250 -568)">
    <g id="Group_49" data-name="Group 49" transform="translate(670.679 1781.977)">
      <g id="Group_47" data-name="Group 47" transform="translate(978.409 72.935)">
        <g id="Group_31" data-name="Group 31" transform="translate(98.196)">
          <g id="Group_28" data-name="Group 28">
            <g id="Group_27" data-name="Group 27">
              <path id="Path_1009" data-name="Path 1009" d="M1020.314,225.894a6.015,6.015,0,0,1,6.011,6.016h0a6,6,0,0,1-6.011,6.016h0a6.014,6.014,0,0,1-6.014-6.016h0A6.032,6.032,0,0,1,1020.314,225.894Zm0-30.58a6.009,6.009,0,0,1,6.011,6.005h0a6,6,0,0,1-6.011,6.019h0a6.013,6.013,0,0,1-6.014-6.019h0A6.026,6.026,0,0,1,1020.314,195.314Zm0-30.582a5.985,5.985,0,0,1,6.011,6.005h0a6.008,6.008,0,0,1-6.011,6.005h0a6.024,6.024,0,0,1-6.014-6.005h0A6,6,0,0,1,1020.314,164.732Zm0-30.6a6,6,0,0,1,6.011,6.014h0a6.013,6.013,0,0,1-6.011,6.008h0a6.03,6.03,0,0,1-6.014-6.008h0A6.012,6.012,0,0,1,1020.314,134.135Zm0-30.588a5.988,5.988,0,0,1,6.011,5.981h0a6.009,6.009,0,0,1-6.011,6.036h0a6.023,6.023,0,0,1-6.014-6.036h0A6,6,0,0,1,1020.314,103.548Zm0-30.613a6.01,6.01,0,0,1,6.011,6.011h0a6,6,0,0,1-6.011,6h0a6.009,6.009,0,0,1-6.014-6h0A6.025,6.025,0,0,1,1020.314,72.935Z" transform="translate(-1014.3 -72.935)" fill="#457b9d"/>
            </g>
          </g>
          <g id="Group_30" data-name="Group 30" transform="translate(0 183.547)">
            <g id="Group_29" data-name="Group 29">
              <path id="Path_1010" data-name="Path 1010" d="M1014.3,146.036a5.916,5.916,0,0,1,1.784-4.235,5.922,5.922,0,0,1,8.462,0,6.009,6.009,0,0,1-4.232,10.279,6.057,6.057,0,0,1-4.23-1.767A5.945,5.945,0,0,1,1014.3,146.036Z" transform="translate(-1014.3 -140.022)" fill="#457b9d"/>
            </g>
          </g>
        </g>
        <g id="Group_36" data-name="Group 36" transform="translate(65.113)">
          <g id="Group_33" data-name="Group 33">
            <g id="Group_32" data-name="Group 32">
              <path id="Path_1011" data-name="Path 1011" d="M1008.224,225.894a6.009,6.009,0,0,1,6.005,6.016h0a5.991,5.991,0,0,1-6.005,6.016h0a6.019,6.019,0,0,1-6.014-6.016h0A6.037,6.037,0,0,1,1008.224,225.894Zm0-30.577a6,6,0,0,1,6.005,6h0a6.009,6.009,0,0,1-6.005,6.019h0a6.037,6.037,0,0,1-6.014-6.019h0A6.029,6.029,0,0,1,1008.224,195.317Zm0-30.585a5.979,5.979,0,0,1,6.005,6.005h0a6,6,0,0,1-6.005,6.005h0a6.029,6.029,0,0,1-6.014-6.005h0A6.006,6.006,0,0,1,1008.224,164.732Zm0-30.6a5.989,5.989,0,0,1,6.005,6.014h0a6.006,6.006,0,0,1-6.005,6.011h0a6.034,6.034,0,0,1-6.014-6.011h0A6.017,6.017,0,0,1,1008.224,134.135Zm0-30.588a5.984,5.984,0,0,1,6.005,5.981h0a5.975,5.975,0,0,1-6.005,6.005h0a6,6,0,0,1-6.016-6.005h0A6.01,6.01,0,0,1,1008.224,103.548Zm0-30.613a6,6,0,0,1,6.005,6.011h0a5.989,5.989,0,0,1-6.005,6.005h0a6.016,6.016,0,0,1-6.016-6.005h0A6.029,6.029,0,0,1,1008.224,72.935Z" transform="translate(-1002.208 -72.935)" fill="#457b9d"/>
            </g>
          </g>
          <g id="Group_35" data-name="Group 35" transform="translate(0.003 183.547)">
            <g id="Group_34" data-name="Group 34">
              <path id="Path_1012" data-name="Path 1012" d="M1002.209,146.041a6.049,6.049,0,0,1,6.014-6.019,6.185,6.185,0,0,1,4.265,1.778,6.281,6.281,0,0,1,0,8.517,6.024,6.024,0,0,1-8.514,0A6.141,6.141,0,0,1,1002.209,146.041Z" transform="translate(-1002.209 -140.022)" fill="#457b9d"/>
            </g>
          </g>
        </g>
        <g id="Group_41" data-name="Group 41" transform="translate(33.083)">
          <g id="Group_38" data-name="Group 38">
            <g id="Group_37" data-name="Group 37">
              <path id="Path_1013" data-name="Path 1013" d="M996.512,225.894a6.039,6.039,0,0,1,6.016,6.016h0a6.021,6.021,0,0,1-6.016,6.016h0a6,6,0,0,1-6.011-6.016h0A6.013,6.013,0,0,1,996.512,225.894Zm0-30.577a6.031,6.031,0,0,1,6.016,6h0a6.04,6.04,0,0,1-6.016,6.019h0a6.014,6.014,0,0,1-6.011-6.019h0A6.005,6.005,0,0,1,996.512,195.317Zm0-30.585a6.008,6.008,0,0,1,6.016,6.005h0a6.031,6.031,0,0,1-6.016,6.005h0a6.006,6.006,0,0,1-6.011-6.005h0A5.983,5.983,0,0,1,996.512,164.732Zm0-30.6a6.019,6.019,0,0,1,6.016,6.014h0a6.036,6.036,0,0,1-6.016,6.011h0a6.01,6.01,0,0,1-6.011-6.011h0A5.994,5.994,0,0,1,996.512,134.135Zm0-30.613a6.03,6.03,0,0,1,6.011,6.005h0a6,6,0,0,1-6.011,6.005h0a5.98,5.98,0,0,1-6.011-6.005h0A6.009,6.009,0,0,1,996.512,103.523Zm0-30.588a6.028,6.028,0,0,1,6.011,6.011h0a6.014,6.014,0,0,1-6.011,6.005h0a5.994,5.994,0,0,1-6.011-6.005h0A6.007,6.007,0,0,1,996.512,72.935Z" transform="translate(-990.501 -72.935)" fill="#457b9d"/>
            </g>
          </g>
          <g id="Group_40" data-name="Group 40" transform="translate(0 183.547)">
            <g id="Group_39" data-name="Group 39">
              <path id="Path_1014" data-name="Path 1014" d="M990.5,146.041a6.074,6.074,0,0,1,1.743-4.241,6.18,6.18,0,0,1,4.268-1.778,6.113,6.113,0,0,1,4.235,1.778,6.269,6.269,0,0,1,0,8.517,5.995,5.995,0,0,1-10.246-4.276Z" transform="translate(-990.501 -140.022)" fill="#457b9d"/>
            </g>
          </g>
        </g>
        <g id="Group_46" data-name="Group 46">
          <g id="Group_43" data-name="Group 43">
            <g id="Group_42" data-name="Group 42">
              <path id="Path_1015" data-name="Path 1015" d="M984.415,225.894a6,6,0,0,1,6.008,6.016h0a5.987,5.987,0,0,1-6.008,6.016h0a6.016,6.016,0,0,1-6.005-6.016h0A6.033,6.033,0,0,1,984.415,225.894Zm0-30.577a5.98,5.98,0,0,1,6.008,6h0a6,6,0,0,1-6.008,6.019h0a6.034,6.034,0,0,1-6.005-6.019h0A6.009,6.009,0,0,1,984.415,195.317Zm0-30.585a5.974,5.974,0,0,1,6.008,6.005h0a6,6,0,0,1-6.008,6.005h0a6.026,6.026,0,0,1-6.005-6.005h0A6,6,0,0,1,984.415,164.732Zm0-30.6a5.984,5.984,0,0,1,6.008,6.014h0a6,6,0,0,1-6.008,6.011h0a6.03,6.03,0,0,1-6.005-6.011h0A6.013,6.013,0,0,1,984.415,134.135Zm0-30.613a6,6,0,0,1,6.008,6.005h0a6,6,0,0,1-6.008,6.036h0a6.025,6.025,0,0,1-6.005-6.036h0A6.029,6.029,0,0,1,984.415,103.523Zm0-30.588a6,6,0,0,1,6.008,6.011h0a5.984,5.984,0,0,1-6.008,6.005h0a6.013,6.013,0,0,1-6.005-6.005h0A6.027,6.027,0,0,1,984.415,72.935Z" transform="translate(-978.409 -72.935)" fill="#457b9d"/>
            </g>
          </g>
          <g id="Group_45" data-name="Group 45" transform="translate(0 183.547)">
            <g id="Group_44" data-name="Group 44">
              <path id="Path_1016" data-name="Path 1016" d="M978.409,146.041a6.057,6.057,0,0,1,1.737-4.241,6.262,6.262,0,0,1,4.268-1.778,6.047,6.047,0,0,1,4.241,1.778,6,6,0,0,1-4.241,10.279,6.12,6.12,0,0,1-4.23-1.762A6.02,6.02,0,0,1,978.409,146.041Z" transform="translate(-978.409 -140.022)" fill="#457b9d"/>
            </g>
          </g>
        </g>
      </g>
    </g>
    <g id="Group_2717" data-name="Group 2717" transform="translate(325.254 603)">
      <g transform="matrix(1, 0, 0, 1, -75.25, -35)" filter="url(#Rectangle_294)">
        <rect id="Rectangle_294-2" data-name="Rectangle 294" width="1379" height="1407" rx="24" transform="translate(75 35)" fill="#fff"/>
      </g>
      <rect id="Rectangle_295" data-name="Rectangle 295" width="1379" height="375" transform="translate(-0.254)" fill="#e4e4e4" opacity="0.11"/>
      <rect id="Rectangle_296" data-name="Rectangle 296" width="1379" height="321" transform="translate(-0.254 375)" fill="#e4e4e4" opacity="0.21"/>
      <rect id="Rectangle_298" data-name="Rectangle 298" width="1379" height="393" rx="22" transform="translate(-0.254 1014)" fill="#f4f4f4"/>
      <rect id="Rectangle_297" data-name="Rectangle 297" width="1379" height="332" transform="translate(-0.254 695)" fill="#f7f7f7"/>
    </g>
    <path id="Path_4516" data-name="Path 4516" d="M345.688,311.507H486.837a144.763,144.763,0,1,0,0-289.525H-423.42" transform="translate(745.42 650.184)" fill="none" stroke="#575757" stroke-linecap="round" stroke-linejoin="round" stroke-width="0.989" stroke-dasharray="4"/>
    <path id="Path_4517" data-name="Path 4517" d="M285.584,644.631H426.733a144.763,144.763,0,1,0,0-289.525" transform="translate(805.524 971.407)" fill="none" stroke="#575757" stroke-linecap="round" stroke-linejoin="round" stroke-width="0.989" stroke-dasharray="4"/>
    <path id="Path_4518" data-name="Path 4518" d="M457.527,478.069H315.866a144.763,144.763,0,0,1,0-289.525" transform="translate(598.176 810.795)" fill="none" stroke="#575757" stroke-linecap="round" stroke-linejoin="round" stroke-width="0.989" stroke-dasharray="4"/>
    <path id="Path_4519" data-name="Path 4519" d="M315.866,521.668a144.763,144.763,0,1,0,0,289.525H1095.7" transform="translate(598.176 1121.171)" fill="none" stroke="#575757" stroke-linecap="round" stroke-linejoin="round" stroke-width="0.989" stroke-dasharray="4"/>
    <g id="Group_2692" data-name="Group 2692" transform="translate(1049.784 632.289)">
      <circle id="Ellipse_160" data-name="Ellipse 160" cx="130.56" cy="130.56" r="130.56" transform="translate(0 184.64) rotate(-45)" fill="#9ba4b4"/>
      <circle id="Ellipse_161" data-name="Ellipse 161" cx="116.549" cy="116.549" r="116.549" transform="translate(51.085 281.234) rotate(-80.877)" fill="#e1e4e8"/>
      <g id="flash" transform="translate(125.66 125.562)">
        <path id="Path_4544" data-name="Path 4544" d="M24.18,62.213a2.719,2.719,0,0,1-.9-.148,2.636,2.636,0,0,1-1.852-2.829L23.81,41.044H16.773a2.811,2.811,0,0,1-2.459-1.415,2.54,2.54,0,0,1,.178-2.733L31.157,13.971a2.875,2.875,0,0,1,3.311-.955,2.632,2.632,0,0,1,1.726,2.852l-2.3,14.6h6.955a2.794,2.794,0,0,1,2.415,1.341,2.542,2.542,0,0,1-.037,2.667L26.565,60.932a2.816,2.816,0,0,1-2.385,1.281Z" transform="translate(30.424 22.967)" fill="#9ba4b4" opacity="0.51"/>
        <g id="Group_2715" data-name="Group 2715" transform="translate(0 0)">
          <path id="Path_4545" data-name="Path 4545" d="M53.117,39.183A4.939,4.939,0,0,1,48.45,32.65a9.752,9.752,0,0,0,.511-3.178c0-6.392-5.911-11.592-13.17-11.592a13.594,13.594,0,0,0-11.385,5.844,4.941,4.941,0,0,1-8.266-5.414A23.252,23.252,0,0,1,35.785,8c12.71,0,23.043,9.629,23.043,21.465a19.767,19.767,0,0,1-1.044,6.37,4.944,4.944,0,0,1-4.666,3.348Z" transform="translate(38.989 -8)" fill="#9ba4b4"/>
          <path id="Path_4546" data-name="Path 4546" d="M35.788,108.117A23.292,23.292,0,0,1,16.137,97.806,4.941,4.941,0,0,1,24.4,92.392a13.6,13.6,0,0,0,11.384,5.844c7.259,0,13.17-5.2,13.17-11.592a9.882,9.882,0,0,0-.281-2.3,4.943,4.943,0,0,1,3.378-5.881c7.429-2.237,12.414-8.444,12.414-15.443a14.818,14.818,0,0,0-3.311-9.333,4.932,4.932,0,0,1,1.37-7.348,13.622,13.622,0,0,0,7.125-11.651c0-7.7-7.066-13.955-15.755-13.955-2.933,0-5.407,2.067-5.407,4.511s2.481,4.511,5.407,4.511a4.94,4.94,0,1,1,0,9.881c-8.429,0-15.288-6.451-15.288-14.384S45.469,10.871,53.9,10.871c14.132,0,25.628,10.688,25.628,23.828a22.907,22.907,0,0,1-7.851,17.162,24.446,24.446,0,0,1,2.674,11.177c0,10.051-6.089,19.028-15.518,23.406v.215c0,11.829-10.333,21.458-23.043,21.458Z" transform="translate(38.985 10.394)" fill="#9ba4b4"/>
          <path id="Path_4547" data-name="Path 4547" d="M16.511,39.183a4.944,4.944,0,0,1-4.674-3.341,19.734,19.734,0,0,1-1.044-6.37C10.8,17.629,21.133,8,33.843,8A23.292,23.292,0,0,1,53.494,18.31a4.941,4.941,0,0,1-8.266,5.414,13.6,13.6,0,0,0-11.384-5.844c-7.259,0-13.17,5.2-13.17,11.592a9.784,9.784,0,0,0,.511,3.178,4.931,4.931,0,0,1-3.074,6.266A5.033,5.033,0,0,1,16.511,39.183Z" transform="translate(9.895 -8)" fill="#9ba4b4"/>
          <path id="Path_4548" data-name="Path 4548" d="M51.738,108.123c-12.71,0-23.043-9.629-23.043-21.465v-.215C19.266,82.073,13.177,73.1,13.177,63.037A24.518,24.518,0,0,1,15.851,51.86,22.907,22.907,0,0,1,8,34.7C8,21.558,19.5,10.87,33.628,10.87c8.429,0,15.288,6.451,15.288,14.384a4.94,4.94,0,1,1-9.881,0c0-2.444-2.481-4.511-5.407-4.511C24.94,20.743,17.873,27,17.873,34.7A13.6,13.6,0,0,0,25,46.349a4.932,4.932,0,0,1,1.37,7.348,14.833,14.833,0,0,0-3.311,9.333c0,7,4.992,13.207,12.414,15.444a4.937,4.937,0,0,1,3.378,5.881,9.882,9.882,0,0,0-.281,2.3c0,6.392,5.911,11.592,13.17,11.592A13.594,13.594,0,0,0,63.123,92.4a4.941,4.941,0,0,1,8.266,5.414,23.275,23.275,0,0,1-19.651,10.31Z" transform="translate(-8 10.388)" fill="#9ba4b4"/>
          <path id="Path_4549" data-name="Path 4549" d="M20.375,45.732a23.77,23.77,0,0,1-5.392-.615,4.94,4.94,0,0,1,2.37-9.592c1.867.444,5.289.585,6.718-.541.237-.185.963-.756.963-3.029,0-3.711-.8-4.511-4.511-4.511a4.94,4.94,0,1,1,0-9.881c9.14,0,14.384,5.244,14.384,14.384,0,5.866-2.592,9.125-4.763,10.822a15.752,15.752,0,0,1-9.77,2.963Z" transform="translate(12.757 53.27)" fill="#9ba4b4"/>
        </g>
      </g>
    </g>
    <g id="Group_2698" data-name="Group 2698" transform="translate(729.397 959.463)">
      <circle id="Ellipse_162" data-name="Ellipse 162" cx="130.56" cy="130.56" r="130.56" transform="translate(0 184.64) rotate(-45)" fill="#616b81"/>
      <circle id="Ellipse_163" data-name="Ellipse 163" cx="116.549" cy="116.549" r="116.549" transform="translate(51.147 281.319) rotate(-80.913)" fill="#e1e4e8"/>
      <g id="sticker" transform="translate(121.409 121.382)">
        <path id="Path_4551" data-name="Path 4551" d="M129.346,74.848a7.523,7.523,0,0,1,0-6.23l4.748-10.452a15.5,15.5,0,0,0-8.668-20.921l-10.755-4.039a7.516,7.516,0,0,1-4.406-4.406l-4.039-10.747A15.5,15.5,0,0,0,85.305,9.385l-10.46,4.748a7.554,7.554,0,0,1-6.23,0L58.162,9.385a15.5,15.5,0,0,0-20.921,8.668L33.2,28.808A7.516,7.516,0,0,1,28.8,33.213L18.05,37.252A15.5,15.5,0,0,0,9.382,58.173l4.748,10.46a7.523,7.523,0,0,1,0,6.23L9.382,85.316a15.5,15.5,0,0,0,8.668,20.921L28.8,110.276a7.516,7.516,0,0,1,4.406,4.406l4.039,10.747a15.505,15.505,0,0,0,20.921,8.66l10.46-4.748a7.523,7.523,0,0,1,6.23,0l10.452,4.748a15.5,15.5,0,0,0,20.921-8.668l4.039-10.755a7.516,7.516,0,0,1,4.406-4.406l10.747-4.039A15.5,15.5,0,0,0,134.094,85.3ZM82.589,97.7a5.925,5.925,0,0,1-5.951,5.9H66.862c-2.868,0-5.951-2.127-5.951-6.851V93.88h21.67V97.7Zm4.3-15.718a11.4,11.4,0,0,0-4.143,6.589H60.815a9.969,9.969,0,0,0-3.88-6.318,23.475,23.475,0,0,1-9.082-19.12A24.016,24.016,0,0,1,71.379,39.873a23.576,23.576,0,0,1,17.208,6.907,23.613,23.613,0,0,1-1.7,35.205Z" transform="translate(-7.997 -8)" fill="#616b81"/>
      </g>
    </g>
    <g id="Group_2704" data-name="Group 2704" transform="translate(1049.784 1286.636)">
      <circle id="Ellipse_165" data-name="Ellipse 165" cx="130.56" cy="130.56" r="130.56" transform="translate(0 184.639) rotate(-45)" fill="#384663"/>
      <circle id="Ellipse_166" data-name="Ellipse 166" cx="116.549" cy="116.549" r="116.549" transform="translate(54.86 286.25) rotate(-83.059)" fill="#e1e4e8"/>
      <g id="rocket_2_" data-name="rocket (2)" transform="translate(124.847 127.66)">
        <g id="Group_2716" data-name="Group 2716" transform="translate(0 24.404)">
          <path id="Path_4553" data-name="Path 4553" d="M123.128,18.521H13.008a5.008,5.008,0,1,0,0,10.016H123.135a5.008,5.008,0,1,0-.008-10.016Z" transform="translate(-8 41.547)" fill="#14274e"/>
          <path id="Path_4554" data-name="Path 4554" d="M33.766,20.53H19.349V70.589H9.333V20.53A10.04,10.04,0,0,1,19.342,10.521H36.116a12.225,12.225,0,0,0-2.35,10.009Z" transform="translate(0.676 -10.521)" fill="#14274e"/>
          <path id="Path_4555" data-name="Path 4555" d="M31.343,12.861v42.5H21.334V36.49a56.049,56.049,0,0,0,4.407-17.322,62.637,62.637,0,0,0,5.6-6.307Z" transform="translate(78.784 4.709)" fill="#14274e"/>
        </g>
        <path id="Path_4556" data-name="Path 4556" d="M84.288,8.008a2.573,2.573,0,0,0-1.817-.736c-14.154.263-30.657,8.522-41.147,20.521-11.338.405-20.8,3.822-26.708,9.724a2.5,2.5,0,0,0-.638,2.448A2.526,2.526,0,0,0,15.8,41.721l10.662,2.553-.068.075a2.513,2.513,0,0,0,.09,3.446L44.493,65.8a2.5,2.5,0,0,0,1.772.736,2.458,2.458,0,0,0,1.674-.646l.075-.068,2.553,10.662a2.488,2.488,0,0,0,1.757,1.825,2.625,2.625,0,0,0,.676.1,2.5,2.5,0,0,0,1.772-.736c5.9-5.9,9.318-15.37,9.724-26.708,12.014-10.519,20.258-27,20.521-41.139a2.486,2.486,0,0,0-.728-1.817Z" transform="translate(30.292 -7.271)" fill="#14274e" opacity="0.31"/>
        <path id="Path_4557" data-name="Path 4557" d="M21.946,16.807c-3.364,3.364-7.659,17.307-8.485,20.07a2.509,2.509,0,0,0,2.4,3.221,2.657,2.657,0,0,0,.721-.105c2.763-.826,16.714-5.121,20.07-8.485a10.4,10.4,0,0,0-14.709-14.7Z" transform="translate(26.866 34.988)" fill="#14274e" opacity="0.31"/>
      </g>
    </g>
    <g id="Group_2712" data-name="Group 2712" transform="translate(756.462 1630.026)">
      <circle id="Ellipse_167" data-name="Ellipse 167" cx="130.56" cy="130.56" r="130.56" transform="translate(0 61.337) rotate(-13.586)" fill="#1d3557"/>
      <circle id="Ellipse_168" data-name="Ellipse 168" cx="116.549" cy="116.549" r="116.549" transform="translate(24.082 254.255) rotate(-80.913)" fill="#e1e4e8"/>
      <g id="leaves" transform="translate(108.344 99.329)">
        <path id="Path_4559" data-name="Path 4559" d="M10.035,16.019A2.073,2.073,0,0,0,8,18.092V56.35a1.038,1.038,0,0,0,1.036,1.036h9.811a2.074,2.074,0,0,0,1.992-1.5l9.153-32.263a4.136,4.136,0,0,0-2.563-5.014,48.265,48.265,0,0,0-17.394-2.588Z" transform="translate(-8 33.773)" fill="#1d3557"/>
        <path id="Path_4560" data-name="Path 4560" d="M82.532,32.447c-8.272,0-24.823,10.475-33.095,10.475S31.85,36.58,31.85,36.58,43,38.647,49.431,38.647s8.272-2.2,8.272-5.169c0-7.242-12.3-8.365-18.518-9.309-6.106-3.4-9.277-6.088-19.393-6.944a10.954,10.954,0,0,1-.316,1.762L11.167,48.278c9.414,4.282,25.617,11.065,34.125,11.065C57.7,59.343,90.8,42.792,90.8,38.659s-4.133-6.212-8.266-6.212Z" transform="translate(8.486 40.094)" fill="#1d3557"/>
        <path id="Path_4561" data-name="Path 4561" d="M92.3,10.94a3.408,3.408,0,0,0-2.755-2.184c-7.323-.968-17.357-2.284-25.387,4.94a14.025,14.025,0,0,0-1.905,18.6,38.031,38.031,0,0,0-7.8,11.586,55.379,55.379,0,0,0-5.238-8.7,17.226,17.226,0,0,0,1.235-6.659,17.882,17.882,0,0,0-5.182-12.542C35.471,6.559,23.19,7.794,13.323,8.787l-.509.05a3.1,3.1,0,0,0-1.843,5.324c4.418,4.245,5.318,8.756,6.274,13.528.85,4.245,1.725,8.638,5.306,12.082a17.7,17.7,0,0,0,12.231,4.9,15.634,15.634,0,0,0,10.655-4.046,40.219,40.219,0,0,1,6.41,14.85,3.582,3.582,0,0,0,.137.36,3.122,3.122,0,0,0,.161.422,2.9,2.9,0,0,0,.41.608,2.674,2.674,0,0,0,.242.285,2.954,2.954,0,0,0,.714.484,2.468,2.468,0,0,0,.217.124,3.1,3.1,0,0,0,1.167.254,3.609,3.609,0,0,0,.571-.05,2.663,2.663,0,0,0,.366-.149,3.92,3.92,0,0,0,.472-.186,2.79,2.79,0,0,0,.571-.385,3.6,3.6,0,0,0,.348-.341,3.107,3.107,0,0,0,.379-.552,2.79,2.79,0,0,0,.211-.484,3.011,3.011,0,0,0,.13-.614,2.7,2.7,0,0,0,.068-.323c.006-.484.254-9.96,9.1-18.735A13.377,13.377,0,0,0,71.426,37.2c.292.019.583.031.875.031a14.79,14.79,0,0,0,9.749-3.612c3.016-2.718,3.829-6.187,4.611-9.538.825-3.543,1.607-6.882,4.952-9.892A3.067,3.067,0,0,0,92.3,10.94Z" transform="translate(2.52 -7.988)" fill="#1d3557" opacity="0.33"/>
      </g>
    </g>
    <text id="STARTUP_MINDSET" data-name="STARTUP MINDSET" transform="translate(563 772)" fill="#9ba4b4" font-size="52" font-family="Ambit-Bold, Ambit" font-weight="700"><tspan x="0" y="0">STARTUP MINDSET</tspan></text>
    <text id="pre-startup_" data-name="pre-startup
" transform="translate(1142 1102)" fill="#616b81" font-size="52" font-family="Ambit-Bold, Ambit" font-weight="700"><tspan x="0" y="0">PRE-STARTUP</tspan><tspan x="0" y="59"></tspan></text>
    <text id="startup" transform="translate(563 1422)" fill="#14274e" font-size="52" font-family="Ambit-Bold, Ambit" font-weight="700"><tspan x="0" y="0">STARTUP</tspan></text>
    <text id="scaleup" transform="translate(1142 1741)" fill="#1d3557" font-size="52" font-family="Ambit-Bold, Ambit" font-weight="700"><tspan x="0" y="0">SCALEUP</tspan></text>
    <text id="discovering_and_understanding_" data-name="discovering and understanding " transform="translate(563 818)" fill="#bdc4ce" font-size="29" font-family="Ambit-Regular, Ambit"><tspan x="0" y="0">Discovering And Understanding </tspan></text>
    <text id="ideating_concepting" data-name="ideating &amp; concepting" transform="translate(1142 1148)" fill="#c0c1c2" font-size="29" font-family="Ambit-Regular, Ambit"><tspan x="0" y="0">Ideating &amp; Concepting</tspan></text>
    <text id="commitment_validation" data-name="commitment &amp; validation" transform="translate(563 1468)" fill="#a1a9b8" font-size="29" font-family="Ambit-Regular, Ambit"><tspan x="0" y="0">Commitment &amp; Validation</tspan></text>
    <text id="Scaling_establishing" data-name="Scaling &amp; establishing" transform="translate(1142 1787)" fill="#a0aab8" font-size="29" font-family="Ambit-Regular, Ambit"><tspan x="0" y="0">Scaling &amp; Establishing</tspan></text>
    <g id="right-arrow" transform="translate(1053.136 1282.068)">
      <g id="Group_2718" data-name="Group 2718" transform="translate(0 0)">
        <path id="Path_4562" data-name="Path 4562" d="M14.518,22.422.752,16.068a.532.532,0,0,0-.633.148.527.527,0,0,0-.013.65L4.633,22.9.107,28.938a.529.529,0,0,0,.645.8l13.766-6.354a.529.529,0,0,0,0-.962Z" transform="translate(0 -16.02)" fill="#575757"/>
      </g>
    </g>
    <g id="right-arrow-2" data-name="right-arrow" transform="translate(1686.643 1925.338)">
      <g id="Group_2718-2" data-name="Group 2718" transform="translate(0 0)">
        <path id="Path_4562-2" data-name="Path 4562" d="M14.518,22.422.752,16.068a.532.532,0,0,0-.633.148.527.527,0,0,0-.013.65L4.633,22.9.107,28.938a.529.529,0,0,0,.645.8l13.766-6.354a.529.529,0,0,0,0-.962Z" transform="translate(0 -16.02)" fill="#575757"/>
      </g>
    </g>
    <g id="right-arrow-3" data-name="right-arrow" transform="translate(1090.742 968.231) rotate(180)">
      <g id="Group_2718-3" data-name="Group 2718" transform="translate(0 0)">
        <path id="Path_4562-3" data-name="Path 4562" d="M14.518,6.4.752.048A.532.532,0,0,0,.119.2a.527.527,0,0,0-.013.65L4.633,6.882.106,12.918a.529.529,0,0,0,.645.8L14.517,7.363a.529.529,0,0,0,0-.962Z" fill="#575757"/>
      </g>
    </g>
    <g id="right-arrow-4" data-name="right-arrow" transform="translate(1090.742 1623.434) rotate(180)">
      <g id="Group_2718-4" data-name="Group 2718" transform="translate(0 0)">
        <path id="Path_4562-4" data-name="Path 4562" d="M14.518,6.4.752.048A.532.532,0,0,0,.119.2a.527.527,0,0,0-.013.65L4.633,6.882.106,12.918a.529.529,0,0,0,.645.8L14.517,7.363a.529.529,0,0,0,0-.962Z" fill="#575757"/>
      </g>
    </g>
  </g>
</svg>
