<svg xmlns="http://www.w3.org/2000/svg" width="29.974" height="27.354" viewBox="0 0 29.974 27.354">
  <g id="strategy-hand-drawn-sketch" transform="translate(0 -20.371)">
    <g id="Groupe_2687" data-name="Groupe 2687" transform="translate(0 20.371)">
      <path id="Tracé_4511" data-name="Tracé 4511" d="M332.733,27.446c.528-.746,1.085-1.467,1.657-2.177.62.545,1.248,1.08,1.9,1.591.982.771,2.379-.606,1.385-1.385-.7-.547-1.368-1.12-2.029-1.705.5-.578,1.014-1.15,1.539-1.71.864-.92-.519-2.309-1.385-1.385-.545.581-1.075,1.175-1.6,1.776q-.721-.683-1.427-1.384a.98.98,0,0,0-1.386,1.385q.767.764,1.555,1.5c-.658.815-1.3,1.645-1.9,2.5C330.31,27.491,332.01,28.468,332.733,27.446Z" transform="translate(-309.582 -20.371)" fill="#1d3557"/>
      <path id="Tracé_4512" data-name="Tracé 4512" d="M47.215,297.007c-.694.618-1.363,1.262-2.024,1.914-.4-.4-.8-.811-1.2-1.228-.865-.924-2.248.464-1.385,1.385.39.417.791.824,1.195,1.227q-.694.7-1.391,1.4a.98.98,0,0,0,1.386,1.385q.708-.71,1.412-1.425.7.667,1.416,1.327c.924.859,2.313-.524,1.386-1.385q-.711-.66-1.414-1.327c.655-.644,1.316-1.281,2-1.892C49.546,297.55,48.155,296.169,47.215,297.007Z" transform="translate(-39.417 -278.971)" fill="#1d3557"/>
      <path id="Tracé_4513" data-name="Tracé 4513" d="M352.389,314.128c-.045-.093-.161-.323-.254-.518a4.076,4.076,0,0,0-1.759-1.949,3.971,3.971,0,0,0-3.573.2,1.022,1.022,0,0,0-.25.162,5.7,5.7,0,0,0-.432.536,5.261,5.261,0,0,0-1.041,4.62,1.043,1.043,0,0,0,.072.207c.052.11.186.347.289.538a3.852,3.852,0,0,0,3.131,2.032.643.643,0,0,0,.125,0c.069-.007.213,0,.325-.008a1.068,1.068,0,0,0,.2-.027,4.043,4.043,0,0,0,3.232-5.614A1.01,1.01,0,0,0,352.389,314.128Zm-1.817,2.765a2.172,2.172,0,0,1-1.463,1.03,1.746,1.746,0,0,1-.459.081c-.026,0-.053-.009-.08-.012a1.8,1.8,0,0,1-1.5-1.142c-.014-.035-.029-.069-.045-.1a1.973,1.973,0,0,1-.123-.483,3.218,3.218,0,0,1,.72-2.455,1.448,1.448,0,0,1,.624-.429c1.13-.316,1.912.34,2.323,1.541a.59.59,0,0,0,.027.064,2.7,2.7,0,0,1,.112.446A2.368,2.368,0,0,1,350.572,316.894Z" transform="translate(-322.738 -292.602)" fill="#1d3557"/>
      <path id="Tracé_4514" data-name="Tracé 4514" d="M24.507,156.232q-.082,1.548-.169,3.1c-5.223-5.17-14.183-7.383-19.628-1.339-.843.936.538,2.326,1.386,1.385,4.641-5.151,12.008-3.169,16.554,1.055l-2.781-.439c-1.236-.2-1.766,1.693-.521,1.889l5.584.881a1.076,1.076,0,0,0,1.227-1.05c0-.031.012-.059.013-.091q.149-2.694.294-5.388C26.533,154.968,24.573,154.975,24.507,156.232Z" transform="translate(-4.161 -145.732)" fill="#e62825"/>
      <path id="Tracé_4515" data-name="Tracé 4515" d="M.591,28.781c-.693,1.061,1,2.042,1.692.989.369-.564.748-1.12,1.131-1.675q.564.508,1.151.991c.968.8,2.362-.583,1.385-1.385-.484-.4-.951-.813-1.411-1.236.363-.528.724-1.057,1.075-1.593.693-1.062-1-2.042-1.692-.989q-.395.6-.8,1.2c-.505-.519-1-1.047-1.479-1.593-.833-.953-2.213.438-1.386,1.385.557.637,1.136,1.252,1.731,1.851C1.514,27.405,1.044,28.087.591,28.781Z" transform="translate(0 -22.988)" fill="#1d3557"/>
    </g>
  </g>
</svg>
