<svg xmlns="http://www.w3.org/2000/svg" viewBox="0 0 71.5 40.3">
  <defs>
    <style>.cls-1{fill:#f1faee;}</style>
  </defs>
  <g id="white_dots" data-name="white_dots">
    <g id="svg3455white">
      <g id="test" data-name="Group 47">
        <g id="Group_31" data-name="Group 31">
          <g id="Group_28" data-name="Group 28">
            <g id="Group_27" data-name="Group 27">
              <path id="Path_1009" data-name="Path 1009" class="cls-1" d="M55.91,2.2A2.2,2.2,0,0,1,58.11,0h0a2.2,2.2,0,0,1,2.2,2.18v0h0a2.2,2.2,0,0,1-2.2,2.2h0a2.19,2.19,0,0,1-2.2-2.2Zm-11.18,0A2.2,2.2,0,0,1,46.93,0h0a2.2,2.2,0,0,1,2.2,2.18v0h0a2.2,2.2,0,0,1-2.2,2.2h0A2.2,2.2,0,0,1,44.73,2.2Zm-11.18,0A2.2,2.2,0,0,1,35.73,0h0a2.2,2.2,0,0,1,2.19,2.2h0a2.2,2.2,0,0,1-2.19,2.2h0a2.2,2.2,0,0,1-2.2-2.19Zm-11.18,0A2.19,2.19,0,0,1,24.55,0h0a2.21,2.21,0,0,1,2.2,2.2h0a2.2,2.2,0,0,1-2.2,2.2h0a2.19,2.19,0,0,1-2.2-2.2Zm-11.18,0A2.19,2.19,0,0,1,13.37,0h0a2.2,2.2,0,0,1,2.2,2.19h0a2.19,2.19,0,0,1-2.2,2.2h0A2.19,2.19,0,0,1,11.19,2.2ZM0,2.2A2.2,2.2,0,0,1,2.2,0h0A2.19,2.19,0,0,1,4.39,2.19h0A2.2,2.2,0,0,1,2.2,4.4h0A2.19,2.19,0,0,1,0,2.2Z"/>
            </g>
          </g>
          <g id="Group_30" data-name="Group 30">
            <g id="Group_29" data-name="Group 29">
              <path id="Path_1010" data-name="Path 1010" class="cls-1" d="M69.29,4.4a2.13,2.13,0,0,1-1.55-.65,2.15,2.15,0,0,1,0-3.06l0,0A2.19,2.19,0,1,1,69.29,4.4Z"/>
            </g>
          </g>
        </g>
      <g id="Group_36" data-name="Group 36">
        <g id="Group_33" data-name="Group 33">
          <g id="Group_32" data-name="Group 32"
          ><path id="Path_1011" data-name="Path 1011" class="cls-1" d="M55.91,14.29a2.2,2.2,0,0,1,2.2-2.2h0a2.2,2.2,0,0,1,2.2,2.18v0h0a2.2,2.2,0,0,1-2.2,2.2h0A2.19,2.19,0,0,1,55.91,14.29Zm-11.18,0a2.2,2.2,0,0,1,2.19-2.2h0a2.21,2.21,0,0,1,2.2,2.2h0a2.21,2.21,0,0,1-2.2,2.2h0A2.19,2.19,0,0,1,44.73,14.29Zm-11.18,0a2.19,2.19,0,0,1,2.17-2.2h0a2.19,2.19,0,0,1,2.19,2.19h0a2.19,2.19,0,0,1-2.19,2.2h0A2.19,2.19,0,0,1,33.55,14.29Zm-11.18,0a2.19,2.19,0,0,1,2.18-2.2h0a2.21,2.21,0,0,1,2.2,2.2h0a2.2,2.2,0,0,1-2.2,2.2h0a2.19,2.19,0,0,1-2.2-2.19Zm-11.18,0a2.19,2.19,0,0,1,2.17-2.2h0a2.19,2.19,0,0,1,2.19,2.18v0h0a2.2,2.2,0,0,1-2.19,2.2h0A2.2,2.2,0,0,1,11.19,14.29ZM0,14.29a2.2,2.2,0,0,1,2.19-2.2h0a2.2,2.2,0,0,1,2.2,2.19h0a2.2,2.2,0,0,1-2.2,2.2h0A2.19,2.19,0,0,1,0,14.29Z"/>
          </g>
        </g><g id="Group_35" data-name="Group 35"><g id="Group_34" data-name="Group 34"><path id="Path_1012" data-name="Path 1012" class="cls-1" d="M69.29,16.49a2.2,2.2,0,0,1-2.2-2.2,2.25,2.25,0,0,1,.65-1.56,2.29,2.29,0,0,1,3.11,0,2.2,2.2,0,0,1,0,3.11h0A2.2,2.2,0,0,1,69.29,16.49Z"/></g></g></g><g id="Group_41" data-name="Group 41"><g id="Group_38" data-name="Group 38"><g id="Group_37" data-name="Group 37"><path id="Path_1013" data-name="Path 1013" class="cls-1" d="M55.91,26a2.2,2.2,0,0,1,2.2-2.2h0a2.2,2.2,0,0,1,2.2,2.2h0a2.2,2.2,0,0,1-2.19,2.2h0a2.19,2.19,0,0,1-2.2-2.2ZM44.73,26a2.2,2.2,0,0,1,2.2-2.2h0a2.21,2.21,0,0,1,2.2,2.2h0a2.2,2.2,0,0,1-2.2,2.2h0a2.19,2.19,0,0,1-2.2-2.2ZM33.55,26a2.2,2.2,0,0,1,2.2-2.2h0A2.2,2.2,0,0,1,37.94,26h0a2.2,2.2,0,0,1-2.19,2.2h0A2.2,2.2,0,0,1,33.55,26ZM22.37,26a2.19,2.19,0,0,1,2.2-2.2h0a2.21,2.21,0,0,1,2.2,2.2h0a2.2,2.2,0,0,1-2.2,2.2h0A2.18,2.18,0,0,1,22.37,26s0,0,0,0ZM11.18,26a2.2,2.2,0,0,1,2.2-2.2h0A2.19,2.19,0,0,1,15.57,26h0a2.18,2.18,0,0,1-2.17,2.2h0A2.2,2.2,0,0,1,11.18,26ZM0,26a2.19,2.19,0,0,1,2.2-2.2h0A2.21,2.21,0,0,1,4.4,26h0a2.2,2.2,0,0,1-2.19,2.2h0A2.19,2.19,0,0,1,0,26Z"/></g></g><g id="Group_40" data-name="Group 40"><g id="Group_39" data-name="Group 39"><path id="Path_1014" data-name="Path 1014" class="cls-1" d="M69.29,28.2a2.19,2.19,0,0,1-1.55-3.74,2.27,2.27,0,0,1,3.11,0,2.19,2.19,0,0,1-1.56,3.74Z"/></g></g></g><g id="Group_46" data-name="Group 46"><g id="Group_43" data-name="Group 43"><g id="Group_42" data-name="Group 42"><path id="Path_1015" data-name="Path 1015" class="cls-1" d="M55.91,38.1a2.18,2.18,0,0,1,2.18-2.2h0a2.19,2.19,0,0,1,2.2,2.18v0h0a2.2,2.2,0,0,1-2.2,2.2h0A2.2,2.2,0,0,1,55.91,38.1Zm-11.18,0a2.19,2.19,0,0,1,2.17-2.2h0a2.2,2.2,0,0,1,2.2,2.19h0a2.21,2.21,0,0,1-2.2,2.2h0A2.2,2.2,0,0,1,44.73,38.1Zm-11.18,0a2.18,2.18,0,0,1,2.17-2.2h0a2.19,2.19,0,0,1,2.19,2.19h0a2.2,2.2,0,0,1-2.19,2.2h0a2.2,2.2,0,0,1-2.2-2.19Zm-11.18,0a2.19,2.19,0,0,1,2.17-2.2h0a2.19,2.19,0,0,1,2.2,2.19h0a2.2,2.2,0,0,1-2.2,2.2h0a2.19,2.19,0,0,1-2.2-2.2Zm-11.19,0a2.19,2.19,0,0,1,2.19-2.2h0a2.19,2.19,0,0,1,2.2,2.18v0h0a2.19,2.19,0,0,1-2.2,2.2h0A2.2,2.2,0,0,1,11.18,38.1ZM0,38.1a2.19,2.19,0,0,1,2.18-2.2h0a2.2,2.2,0,0,1,2.2,2.18v0h0a2.21,2.21,0,0,1-2.2,2.2h0A2.19,2.19,0,0,1,0,38.1Z"/></g></g><g id="Group_45" data-name="Group 45"><g id="Group_44" data-name="Group 44"><path id="Path_1016" data-name="Path 1016" class="cls-1" d="M69.29,40.29a2.23,2.23,0,0,1-1.55-.63,2.29,2.29,0,0,1-.65-1.56,2.15,2.15,0,0,1,.65-1.55,2.18,2.18,0,0,1,3.1,0,2.2,2.2,0,0,1,0,3.11A2.19,2.19,0,0,1,69.29,40.29Z"/></g></g></g></g></g></g></svg>
