<svg xmlns="http://www.w3.org/2000/svg" width="26" height="26" viewBox="0 0 26 26">
  <rect id="Rectangle_128" data-name="Rectangle 128" width="26" height="26" rx="6" fill="#f16768"/>
  <g id="tools" transform="translate(4.5 5.644)">
    <path id="Path_1067" data-name="Path 1067" d="M337.635,155.148a.295.295,0,1,0,.3.295A.295.295,0,0,0,337.635,155.148Zm0,0" transform="translate(-326.902 -150.571)" fill="#fff"/>
    <path id="Path_1068" data-name="Path 1068" d="M155.94,336.84a.3.3,0,1,0,.3.3A.295.295,0,0,0,155.94,336.84Zm0,0" transform="translate(-150.568 -326.902)" fill="#fff"/>
    <path id="Path_1069" data-name="Path 1069" d="M15.239,1.814a.3.3,0,0,0-.276.08L13.74,3.127h-.586l-.646-.669V1.863L13.714.64A.3.3,0,0,0,13.6.153,2.953,2.953,0,0,0,9.8,3.714L7.632,5.887,4.011,2.258V1.546a.3.3,0,0,0-.143-.253L1.781.041a.3.3,0,0,0-.36.044L.586.92a.3.3,0,0,0-.044.361L1.794,3.367a.3.3,0,0,0,.253.143h.712L6.38,7.139,4.215,9.3A2.952,2.952,0,0,0,.654,13.1a.3.3,0,0,0,.489.114l1.223-1.233h.59l.672.672v.59L2.394,14.462a.3.3,0,0,0,.114.489,2.951,2.951,0,0,0,3.337-1.075A2.918,2.918,0,0,0,6.3,11.39L8.04,9.651l.4.433-.183.183a.3.3,0,0,0,.417.417l.166-.166,3.737,4.059.009.009a1.77,1.77,0,0,0,2.5-2.5l-.009-.009-4.066-3.73.164-.164a.3.3,0,0,0-.417-.417l-.182.182-.433-.4L11.891,5.8a2.952,2.952,0,0,0,3.561-3.793.3.3,0,0,0-.213-.193ZM3.09,3.007a.292.292,0,0,0-.209-.084H2.214L1.167,1.174,1.675.666,3.421,1.713v.667a.3.3,0,0,0,.086.208L7.214,6.3,6.8,6.722Zm7.5,5.755,4.08,3.743A1.18,1.18,0,0,1,13,14.174L9.256,10.1Zm-.435-.4-1.3,1.3-.4-.433L9.726,7.965Zm2.5-3.053a2.358,2.358,0,0,1-.754-.123.3.3,0,0,0-.3.071L5.759,11.1a.3.3,0,0,0-.071.3A2.363,2.363,0,0,1,3.45,14.515a2.417,2.417,0,0,1-.257-.014l.937-.93a.3.3,0,0,0,.087-.209v-.835a.3.3,0,0,0-.086-.209l-.845-.845a.3.3,0,0,0-.209-.086H2.243a.3.3,0,0,0-.21.087l-.93.937a2.387,2.387,0,0,1-.014-.257A2.363,2.363,0,0,1,4.2,9.917a.3.3,0,0,0,.3-.071l5.84-5.84a.3.3,0,0,0,.071-.3A2.362,2.362,0,0,1,12.655.589,2.411,2.411,0,0,1,12.92.6L12,1.535a.3.3,0,0,0-.085.207v.835a.3.3,0,0,0,.083.2l.815.845a.3.3,0,0,0,.212.09h.835a.3.3,0,0,0,.209-.087L15,2.692a2.387,2.387,0,0,1,.014.257,2.363,2.363,0,0,1-2.36,2.36Zm0,0" transform="translate(0 0)" fill="#fff"/>
    <path id="Path_1070" data-name="Path 1070" d="M187.7,183.512l-3.692,3.692a.3.3,0,1,0,.417.417l3.692-3.692a.3.3,0,0,0-.417-.417Zm0,0" transform="translate(-178.013 -178.014)" fill="#fff"/>
    <path id="Path_1071" data-name="Path 1071" d="M348.025,348.227a.3.3,0,1,0,.417-.418l-2.659-2.651a.3.3,0,0,0-.417.418Zm0,0" transform="translate(-334.606 -334.891)" fill="#fff"/>
  </g>
</svg>
