<svg id="cpu" xmlns="http://www.w3.org/2000/svg" width="23.986" height="23.986" viewBox="0 0 23.986 23.986">
  <g id="Group_3176" data-name="Group 3176" transform="translate(6.163 6.163)">
    <g id="Group_3175" data-name="Group 3175">
      <path id="Path_4985" data-name="Path 4985" d="M140.748,129.753H130.42a.668.668,0,0,0-.666.666v10.327a.668.668,0,0,0,.666.666h10.327a.668.668,0,0,0,.666-.666V130.419A.668.668,0,0,0,140.748,129.753Zm-.666,10.327h-8.995v-2.5h1.333a.666.666,0,0,0,0-1.333h-1.333v-1.333h2.665a.666.666,0,0,0,0-1.333h-2.665v-2.5h8.995Z" transform="translate(-129.754 -129.753)" fill="#1d3557"/>
    </g>
  </g>
  <g id="Group_3178" data-name="Group 3178">
    <g id="Group_3177" data-name="Group 3177">
      <path id="Path_4986" data-name="Path 4986" d="M23.986,10.261a.668.668,0,0,0-.666-.666H21.188V7.5H23.32a.666.666,0,1,0,0-1.333H21.188V4.731A1.934,1.934,0,0,0,19.255,2.8H17.823V.666a.666.666,0,1,0-1.333,0V2.8H14.358V.666a.666.666,0,0,0-1.333,0V2.8H10.894V.666a.666.666,0,1,0-1.333,0V2.8H7.5V.666a.666.666,0,0,0-1.333,0V2.8H4.731A1.934,1.934,0,0,0,2.8,4.731V6.163H.666a.666.666,0,0,0,0,1.333H2.8V9.628H.666a.666.666,0,1,0,0,1.333H2.8v2.132H.666a.666.666,0,0,0,0,1.333H2.8V16.49H.666a.666.666,0,0,0,0,1.333H2.8v1.433a1.934,1.934,0,0,0,1.932,1.932H6.163V23.32a.666.666,0,1,0,1.333,0V21.188H9.628V23.32a.666.666,0,1,0,1.333,0V21.188h2.132V23.32a.666.666,0,1,0,1.333,0V21.188H16.49V23.32a.666.666,0,1,0,1.333,0V21.188h1.433a1.934,1.934,0,0,0,1.932-1.932V17.823H23.32a.666.666,0,1,0,0-1.333H21.187V14.358H23.32a.666.666,0,1,0,0-1.333H21.187V10.894H23.32v.033A.668.668,0,0,0,23.986,10.261Zm-4.1,8.995h-.033a.6.6,0,0,1-.6.6H4.731a.6.6,0,0,1-.6-.6V4.731a.6.6,0,0,1,.6-.6H19.289a.6.6,0,0,1,.6.6V19.255Z" fill="#1d3557"/>
    </g>
  </g>
</svg>
