<svg id="x-mark" xmlns="http://www.w3.org/2000/svg" width="25.143" height="25.143" viewBox="0 0 25.143 25.143">
  <path id="Path_4499" data-name="Path 4499" d="M12.572,25.143A12.572,12.572,0,1,1,25.143,12.572,12.586,12.586,0,0,1,12.572,25.143Zm0-23.347A10.776,10.776,0,1,0,23.347,12.572,10.788,10.788,0,0,0,12.572,1.8Zm0,0" fill="#fff"/>
  <path id="Path_4500" data-name="Path 4500" d="M156.165,157.064a.9.9,0,0,1-.635-.263l-8.98-8.98a.9.9,0,0,1,1.27-1.27l8.98,8.98a.9.9,0,0,1-.635,1.533Zm0,0" transform="translate(-139.103 -139.104)" fill="#fff"/>
  <path id="Path_4501" data-name="Path 4501" d="M147.184,157.062a.9.9,0,0,1-.635-1.533l8.98-8.98a.9.9,0,1,1,1.27,1.27l-8.98,8.98A.894.894,0,0,1,147.184,157.062Zm0,0" transform="translate(-139.102 -139.103)" fill="#fff"/>
</svg>
