<svg id="down-arrow_6_" data-name="down-arrow (6)" xmlns="http://www.w3.org/2000/svg" width="22.949" height="24.714" viewBox="0 0 22.949 24.714">
  <g id="Group_3126" data-name="Group 3126" transform="translate(0 7.944)">
    <g id="Group_3125" data-name="Group 3125">
      <path id="Path_4961" data-name="Path 4961" d="M37.368,153.6H32.955a.883.883,0,1,0,0,1.765h4.413a.883.883,0,0,1,.883.883v11.474a.883.883,0,0,1-.883.883H19.715a.883.883,0,0,1-.883-.883V156.248a.883.883,0,0,1,.883-.883h4.413a.883.883,0,1,0,0-1.765H19.715a2.648,2.648,0,0,0-2.648,2.648v11.474a2.648,2.648,0,0,0,2.648,2.648H37.368a2.648,2.648,0,0,0,2.648-2.648V156.248A2.648,2.648,0,0,0,37.368,153.6Z" transform="translate(-17.067 -153.6)" fill="#fff"/>
    </g>
  </g>
  <g id="Group_3128" data-name="Group 3128" transform="translate(6.189)">
    <g id="Group_3127" data-name="Group 3127" transform="translate(0)">
      <path id="Path_4962" data-name="Path 4962" d="M147.044,12.616a.883.883,0,0,0-1.226,0l-2.908,2.907V.883a.883.883,0,0,0-1.765,0v14.64l-2.907-2.907a.883.883,0,0,0-1.248,1.248l4.413,4.413a.883.883,0,0,0,1.248,0l0,0,4.413-4.413A.883.883,0,0,0,147.044,12.616Z" transform="translate(-136.742 0)" fill="#fff"/>
    </g>
  </g>
</svg>
