<svg xmlns="http://www.w3.org/2000/svg" width="26" height="26" viewBox="0 0 26 26">
  <rect id="Rectangle_137" data-name="Rectangle 137" width="26" height="26" rx="6" fill="#7d7d7d"/>
  <g id="event" transform="translate(-38.834 5)">
    <path id="Path_1094" data-name="Path 1094" d="M57.277,1.172H56.4V.879A.88.88,0,0,0,55.519,0h0a.88.88,0,0,0-.879.879v.293H52.882V.879A.88.88,0,0,0,52,0h0a.88.88,0,0,0-.879.879v.293H49.366V.879A.88.88,0,0,0,48.486,0h0a.88.88,0,0,0-.879.879v.293h-.879a.885.885,0,0,0-.888.879V14.123a.885.885,0,0,0,.888.879H57.277a.88.88,0,0,0,.879-.879V2.051A.88.88,0,0,0,57.277,1.172ZM55.226.879a.293.293,0,1,1,.586,0V2.051a.293.293,0,1,1-.586,0Zm-3.516,0a.293.293,0,1,1,.586,0V2.051a.293.293,0,1,1-.586,0Zm-3.516,0a.293.293,0,1,1,.586,0V2.051a.293.293,0,1,1-.586,0Zm-1.465.879h.879v.293a.879.879,0,1,0,1.758,0V1.758h1.758v.293a.879.879,0,0,0,1.758,0V1.758H54.64v.293a.879.879,0,0,0,1.758,0V1.758h.879a.293.293,0,0,1,.293.293V3.809H46.426V2.051a.3.3,0,0,1,.3-.293ZM57.277,14.416H46.728a.3.3,0,0,1-.3-.293V4.4H57.57v9.728A.293.293,0,0,1,57.277,14.416Z" fill="#fff" fill-rule="evenodd"/>
    <path id="Path_1095" data-name="Path 1095" d="M166.969,223.5l-.623-1.272a.393.393,0,0,0-.707,0l-.624,1.274-1.406.2h0a.394.394,0,0,0-.219.672l1.019.988-.244,1.4h0a.394.394,0,0,0,.572.416l1.255-.665,1.235.654a.394.394,0,0,0,.592-.406l-.244-1.4,1.006-.975a.394.394,0,0,0-.206-.685Z" transform="translate(-113.99 -215.496)" fill="#fff" fill-rule="evenodd"/>
  </g>
</svg>
