<svg xmlns="http://www.w3.org/2000/svg" width="6.938" height="14.934" viewBox="0 0 6.938 14.934">
  <g id="Group_3273" data-name="Group 3273" transform="translate(0)" opacity="0.44">
    <g id="Group_3272" data-name="Group 3272" transform="translate(0)">
      <path id="Path_5324" data-name="Path 5324" d="M334.608,730.874v7.22a.188.188,0,0,0,.188.188h2.681a.188.188,0,0,0,.188-.188v-7.338h1.944a.188.188,0,0,0,.187-.172l.187-2.21a.188.188,0,0,0-.187-.2h-2.131V726.6a.666.666,0,0,1,.666-.666h1.5a.188.188,0,0,0,.188-.188v-2.21a.188.188,0,0,0-.188-.188H337.3a2.69,2.69,0,0,0-2.69,2.69v2.131h-1.34a.188.188,0,0,0-.188.188v2.211a.188.188,0,0,0,.188.188h1.34Z" transform="translate(-333.079 -723.348)" fill="#1d3557" fill-rule="evenodd"/>
    </g>
  </g>
</svg>
