<svg xmlns="http://www.w3.org/2000/svg" width="63" height="53" viewBox="0 0 63 53">
  <g id="Group_4" data-name="Group 4" transform="translate(-7.667 -16.648)">
    <g id="Group_24" data-name="Group 24" transform="translate(0)">
      <rect id="Rectangle_9" data-name="Rectangle 9" width="54" height="53" rx="23" transform="translate(16.667 16.648)" fill="#457b9d"/>
    </g>
    <rect id="Rectangle_10" data-name="Rectangle 10" width="41" height="53" rx="12" transform="translate(7.667 16.648)" fill="#457b9d"/>
  </g>
  <g id="arrow_1_" data-name="arrow (1)" transform="translate(16.383 18.92)">
    <g id="Group_25" data-name="Group 25" transform="translate(0 0)">
      <path id="Path_12" data-name="Path 12" d="M27.826,138.039h0L22.08,132.32a1.1,1.1,0,0,0-1.551,1.559l3.857,3.839H1.1a1.1,1.1,0,0,0,0,2.2H24.386l-3.857,3.839a1.1,1.1,0,0,0,1.551,1.559l5.745-5.718h0A1.1,1.1,0,0,0,27.826,138.039Z" transform="translate(0 -132)" fill="#fff"/>
    </g>
  </g>
</svg>
