<svg xmlns="http://www.w3.org/2000/svg" width="12.919" height="12.919" viewBox="0 0 12.919 12.919">
  <g id="Group_3286" data-name="Group 3286" opacity="0.44">
    <path id="Path_5332" data-name="Path 5332" d="M386.7,725.286a.759.759,0,1,0,.76.759A.759.759,0,0,0,386.7,725.286Zm-3.376.974a3.19,3.19,0,1,0,3.19,3.19A3.194,3.194,0,0,0,383.321,726.26Zm0,5.234a2.044,2.044,0,1,1,2.044-2.044A2.046,2.046,0,0,1,383.321,731.494Zm6.438-4.7a3.891,3.891,0,0,0-3.891-3.891h-5.136a3.892,3.892,0,0,0-3.892,3.891v5.136a3.891,3.891,0,0,0,3.892,3.891h5.136a3.891,3.891,0,0,0,3.891-3.891Zm-1.219,5.136a2.672,2.672,0,0,1-2.673,2.672h-5.136a2.673,2.673,0,0,1-2.673-2.672V726.8a2.673,2.673,0,0,1,2.673-2.673h5.136a2.673,2.673,0,0,1,2.673,2.673Z" transform="translate(-376.84 -722.907)" fill="#1d3557"/>
  </g>
</svg>
