<svg xmlns="http://www.w3.org/2000/svg" width="26" height="26" viewBox="0 0 26 26">
  <rect id="Rectangle_129" data-name="Rectangle 129" width="26" height="26" rx="6" fill="#f8981d"/>
  <g id="settings" transform="translate(5 5)">
    <path id="Path_1072" data-name="Path 1072" d="M8.236,15.5H7.264a1.429,1.429,0,0,1-1.427-1.427v-.329a6.258,6.258,0,0,1-.972-.4l-.233.233a1.427,1.427,0,0,1-2.018,0l-.688-.688a1.427,1.427,0,0,1,0-2.018l.233-.233a6.258,6.258,0,0,1-.4-.972H1.427A1.429,1.429,0,0,1,0,8.236V7.264A1.429,1.429,0,0,1,1.427,5.837h.329a6.259,6.259,0,0,1,.4-.972l-.233-.233a1.427,1.427,0,0,1,0-2.018l.688-.688a1.427,1.427,0,0,1,2.018,0l.233.233a6.263,6.263,0,0,1,.972-.4V1.427A1.429,1.429,0,0,1,7.264,0h.973A1.429,1.429,0,0,1,9.663,1.427v.329a6.257,6.257,0,0,1,.972.4l.233-.233a1.427,1.427,0,0,1,2.018,0l.688.688a1.427,1.427,0,0,1,0,2.018l-.233.233a6.258,6.258,0,0,1,.4.972h.329A1.429,1.429,0,0,1,15.5,7.264v.973a1.429,1.429,0,0,1-1.427,1.427h-.329a6.259,6.259,0,0,1-.4.972l.233.233a1.427,1.427,0,0,1,0,2.018l-.688.688a1.427,1.427,0,0,1-2.018,0l-.233-.233a6.263,6.263,0,0,1-.972.4v.329A1.429,1.429,0,0,1,8.236,15.5Zm-3.22-3.113a5.353,5.353,0,0,0,1.387.576.454.454,0,0,1,.341.44v.67a.519.519,0,0,0,.519.519h.973a.519.519,0,0,0,.519-.519V13.4a.454.454,0,0,1,.341-.44,5.353,5.353,0,0,0,1.387-.576.454.454,0,0,1,.552.07l.475.475a.519.519,0,0,0,.733,0l.688-.688a.519.519,0,0,0,0-.733l-.475-.475a.454.454,0,0,1-.07-.552A5.352,5.352,0,0,0,12.963,9.1a.454.454,0,0,1,.44-.341h.67a.519.519,0,0,0,.519-.519V7.264a.519.519,0,0,0-.519-.519H13.4a.454.454,0,0,1-.44-.341,5.353,5.353,0,0,0-.576-1.387.454.454,0,0,1,.07-.552l.475-.475a.519.519,0,0,0,0-.733l-.688-.688a.519.519,0,0,0-.733,0l-.475.475a.454.454,0,0,1-.552.07A5.353,5.353,0,0,0,9.1,2.537a.454.454,0,0,1-.341-.44V1.427A.519.519,0,0,0,8.236.908H7.264a.519.519,0,0,0-.519.519V2.1a.454.454,0,0,1-.341.44,5.353,5.353,0,0,0-1.387.576.454.454,0,0,1-.552-.07L3.99,2.568a.519.519,0,0,0-.733,0l-.688.688a.519.519,0,0,0,0,.733l.475.475a.454.454,0,0,1,.07.552A5.352,5.352,0,0,0,2.537,6.4a.454.454,0,0,1-.44.341h-.67a.519.519,0,0,0-.519.519v.973a.519.519,0,0,0,.519.519H2.1a.454.454,0,0,1,.44.341,5.353,5.353,0,0,0,.576,1.387.454.454,0,0,1-.07.552l-.475.475a.519.519,0,0,0,0,.733l.688.688a.519.519,0,0,0,.733,0l.475-.475a.456.456,0,0,1,.552-.07Z" fill="#fff"/>
    <path id="Path_1073" data-name="Path 1073" d="M147.972,151.345a3.372,3.372,0,1,1,3.372-3.372A3.376,3.376,0,0,1,147.972,151.345Zm0-5.837a2.464,2.464,0,1,0,2.464,2.464A2.467,2.467,0,0,0,147.972,145.508Z" transform="translate(-140.222 -140.222)" fill="#fff"/>
  </g>
</svg>
