<svg xmlns="http://www.w3.org/2000/svg" width="26" height="26" viewBox="0 0 26 26">
  <rect id="Rectangle_135" data-name="Rectangle 135" width="26" height="26" rx="6" fill="#457b9d"/>
  <path id="portfolio" d="M15.465,1.867H11.231V1.4A1.4,1.4,0,0,0,9.831,0H6.1A1.4,1.4,0,0,0,4.7,1.4v.467H.467A.468.468,0,0,0,0,2.333V12.6A1.4,1.4,0,0,0,1.4,14H14.529a1.4,1.4,0,0,0,1.4-1.4V2.341a.453.453,0,0,0-.464-.475ZM5.631,1.4A.467.467,0,0,1,6.1.933H9.831A.467.467,0,0,1,10.3,1.4v.467H5.631Zm9.184,1.4L13.366,7.148a.466.466,0,0,1-.443.319H10.3V7a.467.467,0,0,0-.467-.467H6.1A.467.467,0,0,0,5.631,7v.467H3.006a.466.466,0,0,1-.443-.319L1.114,2.8ZM9.365,7.467V8.4h-2.8V7.467ZM15,12.6a.467.467,0,0,1-.467.467H1.4A.467.467,0,0,1,.934,12.6V5.209l.745,2.234A1.4,1.4,0,0,0,3.006,8.4H5.631v.467a.467.467,0,0,0,.467.467H9.831a.467.467,0,0,0,.467-.467V8.4h2.625a1.4,1.4,0,0,0,1.328-.957L15,5.209Zm0,0" transform="translate(5 6)" fill="#fff"/>
</svg>
