<svg xmlns="http://www.w3.org/2000/svg" width="12.412" height="11.855" viewBox="0 0 12.412 11.855">
  <g id="Group_3278" data-name="Group 3278" opacity="0.44">
    <g id="Group_3276" data-name="Group 3276" transform="translate(0.174 3.674)">
      <g id="Group_3275" data-name="Group 3275">
        <g id="Group_3274" data-name="Group 3274">
          <path id="Path_5325" data-name="Path 5325" d="M510.706,737.483v4.388a.2.2,0,0,1-.2.2h-2.265a.2.2,0,0,1-.2-.2V737.79c0-1.074-.384-1.807-1.346-1.807a1.454,1.454,0,0,0-1.363.972,1.821,1.821,0,0,0-.088.647v4.268a.2.2,0,0,1-.2.2h-2.264a.2.2,0,0,1-.2-.2c0-1.086.028-6.358,0-7.6a.2.2,0,0,1,.2-.2h2.26a.2.2,0,0,1,.2.2v.937c-.005.009-.013.018-.018.026h.018v-.026a2.638,2.638,0,0,1,2.4-1.32c1.748,0,3.059,1.142,3.059,3.6Zm-12.042,4.584h2.264a.2.2,0,0,0,.2-.2v-7.6a.2.2,0,0,0-.2-.2h-2.264a.2.2,0,0,0-.2.2v7.6A.2.2,0,0,0,498.664,742.067Z" transform="translate(-498.468 -733.886)" fill="#1d3557"/>
        </g>
      </g>
    </g>
    <g id="Group_3277" data-name="Group 3277">
      <path id="Path_5326" data-name="Path 5326" d="M500.89,726.365a1.422,1.422,0,1,1-1.422-1.423A1.423,1.423,0,0,1,500.89,726.365Z" transform="translate(-498.045 -724.942)" fill="#1d3557"/>
    </g>
  </g>
</svg>
