<svg xmlns="http://www.w3.org/2000/svg" width="26" height="26" viewBox="0 0 26 26">
  <rect id="Rectangle_133" data-name="Rectangle 133" width="26" height="26" rx="6" fill="#de1f26"/>
  <g id="youtube" transform="translate(5.001 7)">
    <path id="Path_1084" data-name="Path 1084" d="M195.723,108.664l-3.756-2.055a.69.69,0,0,0-1.021.605v4.075a.689.689,0,0,0,1.017.608l3.756-2.02a.69.69,0,0,0,0-1.213Zm-3.78,2.112v-3.045l2.807,1.536Zm0,0" transform="translate(-184.607 -102.986)" fill="#fff"/>
    <path id="Path_1085" data-name="Path 1085" d="M16.874,3.039V3.031a3.888,3.888,0,0,0-.749-1.973A2.766,2.766,0,0,0,14.292.2l-.084-.01-.03,0C11.93.022,8.536,0,8.5,0H8.5C8.462,0,5.068.022,2.8.186l-.03,0L2.691.2a2.7,2.7,0,0,0-1.821.886A4.074,4.074,0,0,0,.126,3.022l0,.017C.119,3.1,0,4.451,0,5.812V7.084C0,8.445.119,9.8.124,9.858v.009a3.85,3.85,0,0,0,.747,1.949,2.823,2.823,0,0,0,1.893.847c.069.008.129.015.169.022l.039.005c1.3.123,5.366.184,5.539.187h.01c.034,0,3.428-.022,5.675-.186l.03,0,.1-.011a2.634,2.634,0,0,0,1.806-.864,4.074,4.074,0,0,0,.743-1.937l0-.017C16.879,9.8,17,8.445,17,7.084V5.812c0-1.361-.12-2.716-.125-2.773ZM16,7.084c0,1.26-.11,2.557-.12,2.676a3.163,3.163,0,0,1-.489,1.38,1.638,1.638,0,0,1-1.176.546l-.106.012c-2.174.157-5.44.181-5.59.182-.169,0-4.178-.064-5.436-.181-.064-.011-.134-.019-.208-.027A1.863,1.863,0,0,1,1.6,11.14L1.6,11.13a2.87,2.87,0,0,1-.479-1.366C1.108,9.674,1,8.361,1,7.084V5.812c0-1.258.11-2.554.12-2.675A3.1,3.1,0,0,1,1.6,1.756a1.719,1.719,0,0,1,1.2-.568l.081-.01C5.092,1.021,8.381,1,8.5,1s3.406.024,5.592.182l.088.01a1.784,1.784,0,0,1,1.22.553l0,0a2.916,2.916,0,0,1,.479,1.386c.008.085.121,1.4.121,2.68Zm0,0" fill="#fff"/>
  </g>
</svg>
