<svg xmlns="http://www.w3.org/2000/svg" width="26.5" height="26.5" viewBox="0 0 26.5 26.5">
  <g id="placeholder_1_" data-name="placeholder (1)" transform="translate(-0.005 -1)">
    <g id="Group_3295" data-name="Group 3295" transform="translate(0.005 1)">
      <g id="Group_3294" data-name="Group 3294">
        <path id="Path_5334" data-name="Path 5334" d="M20.133,313.488a1.1,1.1,0,1,0-.509,2.148c3.429.814,4.673,2.017,4.673,2.629,0,1.319-4.4,3.312-11.041,3.312s-11.041-1.993-11.041-3.312c0-.612,1.244-1.815,4.672-2.629a1.1,1.1,0,1,0-.509-2.148C2.267,314.462,0,316.158,0,318.264c0,3.624,6.667,5.521,13.25,5.521s13.25-1.9,13.25-5.521C26.5,316.158,24.242,314.462,20.133,313.488Z" transform="translate(-0.005 -297.285)" fill="#9e9e9e"/>
        <path id="Path_5335" data-name="Path 5335" d="M235.786,131.223a1.1,1.1,0,1,0-1.1-1.1A1.1,1.1,0,0,0,235.786,131.223Z" transform="translate(-222.536 -122.389)" fill="#9e9e9e"/>
        <path id="Path_5336" data-name="Path 5336" d="M112.977,21.575l.449.9a1.1,1.1,0,0,0,1.976,0l.952-1.9a76.4,76.4,0,0,1,3.968-6.733l.629-.99a7.727,7.727,0,0,0-7.441-11.793A7.723,7.723,0,0,0,108.188,13.3,55.552,55.552,0,0,1,112.977,21.575Zm1.438-16.157A3.312,3.312,0,1,1,111.1,8.73,3.317,3.317,0,0,1,114.415,5.418Z" transform="translate(-101.165 -1)" fill="#9e9e9e"/>
      </g>
    </g>
  </g>
</svg>
