<svg id="price-tag" xmlns="http://www.w3.org/2000/svg" width="23.199" height="23.199" viewBox="0 0 23.199 23.199">
  <path id="Path_4953" data-name="Path 4953" d="M175.646,123.638l3.2-9.612a.68.68,0,1,0-1.29-.43l-3.2,9.612a.68.68,0,1,0,1.29.43Z" transform="translate(-166.423 -108.005)" fill="#fff"/>
  <path id="Path_4954" data-name="Path 4954" d="M266.572,193.281a2.039,2.039,0,1,0-2.039-2.039A2.041,2.041,0,0,0,266.572,193.281Zm0-2.719a.68.68,0,1,1-.68.68A.68.68,0,0,1,266.572,190.562Z" transform="translate(-252.547 -180.63)" fill="#fff"/>
  <path id="Path_4955" data-name="Path 4955" d="M96.866,189.2a2.039,2.039,0,1,0,2.039,2.039A2.041,2.041,0,0,0,96.866,189.2Zm0,2.719a.68.68,0,1,1,.68-.68A.68.68,0,0,1,96.866,191.922Z" transform="translate(-90.53 -180.63)" fill="#fff"/>
  <path id="Path_4956" data-name="Path 4956" d="M23.064,8.428l-2.37-3.16.092-.647a.68.68,0,0,0-.192-.577L19.152,2.6,20.594,1.16A.68.68,0,0,0,19.633.2L18.191,1.641,16.749.2a.68.68,0,0,0-.577-.192L9.444.968a.68.68,0,0,0-.384.192L.729,9.491a2.5,2.5,0,0,0,0,3.524l7.049,7.049a2.486,2.486,0,0,0,.469.368v.276A2.5,2.5,0,0,0,10.739,23.2h9.969A2.5,2.5,0,0,0,23.2,20.708V8.836a.68.68,0,0,0-.136-.408ZM1.69,12.054a1.134,1.134,0,0,1,0-1.6l8.17-8.17L16.028,1.4l1.2,1.2-.961.961-.481-.481a.68.68,0,0,0-.961.961l1.922,1.922a.68.68,0,0,0,.961-.961l-.481-.481.961-.961,1.2,1.2-.881,6.168-8.17,8.17a1.133,1.133,0,0,1-1.6,0Zm20.15,8.653a1.134,1.134,0,0,1-1.133,1.133H10.739A1.134,1.134,0,0,1,9.61,20.791a2.482,2.482,0,0,0,1.693-.727l8.33-8.33a.68.68,0,0,0,.192-.384l.6-4.178L21.84,9.063Z" transform="translate(0 0)" fill="#fff"/>
</svg>
