<svg id="call" xmlns="http://www.w3.org/2000/svg" width="18.667" height="18.667" viewBox="0 0 18.667 18.667">
  <g id="Group_3325" data-name="Group 3325">
    <path id="Path_5357" data-name="Path 5357" d="M17.169,12.253a10.6,10.6,0,0,1-3.328-.53,1.521,1.521,0,0,0-1.48.312l-2.1,1.584A11.6,11.6,0,0,1,5.047,8.4L6.585,6.361a1.509,1.509,0,0,0,.371-1.529A10.614,10.614,0,0,1,6.424,1.5,1.5,1.5,0,0,0,4.926,0H1.5A1.5,1.5,0,0,0,0,1.5,17.188,17.188,0,0,0,17.169,18.667a1.5,1.5,0,0,0,1.5-1.5V13.75A1.5,1.5,0,0,0,17.169,12.253Z" fill="#457b9d"/>
  </g>
</svg>
