<svg xmlns="http://www.w3.org/2000/svg" width="26" height="26" viewBox="0 0 26 26">
  <rect id="Rectangle_134" data-name="Rectangle 134" width="26" height="26" rx="6" fill="#be63f9"/>
  <g id="bank" transform="translate(0.25 0.25)">
    <path id="Path_1086" data-name="Path 1086" d="M4.991,9.815H20.842a.241.241,0,0,0,.121-.45L13.037,4.782a.241.241,0,0,0-.241,0L4.87,9.365a.241.241,0,0,0,.121.45Zm7.925-4.546,7.026,4.063H5.89Z" transform="translate(0 0)" fill="#fff" stroke="#fff" stroke-width="0.2"/>
    <path id="Path_1087" data-name="Path 1087" d="M58.657,17.018v-.584a1.016,1.016,0,0,1,.441.233l.211-.285a1.154,1.154,0,0,0-.652-.289V15.9h-.282v.189a.663.663,0,0,0-.64.64c0,.366.258.5.64.6v.605a1.063,1.063,0,0,1-.5-.267l-.224.276a1.272,1.272,0,0,0,.723.332v.208h.282v-.2c.45-.031.708-.292.708-.649,0-.379-.283-.525-.708-.621Zm-.282-.074c-.168-.059-.248-.124-.248-.248a.293.293,0,0,1,.248-.267Zm.282,1.012V17.4c.221.065.32.13.32.273S58.868,17.931,58.657,17.956Z" transform="translate(-45.611 -9.614)" fill="#fff" stroke="#fff" stroke-width="0.2"/>
    <path id="Path_1088" data-name="Path 1088" d="M20.842,110.75H4.991a.241.241,0,0,0-.241.241v1.24a.241.241,0,0,0,.241.241H20.842a.241.241,0,0,0,.241-.241v-1.24a.241.241,0,0,0-.241-.241Zm-.241,1.241H5.232v-.758H20.6Z" transform="translate(0 -91.39)" fill="#fff" stroke="#fff" stroke-width="0.2"/>
    <path id="Path_1089" data-name="Path 1089" d="M18.8,45.736v-.62a.241.241,0,0,0-.241-.241H16.491a.241.241,0,0,0-.241.241v.62a.449.449,0,0,0,.413.447v6a.449.449,0,0,0-.413.447v.62a.241.241,0,0,0,.241.241h2.067a.241.241,0,0,0,.241-.241v-.62a.449.449,0,0,0-.413-.447v-6A.449.449,0,0,0,18.8,45.736Zm-.482-.033a.449.449,0,0,0-.413.447v6.065a.449.449,0,0,0,.413.447v.346H16.732v-.346a.449.449,0,0,0,.413-.447V46.15a.449.449,0,0,0-.413-.447v-.346h1.585Z" transform="translate(-9.915 -34.595)" fill="#fff" stroke="#fff" stroke-width="0.2"/>
    <path id="Path_1090" data-name="Path 1090" d="M44.467,45.736v-.62a.241.241,0,0,0-.241-.241H42.158a.241.241,0,0,0-.241.241v.62a.449.449,0,0,0,.413.447v6a.449.449,0,0,0-.413.447v.62a.241.241,0,0,0,.241.241h2.067a.241.241,0,0,0,.241-.241v-.62a.449.449,0,0,0-.413-.447v-6A.449.449,0,0,0,44.467,45.736Zm-.482-.033a.449.449,0,0,0-.414.447v6.065a.449.449,0,0,0,.414.447v.346H42.4v-.346a.449.449,0,0,0,.413-.447V46.15A.449.449,0,0,0,42.4,45.7v-.346h1.585Z" transform="translate(-32.044 -34.595)" fill="#fff" stroke="#fff" stroke-width="0.2"/>
    <path id="Path_1091" data-name="Path 1091" d="M70.133,45.736v-.62a.241.241,0,0,0-.241-.241H67.824a.241.241,0,0,0-.241.241v.62a.449.449,0,0,0,.414.447v6a.449.449,0,0,0-.414.447v.62a.241.241,0,0,0,.241.241h2.067a.241.241,0,0,0,.241-.241v-.62a.449.449,0,0,0-.413-.447v-6A.449.449,0,0,0,70.133,45.736ZM69.65,45.7a.449.449,0,0,0-.413.447v6.065a.449.449,0,0,0,.413.447v.346H68.065v-.346a.449.449,0,0,0,.413-.447V46.15a.449.449,0,0,0-.413-.447v-.346H69.65Z" transform="translate(-54.173 -34.595)" fill="#fff" stroke="#fff" stroke-width="0.2"/>
    <path id="Path_1092" data-name="Path 1092" d="M95.8,45.736v-.62a.241.241,0,0,0-.241-.241H93.491a.241.241,0,0,0-.241.241v.62a.449.449,0,0,0,.413.447v6a.449.449,0,0,0-.413.447v.62a.241.241,0,0,0,.241.241h2.067a.241.241,0,0,0,.241-.241v-.62a.449.449,0,0,0-.413-.447v-6A.449.449,0,0,0,95.8,45.736Zm-.482-.033a.449.449,0,0,0-.413.447v6.065a.449.449,0,0,0,.413.447v.346H93.732v-.346a.449.449,0,0,0,.413-.447V46.15a.449.449,0,0,0-.413-.447v-.346h1.585Z" transform="translate(-76.302 -34.595)" fill="#fff" stroke="#fff" stroke-width="0.2"/>
    <path id="Path_1093" data-name="Path 1093" d="M81.874,22.852,79.78,21.641a.241.241,0,0,0-.241.418l2.094,1.211a.241.241,0,0,0,.241-.418Z" transform="translate(-64.377 -14.535)" fill="#fff" stroke="#fff" stroke-width="0.2"/>
  </g>
</svg>
