<svg xmlns="http://www.w3.org/2000/svg" width="26" height="26" viewBox="0 0 26 26">
  <rect id="Rectangle_136" data-name="Rectangle 136" width="26" height="26" rx="6" fill="#b3ddc4"/>
  <path id="layers" d="M16.154,9.07,13.585,7.5l2.57-1.566a.846.846,0,0,0,0-1.363L8.779.08a.526.526,0,0,0-.559,0L.844,4.575a.846.846,0,0,0,0,1.363L3.414,7.5.844,9.07a.846.846,0,0,0,0,1.363L3.414,12,.844,13.566a.846.846,0,0,0,0,1.363l7.376,4.5a.526.526,0,0,0,.559,0l7.376-4.5a.846.846,0,0,0,0-1.363L13.585,12l2.57-1.566a.846.846,0,0,0,0-1.363ZM8.5,1.613l5.978,3.643L8.5,8.9,2.521,5.257Zm5.978,12.634L8.5,17.89,2.521,14.247l2.29-1.4L8.22,14.928a.526.526,0,0,0,.559,0l3.408-2.077ZM8.5,13.4,2.521,9.752l2.29-1.4L8.22,10.433a.526.526,0,0,0,.559,0l3.408-2.077,2.29,1.4Zm0,0" transform="translate(4.501 3.996)" fill="#fff"/>
</svg>
