<svg xmlns="http://www.w3.org/2000/svg" width="26" height="26" viewBox="0 0 26 26">
  <rect id="Rectangle_132" data-name="Rectangle 132" width="26" height="26" rx="6" fill="#1a3665"/>
  <g id="_05-support" data-name="05-support" transform="translate(1 0.03)">
    <g id="linear_color" data-name="linear color" transform="translate(4 4.436)">
      <path id="Path_1077" data-name="Path 1077" d="M17.5,309.593c-.131-.066-1.305-.622-2,.073-.024.024-.048.049-.071.074a1.472,1.472,0,0,0-1.481.263,6.927,6.927,0,0,0-1,1.452l-.711.142-1.9-1.27h1.305a1.8,1.8,0,0,0,1.705-.991,2.3,2.3,0,0,0,.235-.95.388.388,0,0,0-.388-.388h-8.8a.388.388,0,0,0,0,.776h8.34a1.375,1.375,0,0,1-.1.234,1.023,1.023,0,0,1-1,.542H9.045a.389.389,0,0,0-.215.711l3.1,2.07a.388.388,0,0,0,.291.058l2.587-.517a.388.388,0,0,0,.271-.207,7.334,7.334,0,0,1,.962-1.451.815.815,0,0,1,.737-.061L15.5,312.712l-3.877.969-4.567-1.015a.39.39,0,0,0-.084-.009H4.388a.388.388,0,0,0,0,.776H6.933l4.615,1.026a.388.388,0,0,0,.178,0l4.139-1.035a.388.388,0,0,0,.253-.2l1.552-3.1a.388.388,0,0,0-.174-.521Zm-3.019,1.555-.517.1a4.357,4.357,0,0,1,.532-.7.527.527,0,0,1,.4-.115C14.717,310.716,14.567,310.982,14.478,311.148Z" transform="translate(-4 -298.183)" fill="#fff"/>
      <path id="Path_1078" data-name="Path 1078" d="M126.773,9.767l.506.063.128.308-.314.4a.388.388,0,0,0,.032.513l1.069,1.069a.388.388,0,0,0,.513.032l.4-.314.308.128.063.506a.388.388,0,0,0,.385.34h1.512a.388.388,0,0,0,.385-.34l.063-.506.308-.128.4.314a.388.388,0,0,0,.513-.032l1.069-1.069a.388.388,0,0,0,.032-.513l-.314-.4.128-.308.506-.063a.388.388,0,0,0,.34-.385V7.87a.388.388,0,0,0-.34-.385l-.506-.063-.128-.308.314-.4a.388.388,0,0,0-.032-.513l-1.07-1.069a.388.388,0,0,0-.513-.032l-.4.314-.308-.128-.063-.506a.388.388,0,0,0-.385-.34h-1.512a.388.388,0,0,0-.385.34l-.063.506-.308.128-.4-.314a.388.388,0,0,0-.513.032L127.125,6.2a.388.388,0,0,0-.032.513l.314.4-.128.308-.506.063a.388.388,0,0,0-.34.385V9.382a.388.388,0,0,0,.341.385Zm.436-1.555.39-.048a.388.388,0,0,0,.311-.237l.3-.726a.388.388,0,0,0-.052-.387l-.242-.31.584-.584.31.242a.388.388,0,0,0,.387.052l.726-.3a.388.388,0,0,0,.237-.311l.048-.39h.826l.048.39a.388.388,0,0,0,.237.311l.726.3a.388.388,0,0,0,.387-.052l.31-.242.584.584-.242.31a.388.388,0,0,0-.053.387l.3.726a.388.388,0,0,0,.311.237l.39.048v.826l-.39.048a.388.388,0,0,0-.311.237l-.3.726a.388.388,0,0,0,.053.387l.242.31-.584.584-.31-.242a.388.388,0,0,0-.387-.052l-.726.3a.388.388,0,0,0-.237.311l-.048.39h-.826l-.048-.39a.388.388,0,0,0-.237-.311l-.726-.3a.388.388,0,0,0-.387.052l-.31.242-.584-.584.242-.31a.388.388,0,0,0,.053-.387l-.3-.726a.388.388,0,0,0-.311-.237l-.39-.048Z" transform="translate(-122.473 -4.436)" fill="#fff"/>
      <path id="Path_1079" data-name="Path 1079" d="M203.354,83.148a1.758,1.758,0,1,0-1.244-.514A1.758,1.758,0,0,0,203.354,83.148Zm-.695-2.453a.98.98,0,1,1-.289.695A.983.983,0,0,1,202.659,80.695Z" transform="translate(-195.205 -77.2)" fill="#fff"/>
      <path id="Path_1080" data-name="Path 1080" d="M414.313,99.509a.388.388,0,0,0,0,.549.645.645,0,0,1,0,.913.388.388,0,1,0,.549.549,1.421,1.421,0,0,0,0-2.011A.388.388,0,0,0,414.313,99.509Z" transform="translate(-400.934 -96.325)" fill="#fff"/>
      <path id="Path_1081" data-name="Path 1081" d="M448.8,65.6a.388.388,0,1,0-.548.549,2.195,2.195,0,0,1,0,3.106.388.388,0,1,0,.548.549,2.97,2.97,0,0,0,0-4.2Z" transform="translate(-433.777 -63.515)" fill="#fff"/>
      <path id="Path_1082" data-name="Path 1082" d="M65.119,101.63a.388.388,0,0,0,.274-.663.645.645,0,0,1,0-.913.388.388,0,0,0-.549-.549,1.421,1.421,0,0,0,0,2.011A.387.387,0,0,0,65.119,101.63Z" transform="translate(-62.474 -96.321)" fill="#fff"/>
      <path id="Path_1083" data-name="Path 1083" d="M17.574,69.921a.388.388,0,0,0,.274-.663,2.195,2.195,0,0,1,0-3.106A.388.388,0,1,0,17.3,65.6a2.971,2.971,0,0,0,0,4.2A.387.387,0,0,0,17.574,69.921Z" transform="translate(-16.027 -63.515)" fill="#fff"/>
    </g>
  </g>
</svg>
