<svg xmlns="http://www.w3.org/2000/svg" width="26" height="26" viewBox="0 0 26 26">
  <rect id="Rectangle_127" data-name="Rectangle 127" width="26" height="26" rx="6" fill="#349a9a"/>
  <g id="shuttle" transform="translate(6.303 6)">
    <path id="Path_1062" data-name="Path 1062" d="M12.788.956a1,1,0,0,0-.941-.941,9.883,9.883,0,0,0-4.954.992,9.727,9.727,0,0,0-2.84,2.355l-.03.037-1.875.145a.99.99,0,0,0-.754.444L.114,5.922A.686.686,0,0,0,.581,6.978l1.58.245c-.006.031-.011.061-.016.092a1,1,0,0,0,.279.865l2.2,2.2a1,1,0,0,0,.7.292.98.98,0,0,0,.161-.013l.092-.016.245,1.58a.685.685,0,0,0,1.056.467L8.816,11.41a.99.99,0,0,0,.444-.754L9.4,8.781l.037-.03A9.726,9.726,0,0,0,11.8,5.91,9.884,9.884,0,0,0,12.788.956ZM8.4,10.784,6.551,12.008l-.238-1.539A8.4,8.4,0,0,0,8.606,9.377L8.511,10.6a.244.244,0,0,1-.11.186ZM5.154,9.849l-2.2-2.2a.243.243,0,0,1-.069-.211,6.453,6.453,0,0,1,.293-1.114l3.3,3.3a6.48,6.48,0,0,1-1.114.294A.243.243,0,0,1,5.154,9.849ZM2.2,4.291,3.426,4.2A8.4,8.4,0,0,0,2.335,6.49L.8,6.252,2.019,4.4A.244.244,0,0,1,2.2,4.291ZM8.96,8.175A8.6,8.6,0,0,1,7.224,9.31L3.493,5.579A8.749,8.749,0,0,1,4.628,3.843,8.952,8.952,0,0,1,7.237,1.673,9.124,9.124,0,0,1,11.806.764.246.246,0,0,1,12.039,1a9.123,9.123,0,0,1-.909,4.569A8.952,8.952,0,0,1,8.96,8.175Z" transform="translate(0 0)" fill="#fff"/>
    <path id="Path_1063" data-name="Path 1063" d="M277.6,90.068a1.874,1.874,0,1,0-1.326-.548A1.87,1.87,0,0,0,277.6,90.068Zm-.8-2.67a1.125,1.125,0,1,1-.33.8A1.122,1.122,0,0,1,276.8,87.4Z" transform="translate(-268.828 -84.16)" fill="#fff"/>
    <path id="Path_1064" data-name="Path 1064" d="M.677,344.939a.374.374,0,0,0,.265-.11L2.166,343.6a.375.375,0,0,0-.53-.53L.411,344.3a.375.375,0,0,0,.265.64Z" transform="translate(-0.294 -334.388)" fill="#fff"/>
    <path id="Path_1065" data-name="Path 1065" d="M3,387.955a.375.375,0,0,0-.53,0L.11,390.31a.375.375,0,0,0,.53.53L3,388.486A.375.375,0,0,0,3,387.955Z" transform="translate(0 -378.147)" fill="#fff"/>
    <path id="Path_1066" data-name="Path 1066" d="M91.4,432.836l-1.225,1.225a.375.375,0,1,0,.53.53l1.225-1.225a.375.375,0,1,0-.53-.53Z" transform="translate(-87.81 -421.906)" fill="#fff"/>
  </g>
</svg>
