<svg id="Group_3284" data-name="Group 3284" xmlns="http://www.w3.org/2000/svg" width="13.059" height="10.757" viewBox="0 0 13.059 10.757">
  <g id="Group_3279" data-name="Group 3279">
    <path id="Path_5327" data-name="Path 5327" d="M285.044,728.057a5.372,5.372,0,0,1-1.319.377c.213-.036.526-.42.651-.576a2.427,2.427,0,0,0,.44-.8c.011-.023.02-.051,0-.069a.075.075,0,0,0-.07.006,6.747,6.747,0,0,1-1.567.6.1.1,0,0,1-.108-.029,1.325,1.325,0,0,0-.137-.14,2.762,2.762,0,0,0-.759-.465,2.644,2.644,0,0,0-1.164-.188,2.785,2.785,0,0,0-1.1.312,2.849,2.849,0,0,0-.891.728,2.739,2.739,0,0,0-.532,1.066,2.891,2.891,0,0,0-.028,1.125c.009.063,0,.072-.054.063a8.369,8.369,0,0,1-5.384-2.741c-.063-.072-.1-.072-.149.005a2.731,2.731,0,0,0,.466,3.226c.105.1.214.2.331.291a2.75,2.75,0,0,1-1.039-.291c-.063-.039-.095-.017-.1.054a1.639,1.639,0,0,0,.017.309,2.761,2.761,0,0,0,1.7,2.2,1.582,1.582,0,0,0,.345.106,3.076,3.076,0,0,1-1.019.032c-.074-.014-.1.023-.074.094a2.867,2.867,0,0,0,2.141,1.793c.1.017.194.017.292.039-.006.009-.012.009-.017.017a3.391,3.391,0,0,1-1.463.775,5.236,5.236,0,0,1-2.22.284c-.12-.018-.145-.016-.177,0s0,.049.034.08c.151.1.305.188.463.274a7.328,7.328,0,0,0,1.484.594,7.907,7.907,0,0,0,7.676-1.795,8.055,8.055,0,0,0,2.124-5.876c0-.084.1-.131.159-.176a5.172,5.172,0,0,0,1.04-1.086.316.316,0,0,0,.065-.208v-.011C285.093,728.023,285.1,728.033,285.044,728.057Z" transform="translate(-272.033 -726.768)" fill="#1d3557"/>
  </g>
  <g id="Group_3280" data-name="Group 3280" transform="translate(3.878 10.71)">
    <path id="Path_5328" data-name="Path 5328" d="M281.951,754.157Z" transform="translate(-281.951 -754.157)" fill="#1d3557" fill-rule="evenodd"/>
  </g>
  <g id="Group_3281" data-name="Group 3281" transform="translate(3.779 10.71)">
    <path id="Path_5329" data-name="Path 5329" d="M281.8,754.157c-.017,0-.215,0,0,0Z" transform="translate(-281.696 -754.157)" fill="#1d3557" fill-rule="evenodd"/>
  </g>
  <g id="Group_3282" data-name="Group 3282" transform="translate(4.318 10.712)">
    <path id="Path_5330" data-name="Path 5330" d="M283.076,754.171c0-.022.231,0,0,0C283.076,754.159,283.1,754.171,283.076,754.171Z" transform="translate(-283.076 -754.161)" fill="#1d3557" fill-rule="evenodd"/>
  </g>
  <g id="Group_3283" data-name="Group 3283" transform="translate(8.883 0.016)">
    <path id="Path_5331" data-name="Path 5331" d="M294.8,726.809a.047.047,0,0,1-.054,0Z" transform="translate(-294.749 -726.809)" fill="#1d3557" fill-rule="evenodd"/>
  </g>
</svg>
