<svg xmlns="http://www.w3.org/2000/svg" width="60" height="60" viewBox="0 0 60 60">
  <g id="Group_3323" data-name="Group 3323" transform="translate(-1631 -1643)">
    <g id="play_1_" data-name="play (1)" transform="translate(1593.48 1662.696)">
      <g id="Group_3312" data-name="Group 3312" transform="translate(61.52)">
        <path id="Path_5338" data-name="Path 5338" d="M76.341,8.674,64.507.573A2.889,2.889,0,0,0,62.952,0c-.885,0-1.432.71-1.432,1.9V19.408c0,1.187.547,1.9,1.429,1.9A2.865,2.865,0,0,0,64.5,20.73l11.839-8.1a2.429,2.429,0,0,0,1.183-1.978A2.421,2.421,0,0,0,76.341,8.674Z" transform="translate(-61.52)" fill="#a8dadc"/>
      </g>
    </g>
    <g id="Ellipse_221" data-name="Ellipse 221" transform="translate(1631 1643)" fill="none" stroke="#fff" stroke-width="1">
      <circle cx="30" cy="30" r="30" stroke="none"/>
      <circle cx="30" cy="30" r="29.5" fill="none"/>
    </g>
  </g>
</svg>
