<svg id="Group_2672" data-name="Group 2672" xmlns="http://www.w3.org/2000/svg" xmlns:xlink="http://www.w3.org/1999/xlink" width="111.001" height="111" viewBox="0 0 111.001 111">
  <defs>
    <radialGradient id="radial-gradient" cx="0.5" cy="0.5" r="0.5" gradientUnits="objectBoundingBox">
      <stop offset="0" stop-color="#a8dadc"/>
      <stop offset="0.46" stop-color="#a8dadc" stop-opacity="0.741"/>
      <stop offset="1" stop-color="#a8dadc" stop-opacity="0"/>
    </radialGradient>
  </defs>
  <path id="Path_1108" data-name="Path 1108" d="M137.234,80.8c0,.448-.011.905-.011,1.354a56.706,56.706,0,0,1-.876,8.6A55.517,55.517,0,0,1,30.884,103.07a54.63,54.63,0,0,1-4.121-14.61A55.5,55.5,0,1,1,137.234,80.8Z" transform="translate(-26.233 -25.302)" fill-rule="evenodd" fill="url(#radial-gradient)"/>
  <path id="Path_1106" data-name="Path 1106" d="M89.982,57.173c0,.257-.006.52-.006.778a32.566,32.566,0,0,1-.5,4.938A31.884,31.884,0,0,1,28.9,69.965a31.374,31.374,0,0,1-2.367-8.391,31.875,31.875,0,1,1,63.444-4.4Z" transform="translate(-2.148 -1.217)" fill="#a8dadc" fill-rule="evenodd"/>
  <g id="Group_2671" data-name="Group 2671" transform="translate(19.896 19.896)">
    <path id="Path_1107" data-name="Path 1107" d="M55.366,90.765h0c-.592,0-1.195-.021-1.792-.053a.439.439,0,0,1-.414-.46.445.445,0,0,1,.462-.414c.582.031,1.172.048,1.749.051a.438.438,0,0,1,0,.876ZM50.51,90.41c-.021,0-.043,0-.063,0A36.048,36.048,0,0,1,45.2,89.254a.438.438,0,1,1,.251-.839,35.05,35.05,0,0,0,5.125,1.123.438.438,0,0,1-.061.872ZM60.665,90.4a.437.437,0,0,1-.062-.871c1.008-.144,2.022-.334,3.01-.564a.438.438,0,1,1,.2.852c-1.013.236-2.051.431-3.085.579A.511.511,0,0,1,60.665,90.4Zm4.762-1.016a.438.438,0,0,1-.121-.859,35.061,35.061,0,0,0,4.921-1.82.438.438,0,1,1,.364.8,35.858,35.858,0,0,1-5.043,1.865A.432.432,0,0,1,65.427,89.387Zm-21.791-.664a.462.462,0,0,1-.146-.026c-.981-.349-1.96-.744-2.911-1.177a.438.438,0,0,1,.364-.8c.927.424,1.882.81,2.84,1.15a.438.438,0,0,1-.147.85Zm29.533-2.591a.438.438,0,0,1-.217-.818c.506-.288,1.01-.592,1.5-.9a.438.438,0,1,1,.47.738c-.5.318-1.016.629-1.536.924A.426.426,0,0,1,73.169,86.132ZM36.1,85a.441.441,0,0,1-.239-.071c-.5-.324-1-.668-1.479-1.018A.438.438,0,1,1,34.9,83.2c.472.342.958.676,1.444.993a.438.438,0,0,1-.24.8Zm-3.89-2.933a.434.434,0,0,1-.287-.107,36.613,36.613,0,0,1-3.793-3.81.438.438,0,1,1,.664-.57,35.9,35.9,0,0,0,3.7,3.719.437.437,0,0,1-.286.768Zm46.73-.017a.438.438,0,0,1-.287-.769c.768-.664,1.517-1.373,2.225-2.1a.438.438,0,1,1,.629.611c-.726.748-1.493,1.474-2.28,2.156A.434.434,0,0,1,78.944,82.046ZM82.4,78.613a.438.438,0,0,1-.329-.727A35.433,35.433,0,0,0,85.23,73.7a.438.438,0,0,1,.736.474,36.272,36.272,0,0,1-3.239,4.293A.439.439,0,0,1,82.4,78.613Zm-55.05-1.688A.435.435,0,0,1,27,76.756c-.639-.824-1.249-1.687-1.814-2.561a.438.438,0,1,1,.736-.474c.55.854,1.145,1.695,1.77,2.5a.438.438,0,0,1-.346.706Zm59.814-5.232a.46.46,0,0,1-.2-.05.438.438,0,0,1-.183-.592c.271-.513.533-1.041.778-1.57a.438.438,0,0,1,.794.369c-.252.541-.52,1.084-.8,1.611A.437.437,0,0,1,87.161,71.693Zm-64.144-1.96a.439.439,0,0,1-.4-.257c-.245-.543-.479-1.1-.7-1.65a.438.438,0,0,1,.816-.32c.212.539.439,1.081.679,1.61a.437.437,0,0,1-.22.579A.426.426,0,0,1,23.018,69.733ZM21.327,65.17a.439.439,0,0,1-.42-.314A36.125,36.125,0,0,1,19.779,59.6a.437.437,0,1,1,.867-.118,35.294,35.294,0,0,0,1.1,5.129.437.437,0,0,1-.42.562Zm68.5-.042a.467.467,0,0,1-.123-.016.44.44,0,0,1-.3-.544c.286-.974.532-1.975.733-2.973a.438.438,0,0,1,.858.172c-.2,1.023-.457,2.049-.75,3.047A.438.438,0,0,1,89.823,65.128Zm1.046-4.755a.567.567,0,0,1-.065,0,.439.439,0,0,1-.37-.5,35.544,35.544,0,0,0,.386-5.233v-.084a.438.438,0,1,1,.876,0v.08A36.642,36.642,0,0,1,91.3,60,.44.44,0,0,1,90.869,60.373ZM20.015,58.216a.437.437,0,0,1-.435-.4c-.09-1.036-.137-2.092-.138-3.135a.438.438,0,0,1,.438-.438h0a.439.439,0,0,1,.438.437c0,1.02.046,2.049.134,3.06a.437.437,0,0,1-.4.473Zm71.1-6.322a.438.438,0,0,1-.437-.4c-.051-.578-.116-1.163-.2-1.74a.438.438,0,0,1,.868-.119c.082.59.15,1.189.2,1.781a.44.44,0,0,1-.4.476ZM20.264,49.821a.472.472,0,0,1-.065-.005.439.439,0,0,1-.369-.5c.086-.587.19-1.181.306-1.766a.438.438,0,0,1,.859.17c-.113.571-.214,1.151-.3,1.725A.437.437,0,0,1,20.264,49.821ZM21.3,45.064a.44.44,0,0,1-.421-.561,36.134,36.134,0,0,1,1.89-5.036.438.438,0,0,1,.795.368,35.214,35.214,0,0,0-1.844,4.914A.438.438,0,0,1,21.3,45.064Zm68.5-.123a.438.438,0,0,1-.42-.315c-.289-.973-.624-1.948-1-2.895a.438.438,0,1,1,.815-.321c.383.97.725,1.969,1.021,2.967a.439.439,0,0,1-.3.545A.475.475,0,0,1,89.8,44.941Zm-1.7-4.562a.437.437,0,0,1-.4-.256,35.434,35.434,0,0,0-2.511-4.6.438.438,0,0,1,.735-.476A36.17,36.17,0,0,1,88.5,39.762a.437.437,0,0,1-.219.579A.427.427,0,0,1,88.1,40.379ZM23.955,38.5a.438.438,0,0,1-.387-.642c.485-.922,1.016-1.835,1.581-2.712a.437.437,0,1,1,.736.472c-.549.856-1.069,1.747-1.541,2.647A.439.439,0,0,1,23.955,38.5Zm59.809-5.3a.436.436,0,0,1-.346-.17c-.354-.455-.726-.912-1.107-1.355a.438.438,0,1,1,.664-.571c.39.454.772.922,1.134,1.388a.438.438,0,0,1-.345.707ZM28.712,31.57a.431.431,0,0,1-.288-.108.439.439,0,0,1-.041-.619c.393-.448.8-.892,1.215-1.32a.438.438,0,1,1,.63.609c-.4.417-.8.851-1.186,1.289A.437.437,0,0,1,28.712,31.57Zm3.451-3.438a.438.438,0,0,1-.287-.768,36.516,36.516,0,0,1,4.307-3.217.438.438,0,0,1,.471.74,35.517,35.517,0,0,0-4.2,3.139A.435.435,0,0,1,32.162,28.132Zm46.729-.072a.437.437,0,0,1-.286-.107c-.77-.666-1.578-1.306-2.4-1.9a.438.438,0,1,1,.514-.71c.844.611,1.672,1.266,2.461,1.948a.438.438,0,0,1-.286.77ZM75,25.132a.432.432,0,0,1-.238-.07,35.378,35.378,0,0,0-4.6-2.526.437.437,0,1,1,.363-.8,36.011,36.011,0,0,1,4.715,2.587.437.437,0,0,1-.239.8ZM37.934,24.041a.438.438,0,0,1-.217-.818c.906-.517,1.846-1,2.792-1.434a.438.438,0,0,1,.366.8c-.923.425-1.839.894-2.724,1.4A.434.434,0,0,1,37.934,24.041Zm29.528-2.625a.471.471,0,0,1-.145-.024c-.55-.195-1.11-.376-1.664-.542a.438.438,0,0,1,.249-.84c.568.17,1.142.357,1.707.556a.438.438,0,0,1-.147.851ZM45.67,20.776a.437.437,0,0,1-.121-.858c.57-.164,1.154-.317,1.735-.452a.438.438,0,1,1,.2.852c-.567.133-1.138.282-1.693.442A.458.458,0,0,1,45.67,20.776Zm4.76-1.023a.438.438,0,0,1-.062-.871,36.622,36.622,0,0,1,5.2-.372h.165a.438.438,0,0,1,0,.877h-.162a35.717,35.717,0,0,0-5.075.363A.355.355,0,0,1,50.431,19.753Zm10.157-.017c-.021,0-.042,0-.063,0-1-.143-2.028-.241-3.047-.295a.438.438,0,0,1,.046-.876c1.045.056,2.1.157,3.123.3a.438.438,0,0,1-.059.871Z" transform="translate(-19.441 -18.51)" fill="#a8dadc" stroke="#a8dadc" stroke-width="1"/>
  </g>
</svg>
