<svg xmlns="http://www.w3.org/2000/svg" xmlns:xlink="http://www.w3.org/1999/xlink" width="74.838" height="129.667" viewBox="0 0 74.838 129.667">
  <defs>
    <radialGradient id="radial-gradient" cx="0.5" cy="0.5" r="0.5" gradientUnits="objectBoundingBox">
      <stop offset="0" stop-color="#8f993d"/>
      <stop offset="0.379" stop-color="#8f993d" stop-opacity="0.69"/>
      <stop offset="1" stop-color="#8f993d" stop-opacity="0"/>
    </radialGradient>
  </defs>
  <g id="Group_2681" data-name="Group 2681" transform="translate(-1066.12 -424.333)">
    <circle id="Ellipse_158" data-name="Ellipse 158" cx="20.5" cy="20.5" r="20.5" transform="translate(1083 513)" fill="url(#radial-gradient)"/>
    <g id="Ellipse_159" data-name="Ellipse 159" transform="translate(1092 522)" fill="#8f993d" stroke="#fff" stroke-width="2">
      <circle cx="11.5" cy="11.5" r="11.5" stroke="none"/>
      <circle cx="11.5" cy="11.5" r="10.5" fill="none"/>
    </g>
  </g>
  <g id="Group_2680" data-name="Group 2680" transform="translate(-1138.12 -382.333)">
    <g id="Group_2594" data-name="Group 2594" transform="translate(1138.12 382.333)">
      <path id="Path_1096" data-name="Path 1096" d="M217.865,67.923c-.386,0-.774,0-1.161,0-28.55.042-46.4,30.893-32.129,55.617l31.779,55.042c.205,0,.41.007.617.007s.414-.005.619-.007l31.781-55.046c14.136-24.486-3.234-55.366-31.507-55.61m-.893,56.63a18.845,18.845,0,1,1,18.351-18.839,18.6,18.6,0,0,1-18.351,18.839" transform="translate(-179.553 -67.919)" fill="#8f993d"/>
      <ellipse id="Ellipse_156" data-name="Ellipse 156" cx="23.5" cy="26.5" rx="23.5" ry="26.5" transform="translate(14.88 11.667)" fill="#8f993d"/>
    </g>
    <path id="coworking" d="M40.784,18.322V14.374A14.343,14.343,0,0,0,26.5,0H17.887A14.329,14.329,0,0,0,3.637,14.374v3.948L.1,26.865a1.3,1.3,0,0,0,1.2,1.8H5.283v6.494a1.3,1.3,0,0,0,1.3,1.3h3.9v6.581a1.3,1.3,0,0,0,1.3,1.3H32.644a1.3,1.3,0,0,0,1.3-1.3V36.454h3.9a1.3,1.3,0,0,0,1.3-1.3V28.661h3.983a1.3,1.3,0,0,0,1.2-1.8ZM20.87,31.451h0c0,.023,0,.045,0,.068V41.736H13.075V35.155a1.3,1.3,0,0,0-1.3-1.3H7.88V27.362a1.3,1.3,0,0,0-1.3-1.3H3.243l2.893-6.986a1.3,1.3,0,0,0,.1-.5V14.374A11.728,11.728,0,0,1,17.887,2.6h2.981v8.044a5.2,5.2,0,1,0,0,10.062v5.1a1.3,1.3,0,0,0,2.183.952,2.589,2.589,0,0,1,1.768-.694,2.6,2.6,0,1,1,0,5.2,2.59,2.59,0,0,1-1.766-.693,1.3,1.3,0,0,0-2.182.885Zm16.97-5.387a1.3,1.3,0,0,0-1.3,1.3v6.494h-3.9a1.3,1.3,0,0,0-1.3,1.3v6.581H23.466V33.678a5.2,5.2,0,1,0,0-10.034V18.577a1.3,1.3,0,0,0-2.165-.968,2.6,2.6,0,1,1,0-3.873,1.3,1.3,0,0,0,2.165-.968V2.6H26.5A11.746,11.746,0,0,1,38.191,14.374V18.58a1.3,1.3,0,0,0,.1.5l2.889,6.987Zm0,0" transform="translate(1154.999 396)" fill="#fff"/>
  </g>
</svg>
