<svg xmlns="http://www.w3.org/2000/svg" width="74.838" height="110.667" viewBox="0 0 74.838 110.667">
  <g id="Group_3344" data-name="Group 3344" transform="translate(-1138.12 -382.333)">
    <g id="Group_2594" data-name="Group 2594" transform="translate(1138.12 382.333)">
      <path id="Path_1096" data-name="Path 1096" d="M217.865,67.923c-.386,0-.774,0-1.161,0-28.55.042-46.4,30.893-32.129,55.617l31.779,55.042c.205,0,.41.007.617.007s.414-.005.619-.007l31.781-55.046c14.136-24.486-3.234-55.366-31.507-55.61m-.893,56.63a18.845,18.845,0,1,1,18.351-18.839,18.6,18.6,0,0,1-18.351,18.839" transform="translate(-179.553 -67.919)" fill="#457b9d"/>
      <ellipse id="Ellipse_156" data-name="Ellipse 156" cx="23.5" cy="26.5" rx="23.5" ry="26.5" transform="translate(14.88 11.667)" fill="#457b9d"/>
    </g>
    <path id="portfolio" d="M35.172,4.246H25.543V3.184A3.188,3.188,0,0,0,22.359,0H13.868a3.188,3.188,0,0,0-3.184,3.184V4.245H1.062A1.064,1.064,0,0,0,0,5.307V28.656A3.188,3.188,0,0,0,3.184,31.84H33.043a3.188,3.188,0,0,0,3.184-3.184V5.325a1.03,1.03,0,0,0-1.055-1.079ZM12.807,3.184a1.063,1.063,0,0,1,1.061-1.061h8.491A1.063,1.063,0,0,1,23.42,3.184V4.245H12.807ZM33.693,6.368l-3.3,9.887a1.06,1.06,0,0,1-1.007.726H23.42V15.92a1.061,1.061,0,0,0-1.061-1.061H13.868a1.061,1.061,0,0,0-1.061,1.061v1.061H6.837a1.06,1.06,0,0,1-1.007-.726l-3.3-9.887ZM21.3,16.981V19.1H14.93V16.981ZM34.1,28.656a1.063,1.063,0,0,1-1.061,1.061H3.184a1.063,1.063,0,0,1-1.061-1.061V11.847l1.693,5.08A3.179,3.179,0,0,0,6.837,19.1h5.97v1.061a1.061,1.061,0,0,0,1.061,1.061h8.491a1.061,1.061,0,0,0,1.061-1.061V19.1h5.97a3.179,3.179,0,0,0,3.02-2.177l1.693-5.08Zm0,0" transform="translate(1157.425 401)" fill="#fff"/>
  </g>
</svg>
