<svg xmlns="http://www.w3.org/2000/svg" width="74.838" height="110.667" viewBox="0 0 74.838 110.667">
  <g id="Group_3340" data-name="Group 3340" transform="translate(-1138.12 -382.333)">
    <g id="Group_2594" data-name="Group 2594" transform="translate(1138.12 382.333)">
      <path id="Path_1096" data-name="Path 1096" d="M217.865,67.923c-.386,0-.774,0-1.161,0-28.55.042-46.4,30.893-32.129,55.617l31.779,55.042c.205,0,.41.007.617.007s.414-.005.619-.007l31.781-55.046c14.136-24.486-3.234-55.366-31.507-55.61m-.893,56.63a18.845,18.845,0,1,1,18.351-18.839,18.6,18.6,0,0,1-18.351,18.839" transform="translate(-179.553 -67.919)" fill="#f16768"/>
      <ellipse id="Ellipse_156" data-name="Ellipse 156" cx="23.5" cy="26.5" rx="23.5" ry="26.5" transform="translate(14.88 11.667)" fill="#f16768"/>
    </g>
    <g id="tools" transform="translate(1156.835 398.021)">
      <path id="Path_1067" data-name="Path 1067" d="M338.051,155.148a.711.711,0,1,0,.711.711A.711.711,0,0,0,338.051,155.148Zm0,0" transform="translate(-312.886 -144.116)" fill="#fff" stroke="#fff" stroke-width="0.3"/>
      <path id="Path_1068" data-name="Path 1068" d="M156.356,336.84a.711.711,0,1,0,.711.711A.711.711,0,0,0,156.356,336.84Zm0,0" transform="translate(-144.112 -312.887)" fill="#fff" stroke="#fff" stroke-width="0.3"/>
      <path id="Path_1069" data-name="Path 1069" d="M36.025,4.374a.711.711,0,0,0-.666.192L32.411,7.537H31L29.442,5.925V4.492l2.906-2.949A.711.711,0,0,0,32.069.37a7.117,7.117,0,0,0-9.141,8.583l-5.238,5.238L8.962,5.444V3.728a.711.711,0,0,0-.345-.61L3.589.1A.711.711,0,0,0,2.72.208L.709,2.218A.712.712,0,0,0,.6,3.087L3.619,8.116a.711.711,0,0,0,.609.345H5.944l8.728,8.747L9.454,22.427A7.116,7.116,0,0,0,.871,31.568a.711.711,0,0,0,1.179.274L5,28.871H6.418L8.038,30.49v1.421L5.066,34.859a.711.711,0,0,0,.274,1.179,7.113,7.113,0,0,0,8.042-2.591,7.032,7.032,0,0,0,1.1-5.992l4.191-4.191.96,1.043-.441.44A.711.711,0,1,0,20.2,25.753l.4-.4L29.6,35.138l.021.021a4.267,4.267,0,0,0,6.035-6.035l-.022-.021-9.8-8.99.394-.394a.711.711,0,1,0-1.006-1.006l-.438.438-1.045-.959,4.211-4.211A7.115,7.115,0,0,0,36.538,4.84a.71.71,0,0,0-.513-.466ZM6.743,7.248a.7.7,0,0,0-.5-.2H4.631L2.107,2.832,3.333,1.606,7.54,4.13V5.739a.711.711,0,0,0,.208.5L16.683,15.2,15.678,16.2ZM24.831,21.12l9.833,9.021a2.845,2.845,0,0,1-4.024,4.023L21.6,24.347Zm-1.049-.963L20.639,23.3l-.96-1.043L22.738,19.2ZM29.8,12.8a5.683,5.683,0,0,1-1.818-.3.712.712,0,0,0-.73.171L13.175,26.75a.711.711,0,0,0-.171.73,5.695,5.695,0,0,1-5.393,7.506,5.825,5.825,0,0,1-.62-.033L9.25,32.712a.711.711,0,0,0,.21-.5V30.2a.711.711,0,0,0-.208-.5L7.216,27.657a.711.711,0,0,0-.5-.208H4.7a.712.712,0,0,0-.505.21L1.955,29.917a5.753,5.753,0,0,1-.033-.62A5.695,5.695,0,0,1,9.428,23.9a.711.711,0,0,0,.73-.171L24.234,9.658a.711.711,0,0,0,.171-.73A5.694,5.694,0,0,1,29.8,1.421a5.811,5.811,0,0,1,.639.035L28.224,3.7a.711.711,0,0,0-.2.5V6.212a.71.71,0,0,0,.2.494l1.965,2.036a.711.711,0,0,0,.512.217h2.012a.711.711,0,0,0,.5-.21l2.241-2.258a5.753,5.753,0,0,1,.033.62A5.7,5.7,0,0,1,29.8,12.8Zm0,0" transform="translate(0 0)" fill="#fff" stroke="#fff" stroke-width="0.3"/>
      <path id="Path_1070" data-name="Path 1070" d="M193.031,183.634l-8.9,8.9a.711.711,0,1,0,1.006,1.006l8.9-8.9a.711.711,0,1,0-1.006-1.006Zm0,0" transform="translate(-170.381 -170.382)" fill="#fff" stroke="#fff" stroke-width="0.3"/>
      <path id="Path_1071" data-name="Path 1071" d="M351.9,352.676a.711.711,0,1,0,1-1.007l-6.41-6.389a.711.711,0,0,0-1,1.007Zm0,0" transform="translate(-320.261 -320.533)" fill="#fff" stroke="#fff" stroke-width="0.3"/>
    </g>
  </g>
</svg>
