<svg xmlns="http://www.w3.org/2000/svg" xmlns:xlink="http://www.w3.org/1999/xlink" width="74.838" height="129.667" viewBox="0 0 74.838 129.667">
  <defs>
    <radialGradient id="radial-gradient" cx="0.5" cy="0.5" r="0.5" gradientUnits="objectBoundingBox">
      <stop offset="0" stop-color="#de1f26"/>
      <stop offset="0.379" stop-color="#e62825" stop-opacity="0.839"/>
      <stop offset="1" stop-color="#de1f26" stop-opacity="0"/>
    </radialGradient>
  </defs>
  <g id="Group_2683" data-name="Group 2683" transform="translate(-1066.12 -424.333)">
    <circle id="Ellipse_158" data-name="Ellipse 158" cx="20.5" cy="20.5" r="20.5" transform="translate(1083 513)" fill="url(#radial-gradient)"/>
    <g id="Ellipse_159" data-name="Ellipse 159" transform="translate(1092 522)" fill="#de1f26" stroke="#fff" stroke-width="2">
      <circle cx="11.5" cy="11.5" r="11.5" stroke="none"/>
      <circle cx="11.5" cy="11.5" r="10.5" fill="none"/>
    </g>
  </g>
  <g id="Group_2682" data-name="Group 2682" transform="translate(-1138.12 -382.333)">
    <g id="Group_2594" data-name="Group 2594" transform="translate(1138.12 382.333)">
      <path id="Path_1096" data-name="Path 1096" d="M217.865,67.923c-.386,0-.774,0-1.161,0-28.55.042-46.4,30.893-32.129,55.617l31.779,55.042c.205,0,.41.007.617.007s.414-.005.619-.007l31.781-55.046c14.136-24.486-3.234-55.366-31.507-55.61m-.893,56.63a18.845,18.845,0,1,1,18.351-18.839,18.6,18.6,0,0,1-18.351,18.839" transform="translate(-179.553 -67.919)" fill="#de1f26"/>
      <ellipse id="Ellipse_156" data-name="Ellipse 156" cx="23.5" cy="26.5" rx="23.5" ry="26.5" transform="translate(14.88 11.667)" fill="#de1f26"/>
    </g>
    <g id="youtube" transform="translate(1152.001 398)">
      <path id="Path_1084" data-name="Path 1084" d="M204.421,112.562l-10.595-5.8a1.946,1.946,0,0,0-2.88,1.707v11.495a1.943,1.943,0,0,0,2.868,1.714l10.6-5.7a1.946,1.946,0,0,0,.012-3.421Zm-10.665,5.959V109.93l7.919,4.333Zm0,0" transform="translate(-173.061 -96.546)" fill="#fff"/>
      <path id="Path_1085" data-name="Path 1085" d="M47.6,8.573l0-.022c-.041-.386-.445-3.819-2.114-5.566A7.8,7.8,0,0,0,40.319.562L40.081.533,40,.525C33.657.064,24.082,0,23.986,0H23.97C23.874,0,14.3.064,7.9.525L7.817.533,7.592.56a7.607,7.607,0,0,0-5.139,2.5C.864,4.786.4,8.146.357,8.524l-.005.049C.338,8.734,0,12.558,0,16.4v3.589c0,3.839.338,7.663.353,7.824l0,.024c.041.38.445,3.75,2.106,5.5A7.964,7.964,0,0,0,7.8,35.72c.2.022.363.041.477.061l.111.015c3.661.348,15.138.52,15.625.527h.029c.1,0,9.67-.063,16.011-.524l.084-.009c.08-.011.17-.02.269-.03A7.431,7.431,0,0,0,45.5,33.323c1.59-1.728,2.05-5.088,2.1-5.465l.005-.049c.014-.161.353-3.985.353-7.823V16.4c0-3.839-.339-7.662-.353-7.823ZM45.146,19.985c0,3.553-.31,7.212-.34,7.548a8.922,8.922,0,0,1-1.379,3.893,4.622,4.622,0,0,1-3.317,1.539c-.108.011-.209.022-.3.034-6.132.443-15.346.512-15.77.514-.476-.007-11.786-.18-15.335-.51-.182-.03-.378-.052-.585-.076a5.255,5.255,0,0,1-3.594-1.5L4.5,31.4A8.1,8.1,0,0,1,3.15,27.544c-.022-.254-.341-3.956-.341-7.559V16.4c0-3.549.31-7.2.34-7.547A8.741,8.741,0,0,1,4.528,4.955a4.849,4.849,0,0,1,3.387-1.6l.229-.027c6.222-.446,15.5-.512,15.834-.514s9.609.069,15.776.514L40,3.354a5.032,5.032,0,0,1,3.442,1.559l.011.012a8.226,8.226,0,0,1,1.352,3.911c.021.24.341,3.95.341,7.561Zm0,0" fill="#fff"/>
    </g>
  </g>
</svg>
