<svg xmlns="http://www.w3.org/2000/svg" width="74.838" height="110.667" viewBox="0 0 74.838 110.667">
  <g id="Group_3336" data-name="Group 3336" transform="translate(-1138.12 -382.333)">
    <g id="Group_2594" data-name="Group 2594" transform="translate(1138.12 382.333)">
      <path id="Path_1096" data-name="Path 1096" d="M217.865,67.923c-.386,0-.774,0-1.161,0-28.55.042-46.4,30.893-32.129,55.617l31.779,55.042c.205,0,.41.007.617.007s.414-.005.619-.007l31.781-55.046c14.136-24.486-3.234-55.366-31.507-55.61m-.893,56.63a18.845,18.845,0,1,1,18.351-18.839,18.6,18.6,0,0,1-18.351,18.839" transform="translate(-179.553 -67.919)" fill="#2e99ce"/>
      <ellipse id="Ellipse_156" data-name="Ellipse 156" cx="23.5" cy="26.5" rx="23.5" ry="26.5" transform="translate(14.88 11.667)" fill="#2e99ce"/>
    </g>
    <g id="investment" transform="translate(1148 352.181)">
      <g id="Group_2589" data-name="Group 2589" transform="translate(19.982 52.989)">
        <g id="Group_2588" data-name="Group 2588" transform="translate(0 0)">
          <path id="Path_1074" data-name="Path 1074" d="M197.4,135.851h-2.925a2.718,2.718,0,0,1,0-5.437h5.85a1.669,1.669,0,0,0,0-3.337H197.6v-2.719a1.669,1.669,0,1,0-3.337,0v2.724a6.055,6.055,0,0,0,.206,12.106H197.4a2.719,2.719,0,1,1,0,5.437h-5.85a1.669,1.669,0,0,0,0,3.337h2.718v2.719a1.669,1.669,0,0,0,3.337,0v-2.724a6.055,6.055,0,0,0-.206-12.107Z" transform="translate(-188.418 -122.689)" fill="#fff"/>
        </g>
      </g>
      <g id="Group_2591" data-name="Group 2591" transform="translate(0 66.546)">
        <g id="Group_2590" data-name="Group 2590" transform="translate(0 0)">
          <path id="Path_1075" data-name="Path 1075" d="M47.337,249.912a1.58,1.58,0,0,0-2.112.861,19.476,19.476,0,0,1-17.856,12.161c-9.569,0-17.678-7.386-19.214-16.962l4.254,2.957a1.566,1.566,0,0,0,2.224-.46,1.711,1.711,0,0,0-.443-2.315l-7.012-4.875a1.555,1.555,0,0,0-1.2-.249,1.6,1.6,0,0,0-1.021.71l-4.684,7.3a1.711,1.711,0,0,0,.443,2.315,1.551,1.551,0,0,0,.889.281,1.586,1.586,0,0,0,1.335-.742l2.212-3.445a23.753,23.753,0,0,0,6.362,12.1,22.112,22.112,0,0,0,15.857,6.725,22.681,22.681,0,0,0,20.795-14.162A1.7,1.7,0,0,0,47.337,249.912Z" transform="translate(0 -240.998)" fill="#fff"/>
        </g>
      </g>
      <g id="Group_2593" data-name="Group 2593" transform="translate(6.701 43.819)">
        <g id="Group_2592" data-name="Group 2592" transform="translate(0 0)">
          <path id="Path_1076" data-name="Path 1076" d="M107.823,58.74a1.566,1.566,0,0,0-2.224.46l-2.213,3.445a23.752,23.752,0,0,0-6.362-12.1,22.112,22.112,0,0,0-15.858-6.725A22.681,22.681,0,0,0,60.372,57.981a1.7,1.7,0,0,0,.827,2.2,1.58,1.58,0,0,0,2.112-.861A19.476,19.476,0,0,1,81.167,47.156c9.568,0,17.678,7.386,19.214,16.962l-4.254-2.957a1.566,1.566,0,0,0-2.224.46,1.711,1.711,0,0,0,.443,2.315l7.011,4.875a1.552,1.552,0,0,0,.889.281,1.586,1.586,0,0,0,1.335-.742l4.685-7.3A1.711,1.711,0,0,0,107.823,58.74Z" transform="translate(-60.237 -43.819)" fill="#fff"/>
        </g>
      </g>
    </g>
  </g>
</svg>
