<svg xmlns="http://www.w3.org/2000/svg" width="74.838" height="110.667" viewBox="0 0 74.838 110.667">
  <g id="Group_3341" data-name="Group 3341" transform="translate(-1138.12 -382.333)">
    <g id="Group_2594" data-name="Group 2594" transform="translate(1138.12 382.333)">
      <path id="Path_1096" data-name="Path 1096" d="M217.865,67.923c-.386,0-.774,0-1.161,0-28.55.042-46.4,30.893-32.129,55.617l31.779,55.042c.205,0,.41.007.617.007s.414-.005.619-.007l31.781-55.046c14.136-24.486-3.234-55.366-31.507-55.61m-.893,56.63a18.845,18.845,0,1,1,18.351-18.839,18.6,18.6,0,0,1-18.351,18.839" transform="translate(-179.553 -67.919)" fill="#f89826"/>
      <ellipse id="Ellipse_156" data-name="Ellipse 156" cx="23.5" cy="26.5" rx="23.5" ry="26.5" transform="translate(14.88 11.667)" fill="#f89826"/>
    </g>
    <g id="settings" transform="translate(1155.108 396.804)">
      <path id="Path_1072" data-name="Path 1072" d="M21.713,40.862H19.149A3.766,3.766,0,0,1,15.387,37.1v-.868a16.5,16.5,0,0,1-2.562-1.063l-.615.615a3.762,3.762,0,0,1-5.32,0L5.078,33.972a3.761,3.761,0,0,1,0-5.32l.614-.614a16.5,16.5,0,0,1-1.063-2.562H3.762A3.766,3.766,0,0,1,0,21.713V19.149a3.766,3.766,0,0,1,3.762-3.762h.868a16.5,16.5,0,0,1,1.063-2.562l-.615-.615a3.762,3.762,0,0,1,0-5.32L6.891,5.078a3.761,3.761,0,0,1,5.32,0l.614.614a16.512,16.512,0,0,1,2.562-1.063V3.762A3.766,3.766,0,0,1,19.149,0h2.565a3.766,3.766,0,0,1,3.762,3.762v.868a16.5,16.5,0,0,1,2.562,1.063l.615-.615a3.762,3.762,0,0,1,5.32,0l1.813,1.812a3.762,3.762,0,0,1,0,5.32l-.614.614a16.5,16.5,0,0,1,1.063,2.562H37.1a3.766,3.766,0,0,1,3.762,3.762v2.565A3.766,3.766,0,0,1,37.1,25.475h-.868a16.5,16.5,0,0,1-1.063,2.562l.615.615a3.762,3.762,0,0,1,0,5.32l-1.813,1.813a3.761,3.761,0,0,1-5.32,0l-.614-.614a16.513,16.513,0,0,1-2.562,1.063V37.1A3.766,3.766,0,0,1,21.713,40.862Zm-8.488-8.207a14.111,14.111,0,0,0,3.658,1.518,1.2,1.2,0,0,1,.9,1.159V37.1a1.369,1.369,0,0,0,1.367,1.367h2.565A1.369,1.369,0,0,0,23.081,37.1V35.333a1.2,1.2,0,0,1,.9-1.159,14.111,14.111,0,0,0,3.658-1.518,1.2,1.2,0,0,1,1.456.184l1.252,1.252a1.367,1.367,0,0,0,1.933,0l1.814-1.814a1.367,1.367,0,0,0,0-1.933L32.84,29.092a1.2,1.2,0,0,1-.184-1.456,14.109,14.109,0,0,0,1.518-3.658,1.2,1.2,0,0,1,1.159-.9H37.1a1.369,1.369,0,0,0,1.367-1.367V19.149A1.369,1.369,0,0,0,37.1,17.782H35.333a1.2,1.2,0,0,1-1.159-.9,14.112,14.112,0,0,0-1.518-3.658,1.2,1.2,0,0,1,.184-1.456l1.252-1.252a1.367,1.367,0,0,0,0-1.933L32.279,6.771a1.367,1.367,0,0,0-1.933,0L29.093,8.023a1.2,1.2,0,0,1-1.456.184,14.111,14.111,0,0,0-3.658-1.518,1.2,1.2,0,0,1-.9-1.159V3.762a1.369,1.369,0,0,0-1.367-1.367H19.149a1.369,1.369,0,0,0-1.367,1.367V5.529a1.2,1.2,0,0,1-.9,1.159,14.111,14.111,0,0,0-3.658,1.518,1.2,1.2,0,0,1-1.456-.184L10.518,6.771a1.367,1.367,0,0,0-1.933,0L6.771,8.584a1.367,1.367,0,0,0,0,1.933L8.023,11.77a1.2,1.2,0,0,1,.184,1.456,14.109,14.109,0,0,0-1.518,3.658,1.2,1.2,0,0,1-1.159.9H3.762a1.369,1.369,0,0,0-1.367,1.367v2.565a1.369,1.369,0,0,0,1.367,1.367H5.529a1.2,1.2,0,0,1,1.159.9,14.111,14.111,0,0,0,1.518,3.658,1.2,1.2,0,0,1-.184,1.456L6.771,30.344a1.367,1.367,0,0,0,0,1.933l1.814,1.814a1.367,1.367,0,0,0,1.933,0l1.253-1.253a1.2,1.2,0,0,1,1.456-.184Z" fill="#fff"/>
      <path id="Path_1073" data-name="Path 1073" d="M153.491,162.381a8.891,8.891,0,1,1,8.891-8.891A8.9,8.9,0,0,1,153.491,162.381Zm0-15.387a6.5,6.5,0,1,0,6.5,6.5A6.5,6.5,0,0,0,153.491,146.994Z" transform="translate(-133.06 -133.06)" fill="#fff"/>
    </g>
  </g>
</svg>
