<svg xmlns="http://www.w3.org/2000/svg" width="74.838" height="110.667" viewBox="0 0 74.838 110.667">
  <g id="Group_3346" data-name="Group 3346" transform="translate(-1138.12 -382.333)">
    <g id="Group_2594" data-name="Group 2594" transform="translate(1138.12 382.333)">
      <path id="Path_1096" data-name="Path 1096" d="M217.865,67.923c-.386,0-.774,0-1.161,0-28.55.042-46.4,30.893-32.129,55.617l31.779,55.042c.205,0,.41.007.617.007s.414-.005.619-.007l31.781-55.046c14.136-24.486-3.234-55.366-31.507-55.61m-.893,56.63a18.845,18.845,0,1,1,18.351-18.839,18.6,18.6,0,0,1-18.351,18.839" transform="translate(-179.553 -67.919)" fill="#7d7d7d"/>
      <ellipse id="Ellipse_156" data-name="Ellipse 156" cx="23.5" cy="26.5" rx="23.5" ry="26.5" transform="translate(14.88 11.667)" fill="#7d7d7d"/>
    </g>
    <g id="event" transform="translate(1114.415 400.432)">
      <path id="Path_1094" data-name="Path 1094" d="M74.225,2.909H72.044V2.182A2.184,2.184,0,0,0,69.862,0h0A2.184,2.184,0,0,0,67.68,2.182v.727H63.317V2.182A2.184,2.184,0,0,0,61.135,0h0a2.184,2.184,0,0,0-2.182,2.182v.727H54.59V2.182A2.184,2.184,0,0,0,52.408,0h0a2.184,2.184,0,0,0-2.182,2.182v.727H48.045A2.2,2.2,0,0,0,45.84,5.091V35.053a2.2,2.2,0,0,0,2.205,2.182h26.18a2.184,2.184,0,0,0,2.182-2.182V5.091A2.184,2.184,0,0,0,74.225,2.909Zm-5.091-.727a.727.727,0,0,1,1.454,0V5.091a.727.727,0,0,1-1.454,0Zm-8.727,0a.727.727,0,0,1,1.454,0V5.091a.727.727,0,0,1-1.454,0Zm-8.727,0a.727.727,0,1,1,1.454,0V5.091a.727.727,0,1,1-1.454,0ZM48.045,4.363h2.182v.727a2.182,2.182,0,1,0,4.363,0V4.363h4.363v.727a2.182,2.182,0,0,0,4.363,0V4.363H67.68v.727a2.182,2.182,0,0,0,4.363,0V4.363h2.182a.728.728,0,0,1,.727.727V9.454H47.294V5.091a.749.749,0,0,1,.751-.727ZM74.225,35.78H48.045a.749.749,0,0,1-.751-.727V10.909H74.953V35.053A.728.728,0,0,1,74.225,35.78Z" transform="translate(0)" fill="#fff" fill-rule="evenodd"/>
      <path id="Path_1095" data-name="Path 1095" d="M172.45,225.71l-1.546-3.156a.976.976,0,0,0-1.756-.006L167.6,225.71l-3.491.5h0a.977.977,0,0,0-.544,1.668l2.53,2.451-.607,3.472h0a.978.978,0,0,0,1.418,1.033l3.115-1.65,3.065,1.624a.979.979,0,0,0,1.47-1.007l-.607-3.472,2.5-2.42a.978.978,0,0,0-.511-1.7Z" transform="translate(-108.891 -205.856)" fill="#fff" fill-rule="evenodd"/>
    </g>
  </g>
</svg>
