<svg xmlns="http://www.w3.org/2000/svg" xmlns:xlink="http://www.w3.org/1999/xlink" width="74.838" height="129.667" viewBox="0 0 74.838 129.667">
  <defs>
    <radialGradient id="radial-gradient" cx="0.5" cy="0.5" r="0.5" gradientUnits="objectBoundingBox">
      <stop offset="0" stop-color="#349a9a"/>
      <stop offset="0.379" stop-color="#349a9a" stop-opacity="0.804"/>
      <stop offset="1" stop-color="#349a9a" stop-opacity="0"/>
    </radialGradient>
  </defs>
  <g id="Group_2678" data-name="Group 2678" transform="translate(-1066.12 -424.333)">
    <circle id="Ellipse_158" data-name="Ellipse 158" cx="20.5" cy="20.5" r="20.5" transform="translate(1083 513)" fill="url(#radial-gradient)"/>
    <g id="Ellipse_159" data-name="Ellipse 159" transform="translate(1092 522)" fill="#349a9a" stroke="#fff" stroke-width="2">
      <circle cx="11.5" cy="11.5" r="11.5" stroke="none"/>
      <circle cx="11.5" cy="11.5" r="10.5" fill="none"/>
    </g>
  </g>
  <g id="Group_2676" data-name="Group 2676" transform="translate(-1138.12 -382.333)">
    <g id="Group_2594" data-name="Group 2594" transform="translate(1138.12 382.333)">
      <path id="Path_1096" data-name="Path 1096" d="M217.865,67.923c-.386,0-.774,0-1.161,0-28.55.042-46.4,30.893-32.129,55.617l31.779,55.042c.205,0,.41.007.617.007s.414-.005.619-.007l31.781-55.046c14.136-24.486-3.234-55.366-31.507-55.61m-.893,56.63a18.845,18.845,0,1,1,18.351-18.839,18.6,18.6,0,0,1-18.351,18.839" transform="translate(-179.553 -67.919)" fill="#349a9a"/>
      <ellipse id="Ellipse_156" data-name="Ellipse 156" cx="23.5" cy="26.5" rx="23.5" ry="26.5" transform="translate(14.88 11.667)" fill="#349a9a"/>
    </g>
    <g id="shuttle" transform="translate(1155.637 400.682)">
      <path id="Path_1062" data-name="Path 1062" d="M41.236,3.082A3.209,3.209,0,0,0,38.2.049a31.869,31.869,0,0,0-15.976,3.2,31.364,31.364,0,0,0-9.159,7.595l-.1.118-6.046.467a3.192,3.192,0,0,0-2.432,1.431L.368,19.1a2.211,2.211,0,0,0,1.506,3.4l5.094.789c-.018.1-.036.2-.053.3a3.207,3.207,0,0,0,.9,2.79l7.1,7.1a3.215,3.215,0,0,0,2.269.942,3.161,3.161,0,0,0,.521-.043c.1-.017.2-.035.3-.053l.789,5.094a2.209,2.209,0,0,0,3.4,1.506l6.239-4.125a3.191,3.191,0,0,0,1.431-2.432l.467-6.046.118-.1a31.362,31.362,0,0,0,7.595-9.159,31.871,31.871,0,0,0,3.2-15.976ZM27.093,34.774,21.126,38.72l-.769-4.964a27.1,27.1,0,0,0,7.394-3.52l-.3,3.939a.788.788,0,0,1-.353.6ZM16.619,31.761l-7.1-7.1a.784.784,0,0,1-.224-.681,20.807,20.807,0,0,1,.944-3.593L20.891,31.038a20.9,20.9,0,0,1-3.591.947A.784.784,0,0,1,16.619,31.761ZM7.111,13.838l3.939-.3a27.094,27.094,0,0,0-3.521,7.394l-4.964-.769L6.51,14.191A.788.788,0,0,1,7.111,13.838ZM28.895,26.359a27.731,27.731,0,0,1-5.6,3.662L11.263,17.989a28.211,28.211,0,0,1,3.662-5.6,28.865,28.865,0,0,1,8.413-7A29.421,29.421,0,0,1,38.071,2.464a.793.793,0,0,1,.75.75A29.419,29.419,0,0,1,35.89,17.947a28.865,28.865,0,0,1-7,8.413Z" transform="translate(0 0)" fill="#fff"/>
      <path id="Path_1063" data-name="Path 1063" d="M281.77,98.408a6.043,6.043,0,1,0-4.276-1.768A6.03,6.03,0,0,0,281.77,98.408ZM279.2,89.8a3.628,3.628,0,1,1-1.063,2.566A3.617,3.617,0,0,1,279.2,89.8Z" transform="translate(-253.49 -79.358)" fill="#fff"/>
      <path id="Path_1064" data-name="Path 1064" d="M1.511,349.332a1.2,1.2,0,0,0,.855-.354l3.949-3.949a1.209,1.209,0,0,0-1.71-1.71L.656,347.267a1.21,1.21,0,0,0,.855,2.065Z" transform="translate(-0.277 -315.31)" fill="#fff"/>
      <path id="Path_1065" data-name="Path 1065" d="M9.657,388.2a1.21,1.21,0,0,0-1.71,0L.355,395.792a1.21,1.21,0,0,0,1.71,1.711l7.592-7.592A1.21,1.21,0,0,0,9.657,388.2Z" transform="translate(0 -356.572)" fill="#fff"/>
      <path id="Path_1066" data-name="Path 1066" d="M94.366,433.081l-3.949,3.949a1.209,1.209,0,1,0,1.71,1.71l3.949-3.949a1.209,1.209,0,1,0-1.71-1.711Z" transform="translate(-82.8 -397.834)" fill="#fff"/>
    </g>
  </g>
</svg>
