<svg xmlns="http://www.w3.org/2000/svg" width="74.838" height="110.667" viewBox="0 0 74.838 110.667">
  <g id="Group_3345" data-name="Group 3345" transform="translate(-1138.12 -382.333)">
    <g id="Group_2594" data-name="Group 2594" transform="translate(1138.12 382.333)">
      <path id="Path_1096" data-name="Path 1096" d="M217.865,67.923c-.386,0-.774,0-1.161,0-28.55.042-46.4,30.893-32.129,55.617l31.779,55.042c.205,0,.41.007.617.007s.414-.005.619-.007l31.781-55.046c14.136-24.486-3.234-55.366-31.507-55.61m-.893,56.63a18.845,18.845,0,1,1,18.351-18.839,18.6,18.6,0,0,1-18.351,18.839" transform="translate(-179.553 -67.919)" fill="#b3ddc4"/>
      <ellipse id="Ellipse_156" data-name="Ellipse 156" cx="23.5" cy="26.5" rx="23.5" ry="26.5" transform="translate(14.88 11.667)" fill="#b3ddc4"/>
    </g>
    <path id="layers" d="M34.957,19.965,29.3,16.518l5.656-3.447a1.861,1.861,0,0,0,0-3L18.723.176a1.159,1.159,0,0,0-1.231,0L1.258,10.071a1.861,1.861,0,0,0,0,3l5.656,3.447L1.258,19.965a1.861,1.861,0,0,0,0,3l5.656,3.447L1.258,29.859a1.861,1.861,0,0,0,0,3l16.234,9.894a1.158,1.158,0,0,0,1.231,0l16.234-9.894a1.861,1.861,0,0,0,0-3L29.3,26.412l5.656-3.447a1.861,1.861,0,0,0,0-3ZM18.108,3.551l13.157,8.019L18.108,19.59,4.95,11.571ZM31.265,31.359,18.108,39.378,4.95,31.359l5.041-3.072,7.5,4.572a1.158,1.158,0,0,0,1.231,0l7.5-4.572ZM18.108,29.484,4.95,21.465l5.041-3.072,7.5,4.572a1.158,1.158,0,0,0,1.231,0l7.5-4.572,5.041,3.072Zm0,0" transform="translate(1157.431 394.737)" fill="#fff"/>
  </g>
</svg>
