<svg xmlns="http://www.w3.org/2000/svg" width="74.838" height="110.667" viewBox="0 0 74.838 110.667">
  <g id="Group_3343" data-name="Group 3343" transform="translate(-1138.12 -382.333)">
    <g id="Group_2594" data-name="Group 2594" transform="translate(1138.12 382.333)">
      <path id="Path_1096" data-name="Path 1096" d="M217.865,67.923c-.386,0-.774,0-1.161,0-28.55.042-46.4,30.893-32.129,55.617l31.779,55.042c.205,0,.41.007.617.007s.414-.005.619-.007l31.781-55.046c14.136-24.486-3.234-55.366-31.507-55.61m-.893,56.63a18.845,18.845,0,1,1,18.351-18.839,18.6,18.6,0,0,1-18.351,18.839" transform="translate(-179.553 -67.919)" fill="#be63f9"/>
      <ellipse id="Ellipse_156" data-name="Ellipse 156" cx="23.5" cy="26.5" rx="23.5" ry="26.5" transform="translate(14.88 11.667)" fill="#be63f9"/>
    </g>
    <g id="bank" transform="translate(1152.359 390.812)">
      <path id="Path_1086" data-name="Path 1086" d="M5.294,16.181H41.066a.544.544,0,0,0,.272-1.016L23.453,4.823a.543.543,0,0,0-.545,0L5.022,15.166a.544.544,0,0,0,.272,1.016ZM23.18,5.923l15.857,9.17H7.323Z" fill="#fff" stroke="#fff" stroke-width="0.2"/>
      <path id="Path_1087" data-name="Path 1087" d="M59.921,18.423V17.106a2.293,2.293,0,0,1,1,.525l.476-.643a2.6,2.6,0,0,0-1.471-.653V15.9h-.636v.427a1.5,1.5,0,0,0-1.443,1.443c0,.826.582,1.135,1.443,1.359V20.5a2.4,2.4,0,0,1-1.128-.6l-.5.622a2.871,2.871,0,0,0,1.632.75v.469h.637v-.446c1.016-.07,1.6-.659,1.6-1.464,0-.855-.639-1.184-1.6-1.4Zm-.637-.168c-.378-.133-.56-.28-.56-.56a.661.661,0,0,1,.56-.6Zm.637,2.284V19.292c.5.147.722.294.722.617S60.4,20.483,59.921,20.539Z" transform="translate(-36.446 -7.682)" fill="#fff" stroke="#fff" stroke-width="0.2"/>
      <path id="Path_1088" data-name="Path 1088" d="M41.066,110.75H5.294a.545.545,0,0,0-.544.544v2.8a.545.545,0,0,0,.544.544H41.066a.544.544,0,0,0,.544-.544v-2.8A.544.544,0,0,0,41.066,110.75Zm-.544,2.8H5.839v-1.711H40.522Z" transform="translate(0 -73.028)" fill="#fff" stroke="#fff" stroke-width="0.2"/>
      <path id="Path_1089" data-name="Path 1089" d="M22,46.819v-1.4a.545.545,0,0,0-.544-.544H16.794a.545.545,0,0,0-.544.544v1.4a1.012,1.012,0,0,0,.933,1.008V61.364a1.013,1.013,0,0,0-.933,1.008v1.4a.545.545,0,0,0,.544.544H21.46A.545.545,0,0,0,22,63.772v-1.4a1.013,1.013,0,0,0-.933-1.008V47.827A1.012,1.012,0,0,0,22,46.819Zm-1.089-.075a1.013,1.013,0,0,0-.933,1.008V61.439a1.012,1.012,0,0,0,.933,1.008v.78H17.339v-.78a1.012,1.012,0,0,0,.933-1.008V47.752a1.013,1.013,0,0,0-.933-1.008v-.78h3.577Z" transform="translate(-7.923 -27.644)" fill="#fff" stroke="#fff" stroke-width="0.2"/>
      <path id="Path_1090" data-name="Path 1090" d="M47.672,46.819v-1.4a.545.545,0,0,0-.544-.544H42.461a.544.544,0,0,0-.544.544v1.4a1.012,1.012,0,0,0,.933,1.008V61.364a1.013,1.013,0,0,0-.933,1.008v1.4a.544.544,0,0,0,.544.544h4.666a.545.545,0,0,0,.544-.544v-1.4a1.013,1.013,0,0,0-.933-1.008V47.827A1.013,1.013,0,0,0,47.672,46.819Zm-1.089-.075a1.013,1.013,0,0,0-.933,1.008V61.439a1.012,1.012,0,0,0,.933,1.008v.78H43.006v-.78a1.013,1.013,0,0,0,.933-1.008V47.752a1.013,1.013,0,0,0-.933-1.008v-.78h3.577Z" transform="translate(-25.606 -27.644)" fill="#fff" stroke="#fff" stroke-width="0.2"/>
      <path id="Path_1091" data-name="Path 1091" d="M73.338,46.819v-1.4a.544.544,0,0,0-.544-.544H68.127a.544.544,0,0,0-.544.544v1.4a1.012,1.012,0,0,0,.933,1.008V61.364a1.013,1.013,0,0,0-.933,1.008v1.4a.544.544,0,0,0,.544.544h4.666a.544.544,0,0,0,.544-.544v-1.4a1.012,1.012,0,0,0-.933-1.008V47.827A1.012,1.012,0,0,0,73.338,46.819Zm-1.089-.075a1.013,1.013,0,0,0-.933,1.008V61.439a1.012,1.012,0,0,0,.933,1.008v.78H68.672v-.78a1.012,1.012,0,0,0,.933-1.008V47.752a1.012,1.012,0,0,0-.933-1.008v-.78h3.577Z" transform="translate(-43.288 -27.644)" fill="#fff" stroke="#fff" stroke-width="0.2"/>
      <path id="Path_1092" data-name="Path 1092" d="M99,46.819v-1.4a.544.544,0,0,0-.544-.544H93.794a.544.544,0,0,0-.544.544v1.4a1.012,1.012,0,0,0,.933,1.008V61.364a1.013,1.013,0,0,0-.933,1.008v1.4a.544.544,0,0,0,.544.544H98.46A.544.544,0,0,0,99,63.772v-1.4a1.012,1.012,0,0,0-.933-1.008V47.827A1.012,1.012,0,0,0,99,46.819Zm-1.089-.075a1.013,1.013,0,0,0-.933,1.008V61.439a1.012,1.012,0,0,0,.933,1.008v.78H94.339v-.78a1.012,1.012,0,0,0,.933-1.008V47.752a1.013,1.013,0,0,0-.933-1.008v-.78h3.577Z" transform="translate(-60.971 -27.644)" fill="#fff" stroke="#fff" stroke-width="0.2"/>
      <path id="Path_1093" data-name="Path 1093" d="M84.961,24.415l-4.725-2.733a.544.544,0,0,0-.545.943l4.725,2.732a.544.544,0,0,0,.545-.943Z" transform="translate(-51.442 -11.615)" fill="#fff" stroke="#fff" stroke-width="0.2"/>
    </g>
  </g>
</svg>
