<svg xmlns="http://www.w3.org/2000/svg" width="74.838" height="110.667" viewBox="0 0 74.838 110.667">
  <g id="Group_3342" data-name="Group 3342" transform="translate(-1138.12 -382.333)">
    <g id="Group_2594" data-name="Group 2594" transform="translate(1138.12 382.333)">
      <path id="Path_1096" data-name="Path 1096" d="M217.865,67.923c-.386,0-.774,0-1.161,0-28.55.042-46.4,30.893-32.129,55.617l31.779,55.042c.205,0,.41.007.617.007s.414-.005.619-.007l31.781-55.046c14.136-24.486-3.234-55.366-31.507-55.61m-.893,56.63a18.845,18.845,0,1,1,18.351-18.839,18.6,18.6,0,0,1-18.351,18.839" transform="translate(-179.553 -67.919)" fill="#1a3665"/>
      <ellipse id="Ellipse_156" data-name="Ellipse 156" cx="23.5" cy="26.5" rx="23.5" ry="26.5" transform="translate(14.88 11.667)" fill="#1a3665"/>
    </g>
    <g id="_05-support" data-name="05-support" transform="translate(1152.266 391.841)">
      <g id="linear_color" data-name="linear color" transform="translate(4 4.436)">
        <path id="Path_1077" data-name="Path 1077" d="M38.274,312.046c-.334-.167-3.314-1.581-5.079.185-.061.06-.121.124-.181.189a3.739,3.739,0,0,0-3.761.668,17.591,17.591,0,0,0-2.545,3.688l-1.807.361-4.836-3.224H23.38a4.57,4.57,0,0,0,4.33-2.516,5.839,5.839,0,0,0,.6-2.412.985.985,0,0,0-.985-.985H4.985a.985.985,0,0,0,0,1.971H26.164a3.49,3.49,0,0,1-.241.595,2.6,2.6,0,0,1-2.542,1.376h-6.57a.988.988,0,0,0-.547,1.805L24.147,319a.986.986,0,0,0,.74.146l6.57-1.314a.985.985,0,0,0,.688-.526,18.623,18.623,0,0,1,2.443-3.686,2.069,2.069,0,0,1,1.872-.154l-3.247,6.5-9.846,2.462-11.6-2.578a.991.991,0,0,0-.214-.024H4.985a.985.985,0,0,0,0,1.971h6.461l11.72,2.6a.985.985,0,0,0,.453-.006l10.511-2.628a.985.985,0,0,0,.642-.515l3.942-7.883a.985.985,0,0,0-.441-1.322Zm-7.665,3.949-1.312.263a11.065,11.065,0,0,1,1.35-1.777,1.339,1.339,0,0,1,1.027-.292C31.214,314.9,30.835,315.573,30.608,315.995Z" transform="translate(-4 -283.072)" fill="#fff"/>
        <path id="Path_1078" data-name="Path 1078" d="M127.3,17.974l1.286.159.324.783-.8,1.022a.985.985,0,0,0,.08,1.3l2.716,2.716a.985.985,0,0,0,1.3.08l1.022-.8.783.324.159,1.286a.986.986,0,0,0,.978.864h3.841a.985.985,0,0,0,.978-.864l.159-1.286.783-.324,1.022.8a.985.985,0,0,0,1.3-.08l2.716-2.716a.985.985,0,0,0,.08-1.3l-.8-1.022.324-.783,1.286-.159a.985.985,0,0,0,.864-.978V13.155a.985.985,0,0,0-.864-.978l-1.286-.159-.324-.783.8-1.022a.985.985,0,0,0-.08-1.3l-2.716-2.716a.985.985,0,0,0-1.3-.08l-1.022.8-.783-.324L139.97,5.3a.985.985,0,0,0-.978-.864h-3.841a.985.985,0,0,0-.978.864l-.159,1.286-.783.324-1.022-.8a.985.985,0,0,0-1.3.08L128.191,8.91a.985.985,0,0,0-.08,1.3l.8,1.022-.324.783-1.286.159a.985.985,0,0,0-.864.978V17a.985.985,0,0,0,.865.978Zm1.106-3.948.991-.123a.985.985,0,0,0,.789-.6l.764-1.844a.985.985,0,0,0-.133-.983l-.614-.788L131.684,8.2l.788.614a.985.985,0,0,0,.983.133l1.844-.764a.986.986,0,0,0,.6-.789l.123-.991h2.1l.123.991a.986.986,0,0,0,.6.789l1.844.764a.985.985,0,0,0,.983-.133l.788-.614,1.484,1.484-.614.788a.985.985,0,0,0-.133.983l.764,1.844a.985.985,0,0,0,.789.6l.992.123v2.1l-.992.123a.985.985,0,0,0-.789.6l-.764,1.844a.985.985,0,0,0,.133.983l.614.788-1.484,1.484-.788-.614a.985.985,0,0,0-.983-.133l-1.844.764a.986.986,0,0,0-.6.789l-.123.991h-2.1l-.123-.991a.985.985,0,0,0-.6-.789l-1.844-.764a.985.985,0,0,0-.983.133l-.788.614L130.2,20.463l.614-.788a.985.985,0,0,0,.133-.983l-.764-1.844a.985.985,0,0,0-.789-.6l-.991-.123Z" transform="translate(-116.378 -4.436)" fill="#fff"/>
        <path id="Path_1079" data-name="Path 1079" d="M206.063,88.56a4.464,4.464,0,1,0-3.158-1.306A4.464,4.464,0,0,0,206.063,88.56ZM204.3,82.332a2.488,2.488,0,1,1-.734,1.765A2.5,2.5,0,0,1,204.3,82.332Z" transform="translate(-185.369 -73.457)" fill="#fff"/>
        <path id="Path_1080" data-name="Path 1080" d="M414.487,99.684a.985.985,0,0,0,0,1.394,1.638,1.638,0,0,1,0,2.318.985.985,0,1,0,1.393,1.394,3.609,3.609,0,0,0,0-5.107A.985.985,0,0,0,414.487,99.684Z" transform="translate(-380.514 -91.598)" fill="#fff"/>
        <path id="Path_1081" data-name="Path 1081" d="M449.821,65.778a.985.985,0,1,0-1.393,1.394,5.573,5.573,0,0,1,0,7.887.985.985,0,1,0,1.393,1.394,7.543,7.543,0,0,0,0-10.675Z" transform="translate(-411.667 -60.476)" fill="#fff"/>
        <path id="Path_1082" data-name="Path 1082" d="M66.183,105.075a.985.985,0,0,0,.7-1.683,1.638,1.638,0,0,1,0-2.318.985.985,0,0,0-1.393-1.394,3.609,3.609,0,0,0,0,5.107A.983.983,0,0,0,66.183,105.075Z" transform="translate(-59.466 -91.594)" fill="#fff"/>
        <path id="Path_1083" data-name="Path 1083" d="M19.338,76.741a.985.985,0,0,0,.7-1.683,5.573,5.573,0,0,1,0-7.887.985.985,0,1,0-1.393-1.394,7.543,7.543,0,0,0,0,10.675A.982.982,0,0,0,19.338,76.741Z" transform="translate(-15.408 -60.476)" fill="#fff"/>
      </g>
    </g>
  </g>
</svg>
